<svg xmlns="http://www.w3.org/2000/svg" xmlns:xlink="http://www.w3.org/1999/xlink" viewBox="-135 0 800 800">
  <defs>
    <style>
      .cls-1, .cls-4 {
        fill: none;
      }

      .cls-2 {
        fill: #4db97c;
      }

      .cls-3 {
        clip-path: url(#clip-path);
      }

      .cls-4 {
        stroke: #42a16c;
        stroke-linecap: round;
        stroke-linejoin: round;
        stroke-width: 6px;
      }

      .cls-5 {
        fill: #020202;
      }

      .cls-6 {
        fill: #ebf5f0;
      }

      .cls-7 {
        clip-path: url(#clip-path-2);
      }

      .cls-8 {
        fill: #cf745f;
      }
    </style>
    <clipPath id="clip-path">
      <path class="cls-1" d="M262,0C57.38,94.82,0,274.54,0,370.88,0,555.56,262,631.42,262,631.42S524,556.57,524.06,371.88C524.06,275.55,466.68,94.85,262,0Z"/>
    </clipPath>
    <clipPath id="clip-path-2">
      <path class="cls-1" d="M265.17,493.8c-69.06,1.43-94.25-43.39-82.08,14.15,11.24,53.19,77.51,53.2,82,53.2s65.72,0,80.31-53.18C361,451.21,334.23,493.81,265.17,493.8Z"/>
    </clipPath>
  </defs>
  <g id="Layer_2" data-name="Layer 2">
    <g id="Layer_1-2" data-name="Layer 1">
      <g>
        <path class="cls-2" d="M262,0C57.38,94.82,0,274.54,0,370.88,0,555.56,262,631.42,262,631.42S524,556.57,524.06,371.88C524.06,275.55,466.68,94.85,262,0Z"/>
        <g class="cls-3">
          <g>
            <path class="cls-4" d="M9.61,297.67C78.56,367.27,262,436.42,262,436.42s173.56-62.12,252.42-138"/>
            <path class="cls-4" d="M116.46,105.57C139.57,155.28,243.54,168.78,262,212.79c22.5-42,134.53-57.49,151.6-106.94"/>
          </g>
        </g>
        <path class="cls-2" d="M209.35,775.36c3.3,19,19,24.12,30.15,24.12,9.47,0,34.45-4.31,39.8-76.55,4.27-57.71-18-57.8-18-57.8s-10.59.24-16.6,57.8C240.36,764.17,205.91,755.55,209.35,775.36Z"/>
        <path class="cls-5" d="M265.17,493.8c-69.06,1.43-94.25-43.39-82.08,14.15,11.24,53.19,77.51,53.2,82,53.2s65.72,0,80.31-53.18C361,451.21,334.23,493.81,265.17,493.8Z"/>
        <ellipse class="cls-6" cx="405.76" cy="345.95" rx="81.3" ry="91.16"/>
        <ellipse class="cls-5" cx="400.76" cy="346.03" rx="60.54" ry="67.88"/>
        <ellipse class="cls-6" cx="442.11" cy="311.41" rx="17.94" ry="20.12"/>
        <ellipse class="cls-6" cx="116.76" cy="345.93" rx="81.3" ry="91.16"/>
        <ellipse class="cls-5" cx="121.76" cy="346" rx="60.54" ry="67.88"/>
        <ellipse class="cls-6" cx="163.11" cy="311.39" rx="17.94" ry="20.12"/>
        <path class="cls-2" d="M173.79,410.88S76.91,379.67,46,390.91s27.11,63.24,27.11,63.24l69,15S199.44,439.62,173.79,410.88Z"/>
        <path class="cls-2" d="M348.58,410.88s96.88-31.21,127.77-20-27.12,63.24-27.12,63.24l-69,15S322.93,439.62,348.58,410.88Z"/>
        <g class="cls-7">
          <path class="cls-8" d="M264.65,607.8c69.06-1.42,94.24,43.4,82.08-14.15-11.25-53.19-77.52-53.19-82-53.19s-65.72,0-80.32,53.18C168.87,650.4,195.58,607.8,264.65,607.8Z"/>
        </g>
      </g>
    </g>
  </g>
</svg>
