<svg xmlns="http://www.w3.org/2000/svg" viewBox="0 0 100.53 98.05">
  <defs>
    <style>
      .cls-1 {
        fill: #fff;
        fill-rule: evenodd;
      }
    </style>
  </defs>
  <g id="Layer_2" data-name="Layer 2">
    <g id="Layer_2-2" data-name="Layer 2">
      <path class="cls-1" d="M50.26,0A50.27,50.27,0,0,0,34.38,98c2.51.46,3.43-1.09,3.43-2.42s-.05-4.36-.07-8.55c-14,3-16.93-6.74-16.93-6.74-2.29-5.8-5.58-7.35-5.58-7.35-4.57-3.12.34-3.06.34-3.06,5.05.36,7.7,5.18,7.7,5.18C27.76,82.71,35,80.49,37.9,79.2a10.74,10.74,0,0,1,3.19-6.72C29.93,71.21,18.2,66.9,18.2,47.64a19.4,19.4,0,0,1,5.17-13.49c-.52-1.27-2.24-6.38.49-13.3,0,0,4.22-1.35,13.82,5.15a47.7,47.7,0,0,1,25.17,0c9.6-6.5,13.81-5.15,13.81-5.15,2.74,6.92,1,12,.5,13.3a19.4,19.4,0,0,1,5.17,13.49c0,19.31-11.75,23.56-22.95,24.8,1.8,1.55,3.41,4.62,3.41,9.31,0,6.72-.06,12.14-.06,13.79,0,1.34.9,2.91,3.46,2.42A50.28,50.28,0,0,0,50.26,0Z"/>
    </g>
  </g>
</svg>
