<svg xmlns="http://www.w3.org/2000/svg" viewBox="0 0 101.52 101.52">
  <defs>
    <style>
      .cls-1 {
        fill: #fff;
      }
    </style>
  </defs>
  <g id="Layer_2" data-name="Layer 2">
    <g id="Layer_2-2" data-name="Layer 2">
      <g>
        <path class="cls-1" d="M50.76,38.76a12,12,0,1,0,12,12A12,12,0,0,0,50.76,38.76Z"/>
        <path class="cls-1" d="M50.76,0a50.76,50.76,0,1,0,50.76,50.76A50.77,50.77,0,0,0,50.76,0Zm0,76.76a26,26,0,1,1,26-26A26,26,0,0,1,50.76,76.76ZM79.18,30.09h-.1a5.43,5.43,0,0,1-7.65,0,8.86,8.86,0,0,1-.67-.82,5.07,5.07,0,0,1-.5-.95,5.76,5.76,0,0,1-.3-1,6.14,6.14,0,0,1,0-1.05,5.52,5.52,0,0,1,1.58-3.83,6.65,6.65,0,0,1,.82-.67A5.5,5.5,0,0,1,74.3,21a5.4,5.4,0,0,1,4.88,9.12Z"/>
      </g>
    </g>
  </g>
</svg>
