<svg xmlns="http://www.w3.org/2000/svg" viewBox="0 0 102 102">
  <defs>
    <style>
      .cls-1 {
        fill: #fff;
      }
    </style>
  </defs>
  <g id="Layer_2" data-name="Layer 2">
    <g id="Layer_2-2" data-name="Layer 2">
      <path class="cls-1" d="M51,0a51,51,0,1,0,51,51A51,51,0,0,0,51,0ZM20.65,28.79h60.7a5.41,5.41,0,0,1,2,.39L52.76,55.79a2.46,2.46,0,0,1-3.46,0L18.67,29.18A5.41,5.41,0,0,1,20.65,28.79ZM15.3,69.85V34.15a6.33,6.33,0,0,1,0-.76h0L36.91,52.11,15.71,71.92A5.5,5.5,0,0,1,15.3,69.85Zm66.05,5.36H20.65a5.25,5.25,0,0,1-.56,0L41,55.65l4.79,4.16a8,8,0,0,0,10.49,0l4.8-4.18h0L81.88,75.18A4.71,4.71,0,0,1,81.35,75.21Zm5.35-5.36a5.37,5.37,0,0,1-.41,2.09L65.14,52.11,86.65,33.39h0a6.33,6.33,0,0,1,0,.76Z"/>
    </g>
  </g>
</svg>
