<?xml version="1.0" encoding="UTF-8"?>
<svg id="Layer_2" data-name="Layer 2" xmlns="http://www.w3.org/2000/svg" viewBox="0 0 227.73 68.18">
  <defs>
    <style>
      .cls-1 {
        fill: #fff;
        stroke-width: 0px;
      }
    </style>
  </defs>
  <g id="Layer_1-2" data-name="Layer 1">
    <g>
      <g>
        <path class="cls-1" d="M73.8,46.11V9.98c0-.79-.64-1.43-1.43-1.43H13.21c-.79,0-1.43.64-1.43,1.43v36.13c0,.79.64,1.43,1.43,1.43h59.17c.79,0,1.43-.64,1.43-1.43h0ZM70.95,44.68H14.63V11.41h56.32v33.27h0Z"/>
        <path class="cls-1" d="M84.15,53.24h-1.79V7.13c0-3.93-3.2-7.13-7.13-7.13H10.35C6.42,0,3.22,3.2,3.22,7.13v46.11h-1.79c-.79,0-1.43.64-1.43,1.43v6.38c0,3.93,3.2,7.13,7.13,7.13h71.32c3.93,0,7.13-3.2,7.13-7.13v-6.38c0-.79-.64-1.43-1.43-1.43ZM6.07,7.13c0-2.36,1.92-4.28,4.28-4.28h64.88c2.36,0,4.28,1.92,4.28,4.28v46.11H6.07V7.13ZM34.12,56.09h17.34v1.76c0,.79-.64,1.43-1.43,1.43h-14.49c-.79,0-1.43-.64-1.43-1.43,0,0,0-1.76,0-1.76ZM82.73,61.04c0,2.36-1.92,4.28-4.28,4.28H7.13c-2.36,0-4.28-1.92-4.28-4.28v-4.95h28.41v1.76c0,2.36,1.92,4.28,4.28,4.28h14.49c2.36,0,4.28-1.92,4.28-4.28v-1.76h28.41v4.95Z"/>
        <path class="cls-1" d="M33.39,42.48c.79,0,1.43-.64,1.43-1.43v-5.19c0-4.4,3.58-7.98,7.98-7.98s7.98,3.58,7.98,7.98v5.19c0,.79.64,1.43,1.43,1.43s1.43-.64,1.43-1.43v-5.19c0-4.3-2.53-8.01-6.17-9.76,1.5-1.31,2.47-3.21,2.47-5.35,0-3.93-3.2-7.13-7.13-7.13s-7.13,3.2-7.13,7.13c0,2.14.97,4.04,2.47,5.35-3.64,1.75-6.17,5.46-6.17,9.76v5.19c0,.79.64,1.43,1.43,1.43ZM38.51,20.75c0-2.36,1.92-4.28,4.28-4.28s4.28,1.92,4.28,4.28-1.92,4.28-4.28,4.28-4.28-1.92-4.28-4.28Z"/>
      </g>
      <g>
        <path class="cls-1" d="M127.64,66.72l-6.33-9.17-5.32,9.17h-10.94l10.88-16.86-11.18-16.15h11.36l6.33,9.11,5.32-9.11h10.94l-11.06,16.62,11.36,16.39h-11.36Z"/>
        <path class="cls-1" d="M154.68,59.03v-8.16l18.69-26.74h11.3v26.15h4.85v8.75h-4.85v7.69h-10.12v-7.69h-19.88ZM175.26,35.25l-9.94,15.02h9.94v-15.02Z"/>
        <path class="cls-1" d="M198.42,28.51c2.62-3.9,6.85-5.86,12.69-5.86s10.06,1.95,12.69,5.86c2.62,3.9,3.93,9.25,3.93,16.03s-1.31,12.24-3.93,16.15c-2.62,3.9-6.85,5.86-12.69,5.86s-10.07-1.95-12.69-5.86-3.93-9.29-3.93-16.15,1.31-12.13,3.93-16.03ZM216.49,35.34c-.87-2.15-2.66-3.22-5.38-3.22s-4.52,1.08-5.38,3.22c-.87,2.15-1.3,5.22-1.3,9.2,0,2.68.16,4.9.47,6.66.31,1.75.96,3.17,1.92,4.26.97,1.09,2.4,1.63,4.29,1.63s3.32-.54,4.29-1.63c.97-1.08,1.61-2.5,1.92-4.26.31-1.75.47-3.97.47-6.66,0-3.98-.43-7.05-1.3-9.2Z"/>
      </g>
      <g>
        <path class="cls-1" d="M42.79,42.48c-.8,0-1.44-.65-1.44-1.44v-8.83c0-.8.65-1.44,1.44-1.44s1.44.65,1.44,1.44v8.83c0,.8-.65,1.44-1.44,1.44Z"/>
        <path class="cls-1" d="M47.21,38.06h-8.83c-.8,0-1.44-.65-1.44-1.44s.65-1.44,1.44-1.44h8.83c.8,0,1.44.65,1.44,1.44s-.65,1.44-1.44,1.44Z"/>
      </g>
    </g>
  </g>
</svg>