<?xml version="1.0" encoding="UTF-8"?>
<svg id="Layer_2" data-name="Layer 2" xmlns="http://www.w3.org/2000/svg" xmlns:xlink="http://www.w3.org/1999/xlink" viewBox="0 0 809.5 323.03">
  <defs>
    <style>
      .cls-1 {
        fill: #f57c00;
      }

      .cls-1, .cls-2, .cls-3, .cls-4, .cls-5, .cls-6, .cls-7, .cls-8 {
        stroke-width: 0px;
      }

      .cls-9 {
        stroke-dasharray: 0 0 6 3;
      }

      .cls-9, .cls-10, .cls-11, .cls-12 {
        fill: none;
        stroke-miterlimit: 10;
      }

      .cls-9, .cls-10, .cls-12 {
        stroke: #fff;
        stroke-width: 3px;
      }

      .cls-2 {
        fill: url(#linear-gradient);
      }

      .cls-11 {
        stroke: #666;
        stroke-width: 4px;
      }

      .cls-3 {
        fill: #61dafb;
      }

      .cls-12 {
        stroke-dasharray: 0 0 6.29 3.14;
      }

      .cls-4 {
        fill: rgba(255, 255, 255, .2);
      }

      .cls-5 {
        fill: #fff;
      }

      .cls-6 {
        fill: #ffca28;
      }

      .cls-7 {
        fill: #a52714;
        isolation: isolate;
        opacity: .2;
      }

      .cls-8 {
        fill: #ffa000;
      }
    </style>
    <linearGradient id="linear-gradient" x1="-41.94" y1="701.59" x2="-41.78" y2="701.47" gradientTransform="translate(4536 92122.25) scale(95 -131)" gradientUnits="userSpaceOnUse">
      <stop offset="0" stop-color="#fff" stop-opacity=".1"/>
      <stop offset=".14" stop-color="#fff" stop-opacity=".08"/>
      <stop offset=".61" stop-color="#fff" stop-opacity=".02"/>
      <stop offset="1" stop-color="#fff" stop-opacity="0"/>
    </linearGradient>
  </defs>
  <g id="Layer_1-2" data-name="Layer 1">
    <g>
      <path class="cls-11" d="M801.5,241.53c-3,0-2-9-2-9l-9-65-60-16v-2l1-1v-6s5-3,5-6v-5s0-7-6-7h-5s-3,2-3,4v10l5,4v4l-1,1h-13l-28-5s-5,2-10-8-31-69-31-69c0,0-1-2-1-3s1-5,4-5h10s3,0,4-2,1-5,1-5v-3l-5-14V12.53l-4-4h-4l-6.5-6.5H39s-14-1-21,8H5.14s-4.14,11,3.86,20v139s-.86,6.39-4.93,6.39v22.2s3.93,1.41,3.93,5.41v57s0,3-3,3h-3v22.18s0,2.82,2,2.82h42.39l21.61-8,104,5s-1-11,8-11c4.19,0,6.22,2.39,7.18,4.94.16,1.94.44,3.84.84,5.7,0,.22-.02.36-.02.36h.1c4.57,20.59,22.93,36,44.9,36s41.74-16.61,45.36-38.4c.78-1.07,2.27-2.1,5.14-2.1,0,0-2,15,12,15l87-2,6,3h152.06l6.94-4h95.5s4.5,0,4.5-4v-4l10-9,8-1s4,1,6-4c1.72-4.31,4.92-3.41,5.78-.53-.18,1.65-.28,3.33-.28,5.03,0,25.41,20.59,46,46,46s46-20.59,46-46c0-4.04-.52-7.95-1.5-11.68v-1.82h4l3,4h14s14-7,14-15c0,0,5,0,5-4s-3-5-6-5ZM233,297.53c-12.43,0-22.5-10.07-22.5-22.5s10.07-22.5,22.5-22.5,22.5,10.07,22.5,22.5-10.07,22.5-22.5,22.5ZM723,297.53c-12.43,0-22.5-10.07-22.5-22.5s10.07-22.5,22.5-22.5,22.5,10.07,22.5,22.5-10.07,22.5-22.5,22.5Z"/>
      <path class="cls-5" d="M395.6,156.6v1.31c0,3.66,2.98,6.64,6.64,6.64h216.2c3.66,0,6.64-2.98,6.64-6.64v-.53l-.23-122.7c0-3.66-2.98-6.64-6.64-6.64h-216.2c-3.66,0-6.64,2.98-6.64,6.64l.23,121.93ZM403.24,36.64c0-.41.33-.74.74-.74h212.26c.41,0,.74.33.74.74v117.87c0,.41-.33.74-.74.74h-212.26c-.41,0-.74-.33-.74-.74,0,0,0-117.87,0-117.87Z"/>
      <path class="cls-5" d="M60.07,89.2v1.31c0,3.66,2.98,6.64,6.64,6.64l31.21-1c3.66,0,6.64-1.98,6.64-5.64v-.53l-.23-54.31c0-3.66-2.98-6.64-6.64-6.64h-31.21c-3.66,0-6.64,2.98-6.64,6.64l.23,53.53ZM67.71,37.64c0-.41.33-.74.74-.74h27.27c.41,0,.74.33.74.74v46.36c0,.41-.33.74-.74.74h-27.27c-.41,0-.74-.33-.74-.74,0,0,0-46.36,0-46.36Z"/>
      <g>
        <g>
          <path class="cls-5" d="M620.53,253.51c-.14-.21-.37-.34-.62-.34h-34.34c-.33,0-.62.22-.71.54l-.96,3.45h-26.5l-.96-3.45c-.09-.32-.38-.54-.71-.54h-34.34c-.25,0-.49.13-.62.34-.14.21-.15.48-.05.71l3.46,7.46c.08.16.21.3.38.37l7.38,3.18c.09.04.19.06.29.06h76.86c.1,0,.2-.02.29-.06l7.38-3.18c.17-.07.3-.2.38-.37l3.46-7.46c.1-.23.09-.5-.05-.71Z"/>
          <path class="cls-5" d="M530.86,247.19h79.55c.41,0,.74-.33.74-.74v-45.32c0-3.66-2.98-6.64-6.64-6.64h-67.74c-3.66,0-6.64,2.98-6.64,6.64v45.32c0,.41.33.74.74.74ZM537.99,203.09c0-.41.33-.74.74-.74h63.81c.41,0,.74.33.74.74v35.48c0,.41-.33.74-.74.74h-63.81c-.41,0-.74-.33-.74-.74,0,0,0-35.48,0-35.48Z"/>
        </g>
        <g>
          <path class="cls-8" d="M551.82,227.03l2.49-15.9c.03-.2.18-.35.38-.38s.39.06.48.24l2.57,4.79,1.02-1.95c.08-.15.24-.25.41-.25s.33.09.41.25l6.94,13.21h-14.69Z"/>
          <path class="cls-1" d="M560.41,220.84l-2.67-5.06-5.91,11.26,8.59-6.2Z"/>
          <path class="cls-6" d="M566.51,227.03l-1.9-11.78c-.03-.17-.15-.31-.31-.36s-.34,0-.46.11l-12.01,12.03,6.64,3.73c.42.23.93.23,1.34,0l6.7-3.73h0Z"/>
          <path class="cls-4" d="M564.6,215.25c-.03-.17-.15-.31-.31-.36s-.34,0-.46.11l-2.38,2.39-1.87-3.57c-.08-.15-.24-.25-.41-.25s-.33.09-.41.25l-1.02,1.95-2.57-4.79c-.09-.17-.29-.27-.48-.24s-.35.19-.38.38l-2.48,15.9h0,0s.07.04.07.04l11.94-11.95c.12-.12.3-.17.46-.11s.28.19.31.36l1.89,11.67h.02s-1.9-11.79-1.9-11.79h0ZM551.84,227.01l2.46-15.77c.03-.2.18-.35.38-.38s.39.06.48.24l2.57,4.79,1.02-1.95c.08-.15.24-.25.41-.25s.33.09.41.25l1.84,3.49-9.57,9.58h0Z"/>
          <path class="cls-7" d="M559.81,230.65c-.42.23-.93.23-1.34,0l-6.63-3.72-.02.1,6.64,3.72c.42.23.93.23,1.34,0l6.7-3.72-.02-.11-6.68,3.72h0Z"/>
          <path id="b" class="cls-2" d="M564.59,215.26c-.03-.17-.15-.31-.31-.36s-.34,0-.46.11l-2.37,2.39-1.87-3.57c-.08-.15-.23-.25-.4-.25s-.33.09-.4.25l-1.02,1.95-2.56-4.79c-.09-.17-.29-.27-.48-.24s-.35.19-.37.38l-2.48,15.9,6.62,3.72c.42.23.92.23,1.34,0l6.68-3.72-1.9-11.77h0Z"/>
        </g>
        <g>
          <circle class="cls-3" cx="581.71" cy="220.55" r="1.94"/>
          <g>
            <path class="cls-3" d="M581.71,225.01c-6.11,0-10.9-1.96-10.9-4.46s4.79-4.46,10.9-4.46,10.9,1.96,10.9,4.46-4.79,4.46-10.9,4.46ZM581.71,217.05c-5.87,0-9.95,1.85-9.95,3.51s4.09,3.51,9.95,3.51,9.95-1.85,9.95-3.51-4.09-3.51-9.95-3.51Z"/>
            <path class="cls-3" d="M586.06,230.28c-.97,0-2.13-.53-3.4-1.56-1.68-1.37-3.39-3.47-4.81-5.93-3.06-5.29-3.76-10.42-1.59-11.67,2.17-1.25,6.25,1.92,9.31,7.21,1.42,2.46,2.39,4.99,2.73,7.13.37,2.29-.04,3.9-1.14,4.54-.33.19-.69.28-1.1.28ZM577.35,211.78c-.24,0-.45.05-.62.15-1.44.83-.99,5.3,1.94,10.38,1.36,2.36,2.99,4.38,4.59,5.67,1.45,1.18,2.7,1.62,3.43,1.2.73-.42.98-1.72.68-3.57-.32-2.03-1.26-4.44-2.62-6.81h0c-2.57-4.46-5.7-7.02-7.39-7.02Z"/>
            <path class="cls-3" d="M577.36,230.28c-.4,0-.77-.09-1.1-.28-1.1-.64-1.51-2.25-1.14-4.54.34-2.14,1.31-4.67,2.74-7.13,3.06-5.29,7.14-8.47,9.31-7.21,2.16,1.25,1.46,6.38-1.59,11.67h0c-1.42,2.46-3.13,4.57-4.81,5.93-1.27,1.03-2.44,1.56-3.4,1.56ZM586.06,211.78c-1.7,0-4.82,2.56-7.39,7.02-1.36,2.36-2.3,4.78-2.62,6.81-.3,1.85-.05,3.15.68,3.57.73.42,1.98-.02,3.43-1.2,1.59-1.29,3.22-3.31,4.59-5.67,2.93-5.08,3.38-9.55,1.94-10.38-.18-.1-.39-.15-.62-.15Z"/>
          </g>
        </g>
      </g>
      <path class="cls-11" d="M118.52,213.78h-45.05l-13.04-71.43c-.54-2.98-3.4-4.95-6.38-4.41l-8.16,1.49c-2.98.54-4.95,3.4-4.41,6.38l15.1,82.67c.45,2.49,2.53,4.27,4.93,4.47.32.06.64.09.98.09h56.03c3.03,0,5.48-2.45,5.48-5.48v-8.29c0-3.03-2.45-5.48-5.48-5.48Z"/>
      <path class="cls-5" d="M163.07,88.2v1.31c0,3.66,2.98,6.64,6.64,6.64h31.21c3.66,0,6.64-2.98,6.64-6.64v-.53l-.23-54.31c0-3.66-2.98-6.64-6.64-6.64h-31.21c-3.66,0-6.64,2.98-6.64,6.64l.23,53.53ZM170.71,36.64c0-.41.33-.74.74-.74h27.27c.41,0,.74.33.74.74v46.36c0,.41-.33.74-.74.74h-27.27c-.41,0-.74-.33-.74-.74,0,0,0-46.36,0-46.36Z"/>
      <path class="cls-11" d="M221.52,213.78h-45.05l-13.04-71.43c-.54-2.98-3.4-4.95-6.38-4.41l-8.16,1.49c-2.98.54-4.95,3.4-4.41,6.38l15.1,82.67c.45,2.49,2.53,4.27,4.93,4.47.32.06.64.09.98.09h56.03c3.03,0,5.48-2.45,5.48-5.48v-8.29c0-3.03-2.45-5.48-5.48-5.48Z"/>
      <path class="cls-5" d="M272.07,88.2v1.31c0,3.66,2.98,6.64,6.64,6.64h31.21c3.66,0,6.64-2.98,6.64-6.64v-.53l-.23-54.31c0-3.66-2.98-6.64-6.64-6.64h-31.21c-3.66,0-6.64,2.98-6.64,6.64l.23,53.53ZM279.71,36.64c0-.41.33-.74.74-.74h27.27c.41,0,.74.33.74.74v46.36c0,.41-.33.74-.74.74h-27.27c-.41,0-.74-.33-.74-.74,0,0,0-46.36,0-46.36Z"/>
      <path class="cls-11" d="M330.52,213.78h-45.05l-13.04-71.43c-.54-2.98-3.4-4.95-6.38-4.41l-8.16,1.49c-2.98.54-4.95,3.4-4.41,6.38l15.1,82.67c.45,2.49,2.53,4.27,4.93,4.47.32.06.64.09.98.09h56.03c3.03,0,5.48-2.45,5.48-5.48v-8.29c0-3.03-2.45-5.48-5.48-5.48Z"/>
      <g>
        <path class="cls-5" d="M493.21,238.83h-95.54c-1.18,0-2.14.99-2.14,2.22v26.62c0,1.22.96,2.22,2.14,2.22h12.37v2.4c0,.61.5,1.11,1.11,1.11h16.64c.61,0,1.11-.5,1.11-1.11v-2.4h33.09v2.4c0,.61.5,1.11,1.11,1.11h16.64c.61,0,1.11-.5,1.11-1.11v-2.4h12.37c1.18,0,2.14-.99,2.14-2.22v-26.62c0-1.23-.96-2.22-2.14-2.22ZM412.65,259.16c-2.65,0-4.81-2.15-4.81-4.81s2.15-4.81,4.81-4.81,4.81,2.15,4.81,4.81-2.15,4.81-4.81,4.81ZM448.65,259.16c-2.65,0-4.81-2.15-4.81-4.81s2.15-4.81,4.81-4.81,4.81,2.15,4.81,4.81-2.15,4.81-4.81,4.81ZM465.65,259.16c-2.65,0-4.81-2.15-4.81-4.81s2.15-4.81,4.81-4.81,4.81,2.15,4.81,4.81-2.15,4.81-4.81,4.81ZM430.77,259.16c-2.65,0-4.81-2.15-4.81-4.81s2.15-4.81,4.81-4.81,4.81,2.15,4.81,4.81-2.15,4.81-4.81,4.81Z"/>
        <g>
          <rect class="cls-5" x="463.94" y="220.53" width="37" height="6" rx="1.08" ry="1.08" transform="translate(258.9 705.97) rotate(-90)"/>
          <rect class="cls-5" x="389.94" y="220.53" width="37" height="6" rx="1.08" ry="1.08" transform="translate(184.9 631.97) rotate(-90)"/>
          <g>
            <path class="cls-5" d="M446.91,221.09c-.4.13-1.53.45-2.76.02-1.64-.56-2.83-2.22-2.64-4.02.18-1.76,1.6-3.19,3.46-3.4,1.62-.19,2.9.42,3.76,1.69.93,1.29.92,2.98-.02,4.26-.38.55-.9,1.01-1.51,1.33l-.28.12Z"/>
            <path class="cls-5" d="M445.47,189.35c8.57.21,15.37,3.6,20.5,9.97.63.78.54,1.77-.19,2.5s-1.46,1.43-2.2,2.13c-.81.78-1.56.72-2.21-.18-1.76-2.46-3.98-4.45-6.74-5.9-8.59-4.52-19.31-2.09-24.96,5.65-.13.19-.26.38-.41.55-.49.52-1.21.58-1.74.1-.87-.8-1.71-1.61-2.53-2.46-.66-.69-.67-1.66-.07-2.42,4.13-5.16,9.53-8.46,16.37-9.6.49-.08.98-.16,1.48-.2.9-.1,1.8-.15,2.7-.14Z"/>
            <path class="cls-5" d="M445.55,201.84c4.88.11,8.92,1.96,12.11,5.48.68.75.63,1.74-.1,2.48-.76.76-1.54,1.51-2.32,2.25-.69.65-1.42.61-2.03-.12-.51-.65-1.09-1.24-1.74-1.76-4.12-3.18-9.99-2.64-13.36,1.24-.15.17-.29.36-.44.53-.62.71-1.34.75-2.03.1-.77-.73-1.53-1.47-2.28-2.21-.8-.8-.82-1.77-.05-2.6,3.2-3.48,7.25-5.29,12.25-5.38Z"/>
          </g>
        </g>
      </g>
      <polyline class="cls-10" points="619.08 143.1 635.15 143.1 635.15 259.23 615.55 259.23"/>
      <g>
        <line class="cls-10" x1="488.55" y1="259.23" x2="491.55" y2="259.23"/>
        <line class="cls-12" x1="494.7" y1="259.23" x2="521.43" y2="259.23"/>
        <line class="cls-10" x1="523" y1="259.23" x2="526" y2="259.23"/>
      </g>
      <polyline class="cls-9" points="395.53 259.23 367.27 259.23 367.27 115.51 82.08 115.51 82.08 92.62"/>
      <line class="cls-9" x1="185.08" y1="90.36" x2="185.08" y2="115.51"/>
      <line class="cls-9" x1="294.08" y1="90.36" x2="294.08" y2="115.51"/>
      <g>
        <path class="cls-5" d="M700.74,199.86h-.25v-1.39h.4l.36.94.35-.94h.4v1.39h-.25v-1.06h0l-.39,1.06h-.21l-.39-1.06h0v1.06ZM700.16,198.47v.23h-.42v1.16h-.25v-1.16h-.43v-.23h1.11ZM693.78,198.43h3.78v9.68h-3.78v-9.68Z"/>
        <path class="cls-5" d="M674.27,198.43v9.68h3.67v-7.27h3.49v7.27h3.65v-7.27h3.49v7.27h3.66v-7.14c0-.71-.25-1.31-.74-1.8-.5-.49-1.09-.74-1.79-.74h-15.43ZM658.49,198.43l-.02,2.41h10.6v4.86h-6.92l-.02-3.32h-3.66l.02,5.72h11.7c.7,0,1.29-.25,1.79-.74.5-.5.75-1.09.75-1.8v-4.59c0-.71-.25-1.31-.75-1.8-.5-.49-1.1-.74-1.79-.74h-11.7Z"/>
        <path class="cls-5" d="M656.89,198.43v9.68h-3.85v-3.47h-6.6v3.47h-3.79v-9.68h3.79v3.95h6.6v-3.95h3.85ZM697.38,211.95v.26h-1.24v-1.7h1.23v.26h-.93v.45h.86v.24h-.86v.5h.95Z"/>
        <path class="cls-5" d="M695.41,211.56h.29c-.02.41-.31.69-.72.69-.51,0-.82-.4-.82-.89s.31-.89.82-.89c.38,0,.69.21.72.58h-.3c-.05-.2-.18-.34-.42-.34-.36,0-.52.32-.52.65s.15.65.52.65c.27,0,.41-.2.43-.44h0ZM693.27,210.5l.66,1.7h-.32l-.16-.45h-.68l-.16.45h-.31l.65-1.7h.32,0ZM693.36,211.53l-.25-.73h0l-.26.73h.52Z"/>
        <path class="cls-5" d="M692.11,211.21v.24h-.77v.75h-.3v-1.7h1.17v.26h-.87v.45h.77Z"/>
        <path class="cls-5" d="M689.2,210.5v1.7h.3v-.7h.44c.27,0,.34.14.34.45,0,.08,0,.18.04.25h.32c-.07-.07-.09-.25-.09-.45,0-.27-.15-.35-.25-.36h0c.06-.02.28-.11.28-.43,0-.29-.19-.46-.56-.46h-.81ZM689.5,210.75h.48c.15,0,.3.04.3.26,0,.18-.1.27-.29.27h-.49v-.53Z"/>
        <path class="cls-5" d="M688.78,211.95v.26h-1.24v-1.7h1.22v.26h-.93v.45h.86v.24h-.86v.5h.95ZM687.17,210.5v.26h-.54v1.44h-.3v-1.44h-.54v-.26h1.38ZM685.44,210.5v1.7h-.31l-.77-1.25h0v1.25h-.29v-1.7h.32l.77,1.25h0v-1.25h.28Z"/>
        <path class="cls-5" d="M683.24,210.5h.3v1.7h-.3v-1.7ZM681.43,210.5l.66,1.7h-.32l-.16-.45h-.68l-.16.45h-.31l.65-1.7h.32,0ZM681.52,211.53l-.25-.73h0l-.26.73h.52ZM679.83,210.5h.3v1.7h-.3v-1.7ZM678.65,210.5c.52,0,.75.38.75.85s-.23.85-.75.85h-.71v-1.7h.71ZM679.1,211.35c0-.34-.1-.61-.57-.61h-.29v1.22h.29c.47,0,.57-.27.57-.61Z"/>
        <path class="cls-5" d="M677.51,211.95v.26h-1.24v-1.7h1.23v.26h-.93v.45h.86v.24h-.86v.5h.94ZM674.27,210.89v1.31h-.28v-1.7h.42l.47,1.33h0l.46-1.33h.41v1.7h-.28v-1.31h0l-.47,1.31h-.24l-.47-1.31h0Z"/>
        <path class="cls-5" d="M673.16,210.5h.3v1.7h-.3v-1.7Z"/>
        <path class="cls-5" d="M672.79,210.5v.26h-.54v1.44h-.3v-1.44h-.54v-.26h1.38ZM671.43,211.95v.26h-1.16v-1.7h.3v1.44h.86Z"/>
        <path class="cls-5" d="M669.75,210.5v1.09c0,.44-.28.65-.7.65s-.7-.22-.7-.65v-1.09h.3v.99c0,.23.02.49.4.49s.4-.27.4-.49v-.99h.3Z"/>
        <path class="cls-5" d="M666.37,210.89v1.31h-.28v-1.7h.42l.47,1.33h0l.46-1.33h.41v1.7h-.28v-1.31h0l-.47,1.31h-.24l-.47-1.31h0ZM664.75,210.5v1.7h-.31l-.77-1.25h0v1.25h-.28v-1.7h.31l.78,1.25h0v-1.25h.28Z"/>
        <path class="cls-5" d="M662.13,210.46c.51,0,.81.41.81.89s-.3.89-.81.89-.82-.4-.82-.89.31-.89.82-.89ZM662.64,211.35c0-.33-.15-.65-.52-.65s-.52.32-.52.65.15.65.52.65.52-.32.52-.65ZM660.57,210.5h.3v1.7h-.3v-1.7Z"/>
        <path class="cls-5" d="M660.21,210.5v.26h-.54v1.44h-.3v-1.44h-.54v-.26h1.38Z"/>
        <path class="cls-5" d="M658.16,210.5h.3v1.7h-.3v-1.7Z"/>
        <path class="cls-5" d="M657.64,210.5v1.7h-.31l-.77-1.25h0v1.25h-.28v-1.7h.31l.78,1.25h0v-1.25h.28Z"/>
        <path class="cls-5" d="M655.45,210.5h.3v1.7h-.3v-1.7Z"/>
        <path class="cls-5" d="M654.94,211.21v.24h-.77v.75h-.3v-1.7h1.17v.26h-.88v.45h.77ZM653.44,211.95v.26h-1.24v-1.7h1.23v.26h-.93v.45h.86v.24h-.86v.5h.94Z"/>
        <path class="cls-5" d="M651.02,210.5c.52,0,.75.38.75.85s-.23.85-.75.85h-.71v-1.7h.71ZM651.47,211.35c0-.34-.1-.61-.57-.61h-.29v1.22h.29c.47,0,.57-.27.57-.61ZM649.33,211.32h.61v.16h-.61v-.16Z"/>
        <path class="cls-5" d="M648.96,210.5v1.7h-.3v-.77h-.77v.77h-.3v-1.7h.3v.68h.77v-.68h.3Z"/>
        <path class="cls-5" d="M646.36,210.46c-.51,0-.82.41-.82.89s.31.89.82.89c.21,0,.35-.06.51-.24l.04.2h.19v-.9h-.72v.23h.45c0,.29-.17.47-.47.47-.36,0-.52-.32-.52-.65s.15-.65.52-.65c.21,0,.41.11.44.34h.29c-.04-.38-.36-.58-.73-.58h0ZM644.8,210.5h.3v1.7h-.3v-1.7Z"/>
        <path class="cls-5" d="M644.27,210.5v1.7h-.3v-.77h-.77v.77h-.3v-1.7h.3v.68h.77v-.68h.3Z"/>
      </g>
    </g>
  </g>
</svg>