<svg xmlns="http://www.w3.org/2000/svg" xmlns:xlink="http://www.w3.org/1999/xlink" viewBox="0 0 1813.94 9642.45">
  <defs>
    <style>
      .cls-1, .cls-4, .cls-45, .cls-59 {
        fill: none;
      }

      .cls-2 {
        fill: #4db97c;
      }

      .cls-3 {
        clip-path: url(#clip-path);
      }

      .cls-4 {
        stroke: #42a16c;
        stroke-linecap: round;
        stroke-linejoin: round;
        stroke-width: 6px;
      }

      .cls-5 {
        fill: #020202;
      }

      .cls-6 {
        fill: #cf745f;
      }

      .cls-23, .cls-7 {
        fill: #ebf5f0;
      }

      .cls-8 {
        clip-path: url(#clip-path-2);
      }

      .cls-9 {
        clip-path: url(#clip-path-3);
      }

      .cls-10 {
        fill: #fff;
      }

      .cls-11 {
        fill: #22e0c0;
      }

      .cls-12 {
        clip-path: url(#clip-path-4);
      }

      .cls-13 {
        clip-path: url(#clip-path-5);
      }

      .cls-14 {
        clip-path: url(#clip-path-6);
      }

      .cls-15 {
        clip-path: url(#clip-path-7);
      }

      .cls-16 {
        clip-path: url(#clip-path-8);
      }

      .cls-17 {
        fill: #ccc;
      }

      .cls-18 {
        clip-path: url(#clip-path-9);
      }

      .cls-19 {
        fill: #a1e0b7;
      }

      .cls-20 {
        clip-path: url(#clip-path-10);
      }

      .cls-21 {
        fill: #162536;
      }

      .cls-22 {
        fill: #da1618;
      }

      .cls-23 {
        opacity: 0.5;
      }

      .cls-24 {
        fill: #3d4e67;
      }

      .cls-25 {
        clip-path: url(#clip-path-11);
      }

      .cls-26 {
        fill: #a915f8;
      }

      .cls-27 {
        fill: #ffba34;
      }

      .cls-28 {
        fill: #ba1311;
      }

      .cls-29 {
        fill: #ffb930;
      }

      .cls-30 {
        fill: #fbbb3c;
      }

      .cls-31 {
        clip-path: url(#clip-path-12);
      }

      .cls-32 {
        fill: #ba1411;
      }

      .cls-33 {
        clip-path: url(#clip-path-13);
      }

      .cls-34 {
        fill: #274a34;
      }

      .cls-35 {
        fill: #44bd7c;
      }

      .cls-36 {
        clip-path: url(#clip-path-14);
      }

      .cls-37 {
        clip-path: url(#clip-path-15);
      }

      .cls-38 {
        fill: #db48bc;
      }

      .cls-39 {
        fill: #f65ad6;
      }

      .cls-40 {
        fill: #42a16c;
      }

      .cls-41 {
        clip-path: url(#clip-path-16);
      }

      .cls-42 {
        clip-path: url(#clip-path-17);
      }

      .cls-43 {
        clip-path: url(#clip-path-18);
      }

      .cls-44 {
        fill: #a1d6e0;
      }

      .cls-45 {
        stroke: #8bb8c2;
      }

      .cls-45, .cls-59 {
        stroke-miterlimit: 10;
        stroke-width: 4px;
      }

      .cls-46 {
        clip-path: url(#clip-path-19);
      }

      .cls-47 {
        fill: #d1bf86;
      }

      .cls-48 {
        fill: #af9f68;
      }

      .cls-49 {
        fill: #b09f68;
      }

      .cls-50 {
        clip-path: url(#clip-path-20);
      }

      .cls-51 {
        fill: #e10001;
      }

      .cls-52 {
        fill: #b10607;
      }

      .cls-53 {
        fill: #d5deda;
      }

      .cls-54 {
        clip-path: url(#clip-path-21);
      }

      .cls-55 {
        fill: #b9b9b9;
      }

      .cls-56 {
        fill: #b9784d;
      }

      .cls-57 {
        fill: #c87e4d;
      }

      .cls-58 {
        fill: #a16842;
      }

      .cls-59 {
        stroke: #a16842;
      }

      .cls-60 {
        fill: #469140;
      }

      .cls-61 {
        fill: #f2d31f;
      }

      .cls-62 {
        fill: #f5eca4;
      }

      .cls-63 {
        clip-path: url(#clip-path-22);
      }

      .cls-64 {
        clip-path: url(#clip-path-23);
      }

      .cls-65 {
        clip-path: url(#clip-path-24);
      }

      .cls-66 {
        clip-path: url(#clip-path-25);
      }
    </style>
    <clipPath id="clip-path">
      <path class="cls-1" d="M281.53,1269.57c-204.66,94.82-262,274.54-262,370.88,0,184.68,262,260.54,262,260.54s262-74.85,262.07-259.53C543.56,1545.12,486.17,1364.43,281.53,1269.57Z"/>
    </clipPath>
    <clipPath id="clip-path-2">
      <path class="cls-1" d="M904.53,1270.57c-204.66,94.82-262,274.54-262,370.88,0,184.68,262,260.54,262,260.54s262-74.85,262.07-259.53C1166.56,1546.12,1109.17,1365.43,904.53,1270.57Z"/>
    </clipPath>
    <clipPath id="clip-path-3">
      <path class="cls-1" d="M1531.53,1269.57c-204.66,94.82-262,274.54-262,370.88,0,184.68,262,260.54,262,260.54s262-74.85,262.07-259.53C1793.56,1545.12,1736.17,1364.43,1531.53,1269.57Z"/>
    </clipPath>
    <clipPath id="clip-path-4">
      <path class="cls-1" d="M275.93,2532.36c-204.66,94.82-262,274.54-262,370.88,0,184.68,262,260.54,262,260.54S537.94,3088.93,538,2904.24C538,2807.91,480.57,2627.21,275.93,2532.36Z"/>
    </clipPath>
    <clipPath id="clip-path-5">
      <path class="cls-1" d="M895.41,2532.91c-204.66,94.82-262,274.54-262,370.88,0,184.68,262,260.54,262,260.54s262.06-74.85,262.07-259.53C1157.44,2808.46,1100.05,2627.77,895.41,2532.91Z"/>
    </clipPath>
    <clipPath id="clip-path-6">
      <path class="cls-1" d="M1527.08,2528.57c-204.65,94.82-262,274.53-262,370.87,0,184.68,262,260.54,262,260.54s262.06-74.85,262.07-259.53C1789.11,2804.11,1731.72,2623.42,1527.08,2528.57Z"/>
    </clipPath>
    <clipPath id="clip-path-7">
      <path class="cls-1" d="M276.2,3795.25c-204.66,94.82-262,274.54-262,370.88,0,184.68,262,260.54,262,260.54s262.05-74.85,262.07-259.53C538.23,4070.8,480.84,3890.11,276.2,3795.25Z"/>
    </clipPath>
    <clipPath id="clip-path-8">
      <path class="cls-1" d="M906.85,3794.27c-204.66,94.83-262,274.54-262,370.88,0,184.68,262,260.54,262,260.54s262-74.85,262.07-259.53C1168.88,4069.82,1111.49,3889.13,906.85,3794.27Z"/>
    </clipPath>
    <clipPath id="clip-path-9">
      <path class="cls-1" d="M1528.92,3794.4c-204.66,94.82-262,274.53-262,370.87,0,184.68,262,260.54,262,260.54s262.05-74.85,262.07-259.53C1791,4069.94,1733.56,3889.25,1528.92,3794.4Z"/>
    </clipPath>
    <clipPath id="clip-path-10">
      <path class="cls-1" d="M321.92,7580.3c-210.72,80.46-280.36,255.79-287,351.89-12.76,184.25,243.37,278,243.37,278s266.6-56.58,279.37-240.82C564.29,7873.29,519.52,7689.06,321.92,7580.3Z"/>
    </clipPath>
    <clipPath id="clip-path-11">
      <path class="cls-1" d="M920.09,7581c-209.34,84-276,260.44-281.08,356.65-9.68,184.43,248,273.9,248,273.9s265.61-61,275.29-245.47C1167.34,7869.89,1119.49,7686.44,920.09,7581Z"/>
    </clipPath>
    <clipPath id="clip-path-12">
      <path class="cls-1" d="M1022.19,7648c0-.15-.05-.31-.08-.46l-.27.06-194.47-227-89,285.31-.27.05c0,.16.08.31.11.46v0h0c6.53,28,74.5,37.76,152.49,21.7s136.59-51.83,131.52-80.16h0Z"/>
    </clipPath>
    <clipPath id="clip-path-13">
      <path class="cls-1" d="M1541.08,7582.39c-209.34,84-276,260.44-281.09,356.65-9.68,184.43,248,273.9,248,273.9s265.62-61,275.3-245.47C1788.33,7871.27,1740.47,7687.82,1541.08,7582.39Z"/>
    </clipPath>
    <clipPath id="clip-path-14">
      <path class="cls-1" d="M1643.17,7649.33c0-.15-.05-.31-.08-.46l-.27.06-194.47-227-89,285.31-.27.05c0,.16.07.31.11.46v0h0c6.53,28,74.51,37.76,152.49,21.7s136.6-51.83,131.53-80.16h0Z"/>
    </clipPath>
    <clipPath id="clip-path-15">
      <path class="cls-1" d="M911.55,8844.61c-204.66,94.82-262,274.54-262,370.88,0,184.68,262,260.54,262,260.54s262-74.85,262.07-259.54C1173.58,9120.16,1116.19,8939.46,911.55,8844.61Z"/>
    </clipPath>
    <clipPath id="clip-path-16">
      <path class="cls-1" d="M279.34,5053.86c-204.66,94.82-262,274.54-262,370.88,0,184.68,262,260.54,262,260.54s262.06-74.85,262.07-259.53C541.37,5329.41,484,5148.72,279.34,5053.86Z"/>
    </clipPath>
    <clipPath id="clip-path-17">
      <path class="cls-1" d="M911.71,5057.59c-204.66,94.82-262,274.54-262,370.88,0,184.68,262,260.54,262,260.54s262.06-74.85,262.08-259.53C1173.73,5333.14,1116.35,5152.45,911.71,5057.59Z"/>
    </clipPath>
    <clipPath id="clip-path-18">
      <path class="cls-1" d="M1527.94,5054.9c-204.66,94.82-262,274.53-262,370.87,0,184.68,262,260.54,262,260.54s262-74.85,262.07-259.53C1790,5330.44,1732.58,5149.75,1527.94,5054.9Z"/>
    </clipPath>
    <clipPath id="clip-path-19">
      <path class="cls-1" d="M892,6236.74c-204.71,94.7-262.19,274.38-262.26,370.72-.13,184.68,261.83,260.7,261.83,260.7s262.1-74.7,262.23-259.38C1153.81,6512.44,1096.53,6331.72,892,6236.74Z"/>
    </clipPath>
    <clipPath id="clip-path-20">
      <path class="cls-1" d="M1546.45,6267.65c-209,84.82-275,261.55-279.65,357.77-8.94,184.47,249.09,272.9,249.09,272.9s265.37-62.09,274.31-246.56C1794.86,6555.54,1746.27,6372.28,1546.45,6267.65Z"/>
    </clipPath>
    <clipPath id="clip-path-21">
      <path class="cls-1" d="M279.56,6237.88c-204.66,94.82-262,274.54-262,370.88,0,184.68,262,260.54,262,260.54s262.06-74.85,262.07-259.54C541.59,6513.43,484.2,6332.73,279.56,6237.88Z"/>
    </clipPath>
    <clipPath id="clip-path-22">
      <path class="cls-1" d="M1528.71,0c-204.66,94.82-262,274.54-262,370.88,0,184.68,262,260.54,262,260.54s262.06-74.85,262.07-259.54C1790.74,275.55,1733.35,94.85,1528.71,0Z"/>
    </clipPath>
    <clipPath id="clip-path-23">
      <path class="cls-1" d="M875.17,8.15C678.52,118.61,635.31,302.25,642.8,398.29c14.36,184.13,281.47,239.36,281.47,239.36s255.44-95,241.07-279.14C1157.85,262.46,1086.58,86.78,875.17,8.15Z"/>
    </clipPath>
    <clipPath id="clip-path-24">
      <path class="cls-1" d="M269.28,6.59c-204.65,94.82-262,274.54-262,370.88,0,184.68,262,260.54,262,260.54S531.29,563.16,531.3,378.48C531.31,282.14,473.92,101.45,269.28,6.59Z"/>
    </clipPath>
    <clipPath id="clip-path-25">
      <path class="cls-1" d="M272.42,500.39c-69.07,1.43-94.25-43.39-82.08,14.16,11.24,53.18,77.51,53.19,82,53.19s65.72,0,80.31-53.18C368.2,457.8,341.48,500.4,272.42,500.39Z"/>
    </clipPath>
  </defs>
  <g id="Layer_2" data-name="Layer 2">
    <g id="Layer_1-2" data-name="Layer 1">
      <g>
        <g>
          <g>
            <path class="cls-2" d="M281.53,1269.57c-204.66,94.82-262,274.54-262,370.88,0,184.68,262,260.54,262,260.54s262-74.85,262.07-259.53C543.56,1545.12,486.17,1364.43,281.53,1269.57Z"/>
            <g class="cls-3">
              <g>
                <path class="cls-4" d="M29.11,1567.24C98.05,1636.84,281.49,1706,281.49,1706s173.56-62.12,252.42-138"/>
                <path class="cls-4" d="M136,1375.14c23.12,49.71,127.09,63.22,145.58,107.22,22.51-42,134.54-57.49,151.6-106.94"/>
              </g>
            </g>
            <path class="cls-5" d="M284.54,1777.91c-62,1.44-84.51-59-73.59-1.09,10.09,53.53,69.58,53.54,73.58,53.54s59,0,72.11-53.53C370.62,1719.69,346.54,1777.92,284.54,1777.91Z"/>
            <path class="cls-6" d="M242.94,1820.39c18.94,10,39.31,10,41.59,10s22.51,0,41.31-11c-18.94-10-39.31-10-41.6-10S261.74,1809.37,242.94,1820.39Z"/>
            <ellipse class="cls-7" cx="425.25" cy="1615.53" rx="81.3" ry="91.16"/>
            <ellipse class="cls-5" cx="425.25" cy="1610.6" rx="60.54" ry="67.88"/>
            <ellipse class="cls-7" cx="466.6" cy="1575.98" rx="17.94" ry="20.12"/>
            <ellipse class="cls-7" cx="136.25" cy="1615.5" rx="81.3" ry="91.16"/>
            <ellipse class="cls-5" cx="136.25" cy="1610.58" rx="60.54" ry="67.88"/>
            <ellipse class="cls-7" cx="177.6" cy="1575.96" rx="17.94" ry="20.12"/>
            <path class="cls-2" d="M329.24,2043.44c-3.28,18.86-18.83,24-30,24-9.42,0-34.25-4.28-39.56-76.09-4.25-57.36,17.91-57.45,17.91-57.45s10.54.24,16.51,57.45C298.42,2032.31,332.66,2023.75,329.24,2043.44Z"/>
          </g>
          <g>
            <path class="cls-2" d="M904.53,1270.57c-204.66,94.82-262,274.54-262,370.88,0,184.68,262,260.54,262,260.54s262-74.85,262.07-259.53C1166.56,1546.12,1109.17,1365.43,904.53,1270.57Z"/>
            <g class="cls-8">
              <g>
                <path class="cls-4" d="M652.11,1568.24C721.05,1637.84,904.49,1707,904.49,1707s173.56-62.12,252.42-138"/>
                <path class="cls-4" d="M759,1376.14c23.12,49.71,127.09,63.22,145.58,107.22,22.51-42,134.54-57.49,151.6-106.94"/>
              </g>
            </g>
            <ellipse class="cls-7" cx="1048.25" cy="1616.53" rx="81.3" ry="91.16"/>
            <ellipse class="cls-5" cx="1053.25" cy="1606.6" rx="54.48" ry="61.09"/>
            <ellipse class="cls-7" cx="1094.6" cy="1571.98" rx="17.94" ry="20.12"/>
            <ellipse class="cls-7" cx="759.25" cy="1616.5" rx="81.3" ry="91.16"/>
            <ellipse class="cls-5" cx="759.25" cy="1606.58" rx="54.48" ry="61.09"/>
            <ellipse class="cls-7" cx="800.6" cy="1571.96" rx="17.94" ry="20.12"/>
            <path class="cls-2" d="M952.24,2044.44c-3.28,18.86-18.83,24-30,24-9.42,0-34.25-4.28-39.56-76.09-4.25-57.36,17.91-57.45,17.91-57.45s10.54.24,16.51,57.45C921.42,2033.31,955.66,2024.75,952.24,2044.44Z"/>
            <path d="M983,1806.3c-55.28-30-92-33.25-105.18-33.25h-2c-13.1,0-21.91,26.64-26.14,39.45l-.56,1.7a2.36,2.36,0,0,0,0,2.12,1.25,1.25,0,0,0,1,.52c1.57,0,4.22-3.26,4.46-3.66,7.43-13,13.86-19.69,17.94-23s6.74-4,7.08-4.09c1.15-.08,2.41-.12,3.73-.12,15.07,0,37.68,5.09,54,9.36,20.08,5.25,38.25,11.26,46.64,14.61a2.32,2.32,0,0,0,.83.17,1.16,1.16,0,0,0,1.19-.85C986.29,1808.37,985.58,1807.68,983,1806.3Z"/>
          </g>
          <g>
            <path class="cls-2" d="M1531.53,1269.57c-204.66,94.82-262,274.54-262,370.88,0,184.68,262,260.54,262,260.54s262-74.85,262.07-259.53C1793.56,1545.12,1736.17,1364.43,1531.53,1269.57Z"/>
            <g class="cls-9">
              <g>
                <path class="cls-4" d="M1279.11,1567.24c68.94,69.6,252.38,138.75,252.38,138.75s173.56-62.12,252.42-138"/>
                <path class="cls-4" d="M1386,1375.14c23.12,49.71,127.09,63.22,145.58,107.22,22.51-42,134.54-57.49,151.6-106.94"/>
              </g>
            </g>
            <path class="cls-10" d="M1530.29,1788.7c44.94-1.26,61.25,51.81,53.33,1-7.31-47-50.43-47-53.33-47s-42.77,0-52.26,47C1467.89,1839.8,1485.35,1788.7,1530.29,1788.7Z"/>
            <path class="cls-2" d="M1579.24,2043.44c-3.28,18.86-18.83,24-30,24-9.42,0-34.25-4.28-39.56-76.09-4.25-57.36,17.91-57.45,17.91-57.45s10.54.24,16.51,57.45C1548.42,2032.31,1582.66,2023.75,1579.24,2043.44Z"/>
            <path d="M1307.55,1619.74s92-10,149,26-11-73-28-78c0,0,26,31,28,58,0,0-58-67-125-77,0,0,73,33,101,70C1432.55,1618.74,1355.55,1595.74,1307.55,1619.74Z"/>
            <path d="M1755.55,1661.74s-53.06-31.24-142-9c-56,14-3-83,34-94,0,0-45,33-43,72,0,0,57-69,125-49,0,0-66-5-109,52C1620.55,1633.74,1732.55,1627.74,1755.55,1661.74Z"/>
            <path class="cls-11" d="M1411.55,1637.74c-2.17,1.17-6,4-4,9s6.75,3.75,9,3c9-3,13-13,20-11C1436.55,1638.74,1424.94,1630.48,1411.55,1637.74Z"/>
            <path class="cls-11" d="M1359.45,1675.57c-1.46,2-3.72,6.18.23,9.84s7.7.51,9.42-1.13c6.85-6.55,6.2-17.31,13.38-18.49C1382.48,1665.79,1368.46,1663.29,1359.45,1675.57Z"/>
            <path class="cls-11" d="M1321.8,1724.41c-.91,2.28-2,6.91,2.69,9.47s7.59-1.44,8.84-3.46c5-8.06,1.66-18.31,8.32-21.25C1341.65,1709.17,1327.45,1710.26,1321.8,1724.41Z"/>
            <path class="cls-11" d="M1314.21,1793.66c-.16,2.46.19,7.21,5.49,8.18s6.77-3.72,7.33-6c2.25-9.22-4.09-17.93,1.33-22.79C1328.36,1773,1315.2,1778.46,1314.21,1793.66Z"/>
            <path class="cls-11" d="M1655.18,1652.74c2.17,1.17,6,4,4,9s-6.75,3.75-9,3c-9-3-13-13-20-11C1630.18,1653.74,1641.79,1645.48,1655.18,1652.74Z"/>
            <path class="cls-11" d="M1707.28,1690.57c1.46,2,3.72,6.18-.23,9.84s-7.7.51-9.41-1.13c-6.86-6.55-6.21-17.31-13.39-18.49C1684.25,1680.79,1698.27,1678.29,1707.28,1690.57Z"/>
            <path class="cls-11" d="M1744.93,1739.41c.91,2.28,2,6.91-2.69,9.47s-7.59-1.44-8.84-3.46c-5-8.06-1.66-18.31-8.32-21.25C1725.08,1724.17,1739.28,1725.26,1744.93,1739.41Z"/>
            <path class="cls-11" d="M1752.52,1808.66c.16,2.46-.19,7.21-5.49,8.18s-6.77-3.72-7.33-6c-2.25-9.22,4.09-17.93-1.33-22.79C1738.37,1788,1751.53,1793.46,1752.52,1808.66Z"/>
          </g>
        </g>
        <g>
          <g>
            <path class="cls-2" d="M275.93,2532.36c-204.66,94.82-262,274.54-262,370.88,0,184.68,262,260.54,262,260.54S537.94,3088.93,538,2904.24C538,2807.91,480.57,2627.21,275.93,2532.36Z"/>
            <g class="cls-12">
              <g>
                <path class="cls-4" d="M23.51,2830c68.94,69.6,252.39,138.75,252.39,138.75s173.55-62.12,252.41-138"/>
                <path class="cls-4" d="M130.35,2637.93c23.12,49.71,127.09,63.21,145.58,107.22,22.51-42,134.54-57.49,151.61-106.94"/>
              </g>
            </g>
            <path class="cls-10" d="M274.69,3051.49c44.94-1.26,61.25,51.8,53.34,1-7.32-47-50.44-47-53.34-47s-42.76,0-52.26,47C212.29,3102.59,229.75,3051.49,274.69,3051.49Z"/>
            <path class="cls-2" d="M323.64,3306.23c-3.28,18.86-18.83,24-30,24-9.42,0-34.24-4.28-39.56-76.09-4.24-57.37,17.92-57.45,17.92-57.45s10.53.24,16.5,57.45C292.82,3295.1,327.07,3286.54,323.64,3306.23Z"/>
            <path d="M52,2882.52s92-10,149,26-11-73-28-78c0,0,26,31,28,58,0,0-58-67-125-77,0,0,73,33,101,70C177,2881.52,100,2858.52,52,2882.52Z"/>
            <path d="M500,2924.52s-53.06-31.23-142-9c-56,14-3-83,34-94,0,0-45,33-43,72,0,0,57-69,125-49,0,0-66-5-109,52C365,2896.52,477,2890.52,500,2924.52Z"/>
          </g>
          <g>
            <path class="cls-2" d="M895.41,2532.91c-204.66,94.82-262,274.54-262,370.88,0,184.68,262,260.54,262,260.54s262.06-74.85,262.07-259.53C1157.44,2808.46,1100.05,2627.77,895.41,2532.91Z"/>
            <g class="cls-13">
              <g>
                <path class="cls-4" d="M643,2830.58c68.94,69.6,242.38,143.75,242.38,143.75s183.56-67.12,262.42-143"/>
                <path class="cls-4" d="M749.83,2638.48c23.12,49.71,117.09,68.22,135.58,112.22,22.51-42,144.54-62.49,161.61-111.94"/>
              </g>
            </g>
            <ellipse class="cls-7" cx="750.13" cy="2878.84" rx="81.3" ry="91.16"/>
            <ellipse class="cls-5" cx="753.13" cy="2880.92" rx="60.54" ry="67.88"/>
            <ellipse class="cls-7" cx="794.48" cy="2846.3" rx="17.94" ry="20.12"/>
            <path class="cls-2" d="M943.12,3306.78c-3.28,18.86-18.83,24-30,24-9.42,0-34.24-4.28-39.56-76.09-4.24-57.36,17.92-57.45,17.92-57.45s10.53.24,16.5,57.45C912.3,3295.65,946.55,3287.09,943.12,3306.78Z"/>
            <path d="M965.43,2919.08c-66,51-15-66,43-73,0,0-40,24-49,57,0,0,89-61,159-14C1118.43,2889.08,1041.87,2860,965.43,2919.08Z"/>
            <path d="M979.23,3008.29a1.1,1.1,0,0,0-1-.62,1.94,1.94,0,0,0-1.25.62c-7,7.19-22.63,21.24-39,34.19-14,11.05-33.42,25.23-46.63,30a8.33,8.33,0,0,1-1.66.13c-3.65,0-14.12-1.44-32.21-14.72a12.8,12.8,0,0,0-4.82-1.67,1.4,1.4,0,0,0-1.4.78c-.4.91.43,1.81.78,2.19l1.21,1.33c7.75,8.53,23.88,26.28,35.7,26.28a10.37,10.37,0,0,0,4.22-.86c.11-.06.27-.12.47-.21,12.25-5.26,45-23,83.94-73.73C979.38,3009.66,979.55,3008.93,979.23,3008.29Z"/>
            <path class="cls-2" d="M794.43,2983.08s-46-50-131-41l28,66Z"/>
          </g>
          <g>
            <path class="cls-2" d="M1527.08,2528.57c-204.65,94.82-262,274.53-262,370.87,0,184.68,262,260.54,262,260.54s262.06-74.85,262.07-259.53C1789.11,2804.11,1731.72,2623.42,1527.08,2528.57Z"/>
            <g class="cls-14">
              <g>
                <path class="cls-4" d="M1274.66,2826.24c68.94,69.6,252.39,138.74,252.39,138.74s173.55-62.12,252.42-138"/>
                <path class="cls-4" d="M1381.5,2634.14c23.12,49.7,127.09,63.21,145.58,107.21,22.51-42,134.54-57.49,151.61-106.94"/>
              </g>
            </g>
            <ellipse class="cls-7" cx="1670.8" cy="2874.52" rx="81.3" ry="91.16"/>
            <ellipse class="cls-5" cx="1670.8" cy="2869.59" rx="54.48" ry="61.09"/>
            <ellipse class="cls-7" cx="1708.02" cy="2838.44" rx="16.15" ry="18.1"/>
            <ellipse class="cls-7" cx="1381.8" cy="2874.5" rx="81.3" ry="91.16"/>
            <ellipse class="cls-5" cx="1381.8" cy="2869.57" rx="54.48" ry="61.09"/>
            <ellipse class="cls-5" cx="1526.8" cy="3032.57" rx="45.7" ry="51.23"/>
            <ellipse class="cls-7" cx="1419.02" cy="2838.42" rx="16.15" ry="18.1"/>
            <path class="cls-2" d="M1574.8,3302.43c-3.28,18.86-18.84,24-30,24-9.41,0-34.24-4.28-39.56-76.09-4.24-57.36,17.92-57.45,17.92-57.45s10.53.25,16.51,57.45C1544,3291.3,1578.22,3282.74,1574.8,3302.43Z"/>
            <path class="cls-6" d="M1526.81,3044.34c-14.64,0-27.67,7.72-36,19.73,8.36,12,21.38,19.73,36,19.73s27.66-7.72,36-19.73C1554.47,3052.06,1541.45,3044.34,1526.81,3044.34Z"/>
            <path d="M1590.62,2321.24c5.42,37.75-18.61,55.07-36.26,67.47-15.92,11.54-20.36,21.42-17.41,42l-46.82,6.72c-4.55-31.72,8.25-62.84,35.64-82.49,13.72-9.68,18.6-14.39,16.9-26.17-.6-4.23-4.62-19.37-35.14-15-25.37,3.64-35.8,23.33-38.55,38.52l-45.79-7.61c2.71-15.49,16.52-67.42,77.84-76.22,33.54-4.81,55,4.76,66.09,13.65C1579.64,2292,1588.41,2305.83,1590.62,2321.24Z"/>
            <path d="M1516.38,2450.58c-13.59,2-23.17,14.73-21.3,27.72,1.9,13.29,14.64,22.56,28.24,20.61s23.81-14.52,21.9-27.81C1543.36,2458.12,1530,2448.63,1516.38,2450.58Z"/>
          </g>
        </g>
        <g>
          <g>
            <path class="cls-2" d="M276.2,3795.25c-204.66,94.82-262,274.54-262,370.88,0,184.68,262,260.54,262,260.54s262.05-74.85,262.07-259.53C538.23,4070.8,480.84,3890.11,276.2,3795.25Z"/>
            <g class="cls-15">
              <g>
                <path class="cls-4" d="M23.78,4092.92c68.94,69.6,252.38,138.75,252.38,138.75s173.56-62.12,252.42-138"/>
                <path class="cls-4" d="M130.62,3900.82C153.74,3950.53,257.71,3964,276.2,4008c22.51-42,134.54-57.49,151.61-106.94"/>
              </g>
            </g>
            <ellipse class="cls-7" cx="419.92" cy="4141.21" rx="81.3" ry="91.16"/>
            <ellipse class="cls-5" cx="419.92" cy="4136.28" rx="60.54" ry="67.88"/>
            <ellipse class="cls-7" cx="461.27" cy="4101.66" rx="17.94" ry="20.12"/>
            <ellipse class="cls-7" cx="130.92" cy="4141.18" rx="81.3" ry="91.16"/>
            <ellipse class="cls-5" cx="130.92" cy="4136.26" rx="60.54" ry="67.88"/>
            <ellipse class="cls-7" cx="172.27" cy="4101.64" rx="17.94" ry="20.12"/>
            <path class="cls-2" d="M323.91,4569.12c-3.28,18.86-18.83,24-30,24-9.42,0-34.24-4.28-39.56-76.09-4.25-57.36,17.92-57.45,17.92-57.45s10.53.24,16.5,57.45C293.09,4558,327.34,4549.43,323.91,4569.12Z"/>
            <path class="cls-5" d="M375.54,4296.3c-8.7-5.95-11.19-21.66-11.19-21.66-2.48-8.33-3.73-2.38-3.73,1.19a62.82,62.82,0,0,0,.51,7.41,43.91,43.91,0,0,1-3.7,5.2c-21.25,23.06-39.21,37-74.46,37.4-37.75-2.42-53.75-18.42-75.22-38.18-.91-.84-2.12-2.44-3.29-3.66.48-1.31.76-7.43.76-8.17,0-3.57-1.24-9.52-3.73-1.19,0,0-2.49,15.71-11.19,21.66s-3.73,7.13,2.49,3.56c3.05-1.74,7.09-6.5,9.4-10.29,38,44.85,76.31,46.34,80.77,46.34s45.26,3.51,80.72-47c2.39,4.31,5.88,8.94,9.37,10.94C379.27,4303.43,384.24,4302.24,375.54,4296.3Z"/>
          </g>
          <g>
            <path class="cls-2" d="M906.85,3794.27c-204.66,94.83-262,274.54-262,370.88,0,184.68,262,260.54,262,260.54s262-74.85,262.07-259.53C1168.88,4069.82,1111.49,3889.13,906.85,3794.27Z"/>
            <g class="cls-16">
              <g>
                <path class="cls-4" d="M654.43,4092c68.94,69.6,252.38,138.74,252.38,138.74s173.56-62.12,252.42-138"/>
                <path class="cls-4" d="M761.27,3899.85c23.12,49.7,127.09,63.21,145.58,107.21,22.51-42,134.54-57.49,151.61-106.94"/>
              </g>
            </g>
            <ellipse class="cls-7" cx="1050.57" cy="4150.23" rx="81.3" ry="91.16"/>
            <ellipse class="cls-5" cx="1050.57" cy="4145.3" rx="60.54" ry="67.88"/>
            <ellipse class="cls-7" cx="1003.92" cy="4165.69" rx="17.94" ry="20.12"/>
            <ellipse class="cls-7" cx="761.57" cy="4150.21" rx="81.3" ry="91.16"/>
            <ellipse class="cls-5" cx="761.57" cy="4145.28" rx="60.54" ry="67.88"/>
            <ellipse class="cls-7" cx="810.92" cy="4156.66" rx="17.94" ry="20.12"/>
            <path class="cls-2" d="M954.56,4568.14c-3.28,18.86-18.83,24-30,24-9.42,0-34.24-4.28-39.56-76.09-4.25-57.36,17.92-57.45,17.92-57.45s10.53.24,16.5,57.45C923.74,4557,958,4548.45,954.56,4568.14Z"/>
            <path class="cls-5" d="M903.75,4299.74c20.42-.79,33.18,22.81,40.61,44.1,1.91,5.47,5.89,4.67,4-2.1-14.2-51.27-42.2-51.37-44.63-51.37s-30,.1-43.73,51.36c-2.55,9.54,2.74,5,4.06,1.25C872.33,4319.64,883.72,4299.74,903.75,4299.74Z"/>
            <path class="cls-2" d="M697.87,4027.44s51,52,165,134-57-118-57-118Z"/>
            <path class="cls-2" d="M1126.06,4027.44s-51,52-165,134,57-118,57-118Z"/>
            <path class="cls-17" d="M909.87,3509.44s-39.31,40-33,75c13,72,62,88,69,122s-33,62-33,62,20-24,15-40c-8.41-26.9-66-52-83-97S865.87,3526.44,909.87,3509.44Z"/>
            <path class="cls-17" d="M943.87,3601.44s1.43,16.28,5.82,26.76c20.18,48.24,53.18,65.24,58.18,94.24,6.63,38.43-33.46,57-33.46,57s16.46-27,16.46-41c0-31-16.29-36.16-35-62C934.87,3647.44,931.87,3628.44,943.87,3601.44Z"/>
            <path class="cls-17" d="M818.87,3645.44s.4,16.77,5.82,26.76c20.18,37.24,41.18,41.24,46.18,70.24,6.63,38.43-30.46,60-30.46,60s13.46-27,13.46-41c0-5-2-15-23-36C805.55,3700.12,806.87,3672.44,818.87,3645.44Z"/>
          </g>
          <g>
            <path class="cls-2" d="M1528.92,3794.4c-204.66,94.82-262,274.53-262,370.87,0,184.68,262,260.54,262,260.54s262.05-74.85,262.07-259.53C1791,4069.94,1733.56,3889.25,1528.92,3794.4Z"/>
            <g class="cls-18">
              <g>
                <path class="cls-4" d="M1276.5,4092.07c68.94,69.6,252.38,138.74,252.38,138.74s173.56-62.11,252.42-138"/>
                <path class="cls-4" d="M1383.34,3900c23.12,49.7,127.09,63.21,145.58,107.21,22.51-42,134.54-57.49,151.6-106.94"/>
              </g>
            </g>
            <path class="cls-5" d="M1531.93,4302.74c-62,1.44-84.51-59-73.59-1.1,10.09,53.54,69.58,53.54,73.58,53.54s59,0,72.11-53.53C1618,4244.52,1593.93,4302.74,1531.93,4302.74Z"/>
            <path class="cls-6" d="M1490.33,4345.21c18.94,10,39.31,10,41.59,10s22.51,0,41.31-11c-18.94-10-39.31-10-41.6-10S1509.13,4334.19,1490.33,4345.21Z"/>
            <ellipse class="cls-5" cx="1672.64" cy="4135.42" rx="60.54" ry="67.88"/>
            <ellipse class="cls-7" cx="1713.99" cy="4100.81" rx="17.94" ry="20.12"/>
            <ellipse class="cls-5" cx="1383.64" cy="4135.4" rx="60.54" ry="67.88"/>
            <ellipse class="cls-7" cx="1424.99" cy="4100.78" rx="17.94" ry="20.12"/>
            <path class="cls-2" d="M1576.63,4568.26c-3.28,18.86-18.83,24-30,24-9.42,0-34.25-4.28-39.56-76.09-4.25-57.36,17.91-57.45,17.91-57.45s10.54.25,16.51,57.45C1545.81,4557.13,1580.05,4548.57,1576.63,4568.26Z"/>
            <path class="cls-19" d="M1531.58,4116.56c11,0,21,28,21,28s22,90,105,92,133.81-13.32,133.9-101.16c0,0-3.9-32.84,13.1-38.84s7-24,0-26-69-34-252,10c0,0-13,3-21,3h.36c-8,0-21-3-21-3-183-44-245-12-252-10s-17,20,0,26S1272,4135.4,1272,4135.4c.09,87.84,50.91,103.16,133.91,101.16s105-92,105-92,10-28,21-28Z"/>
            <path class="cls-5" d="M1492.44,4124.06s.5,108.5-114,101c-75.82-5-96.5-25.5-82.45-117.22,5-32.7,44-43.28,127.45-32.78C1449.91,4078.39,1492.94,4083.56,1492.44,4124.06Z"/>
            <path class="cls-5" d="M1571.89,4124.06s-.5,108.5,114,101c75.81-5,96.5-25.5,82.44-117.22-5-32.7-43.94-43.28-127.44-32.78C1614.41,4078.39,1571.39,4083.56,1571.89,4124.06Z"/>
            <path class="cls-10" d="M1680.32,4092.38c46.62-.82,77.62-4.82,69.44,48.38,0,0-.81,5.35,3,5.67a5.18,5.18,0,0,0,5.57-4.83c3.57-41-5.43-66-80.07-59.27-2,.19-5.93,1.77-5.18,6.4S1680.32,4092.38,1680.32,4092.38Z"/>
            <path class="cls-10" d="M1405.24,4097c46.37,4.83,75.62,3.63,61,55.44,0,0-1.45,5.21,2.33,6a5.17,5.17,0,0,0,6.11-4.12c8.53-40.3,4.63-65.21-70.28-67.55-2-.06-6.1,1-5.92,5.72S1405.24,4097,1405.24,4097Z"/>
          </g>
        </g>
        <g>
          <g>
            <path class="cls-2" d="M321.92,7580.3c-210.72,80.46-280.36,255.79-287,351.89-12.76,184.25,243.37,278,243.37,278s266.6-56.58,279.37-240.82C564.29,7873.29,519.52,7689.06,321.92,7580.3Z"/>
            <g class="cls-20">
              <g>
                <path class="cls-4" d="M49.54,7859.83c64,74.19,242.2,155.84,242.2,155.84s177.43-50,261.35-120.22"/>
                <path class="cls-4" d="M169.39,7675.57c19.63,51.18,122.42,71.83,137.83,117,25.36-40.35,138.19-48.06,158.63-96.21"/>
              </g>
            </g>
            <path class="cls-5" d="M289.81,8087.64c-61.95-2.85-80.23-64.72-73.33-6.18,6.37,54.11,65.72,58.22,69.71,58.49s58.86,4.08,75.62-48.42C379.71,8035.5,351.66,8091.92,289.81,8087.64Z"/>
            <path class="cls-6" d="M245.38,8127.13c18.21,11.25,38.53,12.67,40.81,12.82s22.45,1.56,42-8.14c-18.2-11.25-38.52-12.66-40.8-12.82S264.9,8117.44,245.38,8127.13Z"/>
            <ellipse class="cls-7" cx="441.4" cy="7935.35" rx="91.16" ry="81.3" transform="translate(-7505.48 7827.04) rotate(-86.04)"/>
            <ellipse class="cls-5" cx="441.74" cy="7930.44" rx="67.88" ry="60.54" transform="translate(-7500.26 7822.81) rotate(-86.04)"/>
            <ellipse class="cls-7" cx="485.39" cy="7898.76" rx="20.12" ry="17.94" transform="translate(-7428.03 7836.86) rotate(-86.04)"/>
            <ellipse class="cls-7" cx="153.09" cy="7915.37" rx="91.16" ry="81.3" transform="translate(-7753.92 7520.82) rotate(-86.04)"/>
            <ellipse class="cls-5" cx="153.43" cy="7910.46" rx="67.88" ry="60.54" transform="translate(-7748.7 7516.59) rotate(-86.04)"/>
            <ellipse class="cls-7" cx="197.08" cy="7878.78" rx="20.12" ry="17.94" transform="translate(-7676.47 7530.64) rotate(-86.04)"/>
            <path class="cls-2" d="M316.07,8355.62c-4.57,18.58-20.44,22.61-31.54,21.84-9.4-.65-33.87-6.64-34.21-78.64-.28-57.52,21.84-56.08,21.84-56.08s10.49,1,12.5,58.46C286.1,8342.38,320.85,8336.21,316.07,8355.62Z"/>
            <g>
              <polyline class="cls-21" points="199.44 7670.22 172.94 7415.78 173.48 7415.32 493.71 7437.49 493.18 7437.95 431.88 7686.31 199.97 7669.76"/>
              <path class="cls-21" d="M566.48,7682.25c-1.93,27.9-116.56,59.74-254.57,50.19s-247.16-56.89-245.23-84.79c3.08-44.55,112.41.11,250.43,9.67S569.56,7637.7,566.48,7682.25Z"/>
              <g>
                <path class="cls-22" d="M315.17,7685.29c35.84,2.48,69.06,2.9,96,1.59L216.5,7673C243.51,7678.29,277.77,7682.7,315.17,7685.29Z"/>
                <path class="cls-22" d="M440.63,7651.93l7.73-31.34c-29.64,4.16-76.42,4.94-128.8,1.31s-98.61-10.84-127.4-19l3.34,32.1h.1l-.18,0,3.56,34.16q8.13,2,17.52,3.81l194.64,13.9c7.65-.38,14.79-.89,21.34-1.54l8.23-33.35-.17-.05Zm-242.29-17.29h0Zm63.49-2.55h0Zm8.27.11h0Zm4.21.09h0Zm12.91.4h0Zm4.38.17,1.48.07Zm8.89.41,3,.16Zm4.5.24,2.35.14Zm4.54.27.39,0Zm17.94,1.24.38,0Zm2.57.2,2.35.19Zm3.88.32,3,.25Zm10.35.93,1.47.14Zm5.74.56h0Zm12.43,1.34.5.06Zm4.08.48.6.07Zm8.75,1.09h0Zm62.58,11.27h0Z"/>
              </g>
              <polygon class="cls-23" points="231.08 7676.42 265.86 7680.83 257 7437.91 222.04 7436.76 231.08 7676.42"/>
              <ellipse class="cls-24" cx="333.09" cy="7426.37" rx="25.5" ry="160.5" transform="translate(-7098.55 7245.8) rotate(-86.04)"/>
            </g>
          </g>
          <g>
            <path class="cls-2" d="M920.09,7581c-209.34,84-276,260.44-281.08,356.65-9.68,184.43,248,273.9,248,273.9s265.61-61,275.29-245.47C1167.34,7869.89,1119.49,7686.44,920.09,7581Z"/>
            <g class="cls-25">
              <g>
                <path class="cls-4" d="M652.44,7865.06c65.2,73.11,244.78,151.76,244.78,151.76s176.57-52.95,259.29-124.58"/>
                <path class="cls-4" d="M769.19,7678.81c20.48,50.85,123.6,69.78,139.77,114.69,24.67-40.76,137.36-50.37,157-98.86"/>
              </g>
            </g>
            <path class="cls-5" d="M896.49,8088.81c-62-1.81-81.3-63.37-73.43-5,7.28,54,66.69,57.11,70.68,57.32s58.92,3.09,74.81-49.68C985.51,8035.17,958.41,8092.06,896.49,8088.81Z"/>
            <path class="cls-6" d="M852.73,8129c18.39,10.95,38.73,12,41,12.14s22.48,1.18,41.83-8.85c-18.39-10.94-38.73-12-41-12.13S872.08,8119,852.73,8129Z"/>
            <ellipse class="cls-7" cx="1045.51" cy="7934.01" rx="91.16" ry="81.3" transform="translate(-6932.39 8562.2) rotate(-87)"/>
            <ellipse class="cls-5" cx="1045.77" cy="7929.09" rx="67.88" ry="60.54" transform="translate(-6927.23 8557.8) rotate(-87)"/>
            <ellipse class="cls-7" cx="1088.88" cy="7896.68" rx="20.12" ry="17.94" transform="translate(-6854.03 8570.14) rotate(-87)"/>
            <ellipse class="cls-7" cx="756.91" cy="7918.86" rx="91.16" ry="81.3" transform="translate(-7190.74 8259.64) rotate(-87)"/>
            <ellipse class="cls-5" cx="757.17" cy="7913.94" rx="67.88" ry="60.54" transform="translate(-7185.58 8255.24) rotate(-87)"/>
            <ellipse class="cls-7" cx="800.27" cy="7881.53" rx="20.12" ry="17.94" transform="translate(-7112.37 8267.58) rotate(-87)"/>
            <path class="cls-2" d="M927.24,8356.31c-4.26,18.66-20.06,23-31.18,22.37-9.4-.49-34-6.07-35.52-78.06-1.24-57.5,20.9-56.43,20.9-56.43s10.5.79,13.48,58.23C897.05,8343.58,931.69,8336.83,927.24,8356.31Z"/>
            <path class="cls-26" d="M802.57,7369.08s23.55,2.67,39.1-3c0,0,13.88,9,10.91,22.11,0,0-20.19,34.88-15.14,42.91l-12.61,4.63s-16.16-15.25-16.13-28.66S808,7374.17,802.57,7369.08Z"/>
            <path class="cls-26" d="M1022.19,7648c0-.15-.05-.31-.08-.46l-.27.06-194.47-227-89,285.31-.27.05c0,.16.08.31.11.46v0h0c6.53,28,74.5,37.76,152.49,21.7s136.59-51.83,131.52-80.16h0Z"/>
            <path class="cls-27" d="M876.15,7657.62c49.46-10.18,91.12-28.29,113.69-47.41l-9.91-11.57c-23.58,17.2-62.16,33.06-107.2,42.33s-86.76,9.94-115.21,3.45L753,7659C781.27,7667.61,826.7,7667.8,876.15,7657.62Z"/>
            <path class="cls-27" d="M867.08,7613.55c38.39-7.9,72.08-20.59,95.8-34.81l-10.71-12.5c-23.11,12.52-53.9,23.53-88.52,30.66s-67.25,9.16-93.42,6.78l-4.9,15.72C792.73,7623.1,828.69,7621.45,867.08,7613.55Z"/>
            <path class="cls-27" d="M858,7569.47c28.7-5.91,54.78-14.49,76-24.39l-11.26-13.15a378.57,378.57,0,0,1-139.08,28.62l-5.16,16.54C802,7577.79,829.3,7575.38,858,7569.47Z"/>
            <path class="cls-27" d="M849.14,7526.37a460.91,460.91,0,0,0,55.91-15.12l-11.88-13.86a478.71,478.71,0,0,1-95.93,19.74l-5.44,17.43A462.47,462.47,0,0,0,849.14,7526.37Z"/>
            <path class="cls-27" d="M885.22,7701.7c62.28-12.82,112.92-37,131.39-60.26l-9-10.52c-21.85,21.31-69,42.43-125.79,54.13s-108.46,10.89-136.95-.05l-4.12,13.23C766.89,7712.33,823,7714.52,885.22,7701.7Z"/>
            <g>
              <path class="cls-28" d="M905.05,7511.25a474.1,474.1,0,0,1-113.25,23.31l-8.11,26a378.57,378.57,0,0,0,139.08-28.62Z"/>
              <path class="cls-28" d="M979.93,7598.64l-17-19.9c-23.72,14.22-57.41,26.91-95.8,34.81s-74.35,9.55-101.75,5.85l-7.81,25c28.45,6.49,70.16,5.82,115.21-3.45S956.35,7615.84,979.93,7598.64Z"/>
              <path class="cls-28" d="M837.45,7469.56q13.65-2.81,26.78-5.94l8.19,9.55-45-52.58-20.63,66.1,3.75-12Q823.78,7472.37,837.45,7469.56Z"/>
              <path class="cls-28" d="M1022.11,7647.49l-.27.06-9.1-10.62,3.87,4.51c-18.47,23.3-69.11,47.44-131.39,60.26s-118.33,10.63-144.49-3.47l1.77-5.68-4.17,13.35-.27.05c0,.16.08.31.11.46v0h0c6.53,28,74.5,37.76,152.49,21.7s136.59-51.83,131.52-80.16h0l0,0C1022.16,7647.8,1022.14,7647.64,1022.11,7647.49Z"/>
            </g>
            <path class="cls-26" d="M741.07,7438.14s28.65-25,65.6-11.14l-17.27-20.65s-35.13-18.89-65.93,3C723.47,7409.31,746.52,7416.4,741.07,7438.14Z"/>
            <path class="cls-29" d="M825.59,7428.12c-32.82-26.08,3.87-47.27,3.87-47.27-20,5.2-44.3,1.2-44.3,1.2-11.06,26.82,4.27,49.43,41.07,53.6Z"/>
            <path class="cls-27" d="M840.87,7486.22q18.38-3.78,35.75-8.15l-12.39-14.45q-13.11,3.12-26.78,5.94t-27,5.12l-5.67,18.17Q822.48,7490,840.87,7486.22Z"/>
            <path class="cls-30" d="M836.27,7432.6c39-28.37,73.26,11.29,73.26,11.29,4.45-12.92,22-22.86,22-22.86-9.6-20.46-67.2-36.52-97.56,7.74Z"/>
            <g>
              <path class="cls-28" d="M905.05,7511.25a474.1,474.1,0,0,1-113.25,23.31l-8.11,26a378.57,378.57,0,0,0,139.08-28.62Z"/>
              <path class="cls-28" d="M979.93,7598.64l-17-19.9c-23.72,14.22-57.41,26.91-95.8,34.81s-74.35,9.55-101.75,5.85l-7.81,25c28.45,6.49,70.16,5.82,115.21-3.45S956.35,7615.84,979.93,7598.64Z"/>
              <path class="cls-28" d="M837.45,7469.56q13.65-2.81,26.78-5.94l8.19,9.55-45-52.58-20.63,66.1,3.75-12Q823.78,7472.37,837.45,7469.56Z"/>
              <path class="cls-28" d="M1022.11,7647.49l-.27.06-9.1-10.62,3.87,4.51c-18.47,23.3-69.11,47.44-131.39,60.26s-118.33,10.63-144.49-3.47l1.77-5.68-4.17,13.35-.27.05c0,.16.08.31.11.46v0h0c6.53,28,74.5,37.76,152.49,21.7s136.59-51.83,131.52-80.16h0l0,0C1022.16,7647.8,1022.14,7647.64,1022.11,7647.49Z"/>
            </g>
            <g class="cls-31">
              <polygon class="cls-23" points="990.14 7701.84 950.72 7721.39 829.83 7423.26 846.92 7413.05 990.14 7701.84"/>
            </g>
            <path class="cls-32" d="M855.74,7361.37s4.72,11-13.48,26.8a46.38,46.38,0,0,0-16.11,36.93l11.28,5.75s14.77-25.16,25.74-29.88,34.05-11,40.64-29.68C903.81,7371.29,876.81,7372.71,855.74,7361.37Z"/>
          </g>
          <g>
            <path class="cls-2" d="M1541.08,7582.39c-209.34,84-276,260.44-281.09,356.65-9.68,184.43,248,273.9,248,273.9s265.62-61,275.3-245.47C1788.33,7871.27,1740.47,7687.82,1541.08,7582.39Z"/>
            <g class="cls-33">
              <g>
                <path class="cls-4" d="M1273.42,7866.44c65.21,73.11,244.78,151.76,244.78,151.76s176.57-52.95,259.3-124.58"/>
                <path class="cls-4" d="M1390.17,7680.19c20.49,50.85,123.61,69.78,139.77,114.69,24.68-40.76,137.36-50.37,157-98.86"/>
              </g>
            </g>
            <path class="cls-5" d="M1517.48,8090.19c-62-1.81-81.31-63.37-73.43-4.95,7.28,54,66.69,57.11,70.68,57.32s58.92,3.09,74.81-49.68C1606.49,8036.55,1579.39,8093.44,1517.48,8090.19Z"/>
            <path class="cls-6" d="M1473.72,8130.42c18.39,10.95,38.73,12,41,12.14s22.47,1.17,41.82-8.85c-18.39-10.94-38.73-12-41-12.13S1493.07,8120.4,1473.72,8130.42Z"/>
            <ellipse class="cls-7" cx="1666.49" cy="7935.39" rx="91.16" ry="81.3" transform="translate(-6345.34 9183.64) rotate(-87)"/>
            <ellipse class="cls-5" cx="1666.75" cy="7930.47" rx="67.88" ry="60.54" transform="translate(-6340.18 9179.24) rotate(-87)"/>
            <ellipse class="cls-7" cx="1709.86" cy="7898.06" rx="20.12" ry="17.94" transform="translate(-6266.97 9191.58) rotate(-87)"/>
            <ellipse class="cls-7" cx="1377.89" cy="7920.24" rx="91.16" ry="81.3" transform="translate(-6603.68 8881.08) rotate(-87)"/>
            <ellipse class="cls-5" cx="1378.15" cy="7915.32" rx="67.88" ry="60.54" transform="translate(-6598.53 8876.68) rotate(-87)"/>
            <ellipse class="cls-7" cx="1421.26" cy="7882.91" rx="20.12" ry="17.94" transform="matrix(0.05, -1, 1, 0.05, -6525.32, 8889.02)"/>
            <path class="cls-2" d="M1548.22,8357.69c-4.26,18.66-20.06,22.95-31.17,22.37-9.41-.49-34-6.07-35.52-78.06-1.24-57.51,20.89-56.43,20.89-56.43s10.51.79,13.48,58.23C1518,8345,1552.67,8338.21,1548.22,8357.69Z"/>
            <path class="cls-34" d="M1423.55,7370.46s23.55,2.67,39.1-3c0,0,13.89,9,10.91,22.11,0,0-20.18,34.88-15.13,42.91l-12.62,4.63s-16.16-15.25-16.13-28.66S1428.94,7375.55,1423.55,7370.46Z"/>
            <path class="cls-34" d="M1643.17,7649.33c0-.15-.05-.31-.08-.46l-.27.06-194.47-227-89,285.31-.27.05c0,.16.07.31.11.46v0h0c6.53,28,74.51,37.76,152.49,21.7s136.6-51.83,131.53-80.16h0Z"/>
            <path class="cls-35" d="M1497.14,7659c49.45-10.18,91.11-28.29,113.69-47.41l-9.91-11.57c-23.58,17.2-62.16,33.06-107.21,42.33s-86.75,9.94-115.21,3.45l-4.54,14.54C1402.25,7669,1447.68,7669.18,1497.14,7659Z"/>
            <path class="cls-35" d="M1488.07,7614.93c38.38-7.91,72.07-20.59,95.79-34.81l-10.71-12.5c-23.11,12.52-53.9,23.53-88.51,30.66s-67.25,9.16-93.43,6.78l-4.9,15.72C1413.72,7624.48,1449.68,7622.83,1488.07,7614.93Z"/>
            <path class="cls-35" d="M1479,7570.85c28.71-5.91,54.78-14.49,76-24.39l-11.27-13.15a378.45,378.45,0,0,1-139.08,28.62l-5.16,16.54C1422.94,7579.17,1450.29,7576.76,1479,7570.85Z"/>
            <path class="cls-35" d="M1470.12,7527.75a460.41,460.41,0,0,0,55.91-15.12l-11.87-13.86a478.61,478.61,0,0,1-95.94,19.74l-5.43,17.43A462.59,462.59,0,0,0,1470.12,7527.75Z"/>
            <path class="cls-35" d="M1506.21,7703.08c62.27-12.82,112.91-37,131.38-60.26l-9-10.52c-21.85,21.31-69,42.43-125.8,54.13s-108.45,10.89-136.94-.05l-4.13,13.23C1387.88,7713.71,1443.94,7715.9,1506.21,7703.08Z"/>
            <path class="cls-28" d="M1526,7512.63a474.16,474.16,0,0,1-113.24,23.31l-8.12,26a378.45,378.45,0,0,0,139.08-28.62Z"/>
            <path class="cls-28" d="M1600.92,7600l-17.06-19.9c-23.72,14.22-57.41,26.9-95.79,34.81s-74.35,9.55-101.76,5.85l-7.81,25c28.46,6.49,70.16,5.82,115.21-3.45S1577.34,7617.22,1600.92,7600Z"/>
            <path class="cls-28" d="M1458.43,7470.94q13.66-2.8,26.79-5.94l8.19,9.55L1448.35,7422l-20.63,66.1,3.75-12Q1444.76,7473.75,1458.43,7470.94Z"/>
            <path class="cls-28" d="M1643.09,7648.87l-.27.06-9.1-10.62,3.87,4.51c-18.47,23.29-69.11,47.44-131.38,60.26s-118.33,10.63-144.5-3.47l1.77-5.68-4.16,13.35-.27.05c0,.16.07.31.11.46v0h0c6.53,28,74.51,37.76,152.49,21.7s136.6-51.83,131.53-80.16h0l0,0C1643.14,7649.18,1643.12,7649,1643.09,7648.87Z"/>
            <path class="cls-35" d="M1362.06,7439.52s28.64-25,65.6-11.14l-17.28-20.65s-35.12-18.89-65.93,3C1344.45,7410.69,1367.5,7417.78,1362.06,7439.52Z"/>
            <path class="cls-34" d="M1446.57,7429.5c-32.82-26.08,3.87-47.27,3.87-47.27-20,5.19-44.3,1.2-44.3,1.2-11.05,26.82,4.27,49.42,41.07,53.6Z"/>
            <path class="cls-35" d="M1461.86,7487.6q18.36-3.8,35.74-8.15L1485.22,7465q-13.12,3.12-26.79,5.94t-27,5.12l-5.67,18.17Q1443.47,7491.35,1461.86,7487.6Z"/>
            <path class="cls-34" d="M1457.26,7434c39-28.38,73.26,11.29,73.26,11.29,4.44-12.92,22-22.86,22-22.86-9.61-20.46-67.2-36.52-97.56,7.74Z"/>
            <path class="cls-34" d="M1526,7512.63a474.16,474.16,0,0,1-113.24,23.31l-8.12,26a378.45,378.45,0,0,0,139.08-28.62Z"/>
            <path class="cls-34" d="M1600.92,7600l-17.06-19.9c-23.72,14.22-57.41,26.9-95.79,34.81s-74.35,9.55-101.76,5.85l-7.81,25c28.46,6.49,70.16,5.82,115.21-3.45S1577.34,7617.22,1600.92,7600Z"/>
            <path class="cls-34" d="M1458.43,7470.94q13.66-2.8,26.79-5.94l8.19,9.55L1448.35,7422l-20.63,66.1,3.75-12Q1444.76,7473.75,1458.43,7470.94Z"/>
            <path class="cls-34" d="M1643.09,7648.87l-.27.06-9.1-10.62,3.87,4.51c-18.47,23.29-69.11,47.44-131.38,60.26s-118.33,10.63-144.5-3.47l1.77-5.68-4.16,13.35-.27.05c0,.16.07.31.11.46v0h0c6.53,28,74.51,37.76,152.49,21.7s136.6-51.83,131.53-80.16h0l0,0C1643.14,7649.18,1643.12,7649,1643.09,7648.87Z"/>
            <g class="cls-36">
              <polygon class="cls-23" points="1611.13 7703.22 1571.71 7722.77 1450.81 7424.64 1467.9 7414.43 1611.13 7703.22"/>
            </g>
            <path class="cls-35" d="M1476.72,7362.75s4.72,11-13.47,26.8a46.37,46.37,0,0,0-16.11,36.93l10.66,6.51s15.39-25.92,26.36-30.64,34-11,40.63-29.68C1524.79,7372.67,1497.8,7374.08,1476.72,7362.75Z"/>
          </g>
        </g>
        <g>
          <path class="cls-2" d="M911.55,8844.61c-204.66,94.82-262,274.54-262,370.88,0,184.68,262,260.54,262,260.54s262-74.85,262.07-259.54C1173.58,9120.16,1116.19,8939.46,911.55,8844.61Z"/>
          <g class="cls-37">
            <g>
              <path class="cls-4" d="M659.13,9142.28C728.07,9211.88,911.51,9281,911.51,9281s173.56-62.12,252.42-138"/>
              <path class="cls-4" d="M766,8950.18c23.12,49.71,127.09,63.21,145.58,107.22,22.51-42,134.54-57.49,151.6-106.94"/>
            </g>
          </g>
          <path class="cls-5" d="M914.56,9353c-62,1.44-84.51-59-73.59-1.1,10.09,53.54,69.58,53.55,73.58,53.55s59,0,72.11-53.53C1000.64,9294.73,976.56,9353,914.56,9353Z"/>
          <path class="cls-6" d="M873,9395.42c18.94,10,39.31,10,41.59,10s22.51,0,41.31-11c-18.94-10-39.31-10-41.59-10S891.76,9384.4,873,9395.42Z"/>
          <ellipse class="cls-7" cx="1055.27" cy="9190.57" rx="81.3" ry="91.16"/>
          <ellipse class="cls-5" cx="1055.27" cy="9185.64" rx="60.54" ry="67.88"/>
          <ellipse class="cls-7" cx="1096.62" cy="9151.02" rx="17.94" ry="20.12"/>
          <ellipse class="cls-7" cx="766.27" cy="9190.54" rx="81.3" ry="91.16"/>
          <ellipse class="cls-5" cx="766.27" cy="9185.61" rx="60.54" ry="67.88"/>
          <ellipse class="cls-7" cx="807.62" cy="9151" rx="17.94" ry="20.12"/>
          <path class="cls-2" d="M959.26,9618.48c-3.28,18.86-18.83,24-30,24-9.42,0-34.25-4.28-39.56-76.09-4.25-57.37,17.91-57.45,17.91-57.45s10.54.24,16.51,57.45C928.44,9607.35,962.68,9598.79,959.26,9618.48Z"/>
          <rect class="cls-38" x="889.57" y="9465.74" width="44" height="35.03" rx="13.58"/>
          <path class="cls-39" d="M895.57,9465.77a57.5,57.5,0,0,0-52.08-26c-35.92,2-13.92,15-15.92,40s-25,48,1,52,59,4,68-21C904.18,9489.63,898.57,9478.77,895.57,9465.77Z"/>
          <path class="cls-39" d="M923.91,9474.1s16-37.3,51.66-32.33c43,6,8,31,15,53,6,19,24,50-10,52-26.31,1.55-41.34-10.7-51-30C918.78,9495.23,920.91,9488.17,923.91,9474.1Z"/>
          <circle class="cls-40" cx="858.57" cy="9485.77" r="11"/>
          <ellipse class="cls-40" cx="979.57" cy="9490.77" rx="9" ry="11"/>
          <ellipse class="cls-40" cx="866.07" cy="9519.77" rx="9.5" ry="11"/>
          <ellipse class="cls-40" cx="967.07" cy="9458.77" rx="11" ry="7.43" transform="translate(-2950.85 795.43) rotate(-18.5)"/>
          <ellipse class="cls-40" cx="956.07" cy="9508.77" rx="9.65" ry="8.34" transform="translate(-2967.28 794.52) rotate(-18.5)"/>
          <ellipse class="cls-40" cx="984.07" cy="9524.77" rx="7.86" ry="6.79" transform="translate(-2970.91 804.23) rotate(-18.5)"/>
          <path class="cls-40" d="M832.91,9516.68c2.34-4.69-.17-10.7-5.6-13.41a12.21,12.21,0,0,0-5.58-1.3c-2.36,6.3-4.67,12-5.29,16.74a12.34,12.34,0,0,0,2.39,1.57C824.27,9523,830.57,9521.38,832.91,9516.68Z"/>
          <path class="cls-40" d="M857.57,9448.77a11.38,11.38,0,0,0-4.05-8.82,61.26,61.26,0,0,0-10-.22l-1.74.11a11.33,11.33,0,0,0-4.18,8.93c0,6.08,4.48,11,10,11S857.57,9454.85,857.57,9448.77Z"/>
          <path class="cls-38" d="M901.91,9488.76s-17.34,0-29.34,8c0,0,6-11,17-13-11-2-17-13-17-13,12,8,29.34,8,29.34,8Z"/>
          <path class="cls-38" d="M921.57,9488.76s17.34,0,29.34,8c0,0-6-11-17-13,11-2,17-13,17-13-12,8-29.34,8-29.34,8Z"/>
        </g>
        <g>
          <g>
            <path class="cls-2" d="M279.34,5053.86c-204.66,94.82-262,274.54-262,370.88,0,184.68,262,260.54,262,260.54s262.06-74.85,262.07-259.53C541.37,5329.41,484,5148.72,279.34,5053.86Z"/>
            <g class="cls-41">
              <g>
                <path class="cls-4" d="M26.92,5351.53c68.94,69.6,252.39,138.75,252.39,138.75s173.55-62.12,252.41-138"/>
                <path class="cls-4" d="M133.76,5159.43c23.12,49.71,127.09,63.22,145.58,107.22,22.51-42,134.54-57.49,151.61-106.94"/>
              </g>
            </g>
            <path class="cls-5" d="M282.35,5562.2c-62,1.44-84.51-59-73.59-1.1,10.1,53.54,69.59,53.55,73.59,53.55s59,0,72.1-53.53C368.43,5504,344.35,5562.21,282.35,5562.2Z"/>
            <path class="cls-6" d="M240.75,5604.68c18.94,10,39.31,10,41.6,10s22.5,0,41.3-11c-18.94-10-39.31-10-41.59-10S259.55,5593.66,240.75,5604.68Z"/>
            <ellipse class="cls-7" cx="423.06" cy="5399.82" rx="81.3" ry="91.16"/>
            <ellipse class="cls-5" cx="423.06" cy="5394.89" rx="60.54" ry="67.88"/>
            <ellipse class="cls-7" cx="464.41" cy="5360.27" rx="17.94" ry="20.12"/>
            <ellipse class="cls-7" cx="134.06" cy="5399.79" rx="81.3" ry="91.16"/>
            <ellipse class="cls-5" cx="134.06" cy="5394.87" rx="60.54" ry="67.88"/>
            <ellipse class="cls-7" cx="175.41" cy="5360.25" rx="17.94" ry="20.12"/>
            <path class="cls-2" d="M327.05,5827.73c-3.28,18.86-18.83,24-30,24-9.42,0-34.24-4.28-39.56-76.09-4.24-57.36,17.92-57.45,17.92-57.45s10.53.24,16.5,57.45C296.24,5816.6,330.48,5808,327.05,5827.73Z"/>
            <path class="cls-5" d="M555,5330c-7-2-69-34-252,10,0,0-12.81,2.95-20.82,3s-20.82-3-20.82-3c-183-44-245-12-252-10s-17,20,0,26,13.09,38.84,13.09,38.84c.1,87.84,50.91,103.16,133.91,101.16s105-92,105-92,9.89-27.69,20.82-28c10.93.3,20.82,28,20.82,28s22,90,105,92,133.82-13.32,133.91-101.16c0,0-3.91-32.84,13.09-38.84S562,5332,555,5330Zm-426.14,154.5c-75.81-5-96.5-25.5-82.44-117.23,5-32.69,43.94-43.27,127.44-32.77,26.48,3.32,69.5,8.5,69,49C242.86,5383.53,243.36,5492,128.86,5484.53Zm307.45,0c-114.5,7.49-114-101-114-101-.5-40.5,42.53-45.68,69-49,83.5-10.5,122.44.08,127.45,32.77C532.81,5459,512.13,5479.56,436.31,5484.53Z"/>
          </g>
          <g>
            <path class="cls-2" d="M911.71,5057.59c-204.66,94.82-262,274.54-262,370.88,0,184.68,262,260.54,262,260.54s262.06-74.85,262.08-259.53C1173.73,5333.14,1116.35,5152.45,911.71,5057.59Z"/>
            <g class="cls-42">
              <g>
                <path class="cls-4" d="M659.28,5355.26c69,69.6,252.39,138.75,252.39,138.75s173.56-62.12,252.42-138"/>
                <path class="cls-4" d="M766.13,5163.16c23.11,49.71,127.08,63.22,145.58,107.22,22.5-42,134.53-57.49,151.6-106.94"/>
              </g>
            </g>
            <path class="cls-5" d="M914.71,5565.93c-62,1.44-84.5-59-73.58-1.1,10.09,53.54,69.58,53.55,73.58,53.55s59,0,72.1-53.53C1000.8,5507.71,976.71,5565.94,914.71,5565.93Z"/>
            <path class="cls-6" d="M873.12,5608.41c18.94,10,39.31,10,41.59,10s22.51,0,41.31-11c-18.94-10-39.31-10-41.6-10S891.92,5597.39,873.12,5608.41Z"/>
            <ellipse class="cls-7" cx="1055.43" cy="5403.55" rx="81.3" ry="91.16"/>
            <ellipse class="cls-5" cx="1055.43" cy="5398.62" rx="60.54" ry="67.88"/>
            <ellipse class="cls-7" cx="1096.78" cy="5364" rx="17.94" ry="20.12"/>
            <ellipse class="cls-7" cx="766.43" cy="5403.52" rx="81.3" ry="91.16"/>
            <ellipse class="cls-5" cx="766.43" cy="5398.6" rx="60.54" ry="67.88"/>
            <ellipse class="cls-7" cx="807.78" cy="5363.98" rx="17.94" ry="20.12"/>
            <path class="cls-2" d="M959.42,5831.46c-3.28,18.86-18.84,24-30,24-9.42,0-34.25-4.28-39.56-76.09-4.25-57.36,17.91-57.45,17.91-57.45s10.53.24,16.51,57.45C928.6,5820.33,962.84,5811.77,959.42,5831.46Z"/>
            <path class="cls-5" d="M1187.36,5333.76c-7-2-69-34-252,10,0,0-12.8,2.95-20.82,3s-20.81-3-20.81-3c-183-44-245-12-252-10s-17,20,0,26,13.09,38.84,13.09,38.84c.09,87.84,50.91,103.16,133.91,101.16s105-92,105-92,9.89-27.69,20.81-28c10.93.3,20.82,28,20.82,28s22,90,105,92,133.82-13.32,133.91-101.16c0,0-3.91-32.84,13.09-38.84S1194.36,5335.76,1187.36,5333.76Zm-426.13,154.5c-75.82-5-96.5-25.5-82.45-117.23,5-32.69,44-43.27,127.45-32.77,26.47,3.32,69.5,8.5,69,49C875.23,5387.26,875.73,5495.75,761.23,5488.26Zm307.45,0c-114.5,7.49-114-101-114-101-.5-40.5,42.52-45.68,69-49,83.5-10.5,122.43.08,127.44,32.77C1165.18,5462.76,1144.49,5483.29,1068.68,5488.26Z"/>
            <path d="M972.79,4849.93c5.41,37.76-18.61,55.08-36.26,67.48-15.92,11.53-20.36,21.42-17.41,42l-46.82,6.71c-4.55-31.71,8.25-62.84,35.64-82.49,13.72-9.68,18.59-14.38,16.9-26.16-.6-4.23-4.62-19.38-35.14-15-25.37,3.64-35.8,23.33-38.55,38.52l-45.8-7.61c2.71-15.5,16.53-67.42,77.85-76.22,33.53-4.81,54.95,4.76,66.08,13.64C961.81,4820.68,970.58,4834.53,972.79,4849.93Z"/>
            <path d="M898.55,4979.27C885,4981.22,875.38,4994,877.24,5007c1.91,13.29,14.65,22.57,28.24,20.62s23.82-14.52,21.91-27.81C925.53,4986.81,912.14,4977.32,898.55,4979.27Z"/>
          </g>
          <g>
            <path class="cls-2" d="M1575.65,5828.76c-3.28,18.86-18.83,24-30,24-9.42,0-34.25-4.28-39.56-76.09-4.25-57.36,17.91-57.45,17.91-57.45s10.54.25,16.51,57.45C1544.83,5817.63,1579.07,5809.07,1575.65,5828.76Z"/>
            <path class="cls-2" d="M1527.94,5054.9c-204.66,94.82-262,274.53-262,370.87,0,184.68,262,260.54,262,260.54s262-74.85,262.07-259.53C1790,5330.44,1732.58,5149.75,1527.94,5054.9Z"/>
            <g class="cls-43">
              <g>
                <path class="cls-4" d="M1275.52,5352.57c68.94,69.6,252.38,138.74,252.38,138.74s173.56-62.11,252.42-138"/>
                <path class="cls-4" d="M1382.36,5160.47c23.12,49.7,127.09,63.21,145.58,107.21,22.51-42,134.54-57.49,151.6-106.94"/>
              </g>
            </g>
            <path class="cls-5" d="M1531,5563.24c-62,1.44-84.51-59-73.59-1.1,10.09,53.54,69.58,53.54,73.58,53.54s59,0,72.11-53.53C1617,5505,1593,5563.24,1531,5563.24Z"/>
            <path class="cls-6" d="M1489.35,5605.71c18.94,10,39.31,10,41.59,10s22.51,0,41.31-11c-18.94-10-39.31-10-41.59-10S1508.15,5594.69,1489.35,5605.71Z"/>
            <ellipse class="cls-7" cx="1671.66" cy="5400.85" rx="81.3" ry="91.16"/>
            <ellipse class="cls-5" cx="1671.66" cy="5395.92" rx="60.54" ry="67.88"/>
            <ellipse class="cls-7" cx="1713.01" cy="5361.31" rx="17.94" ry="20.12"/>
            <ellipse class="cls-7" cx="1382.66" cy="5400.83" rx="81.3" ry="91.16"/>
            <ellipse class="cls-5" cx="1382.66" cy="5395.9" rx="60.54" ry="67.88"/>
            <ellipse class="cls-7" cx="1424.01" cy="5361.28" rx="17.94" ry="20.12"/>
            <path class="cls-7" d="M1527.56,5697.56c-62,3-110-35-125-54s-44-32-51-36-7-12-4.83-18.61,3.83-62.39,2.83-69.39,2-7,5-8,20-6,37-10,50-1,91-18c15.38-6.38,31.17-8,44.92-7.47h.07c13.74-.5,29.53,1.09,44.91,7.47,41,17,74,14,91,18s34,9,37,10,6,1,5,8,.66,62.78,2.83,69.39,2.17,14.61-4.83,18.61-36,17-51,36-63,57-125,54Z"/>
            <path class="cls-44" d="M1705.25,5537.49c.34,19.14,1.58,46,3,50.46,2.17,6.61,2.17,14.61-4.83,18.61s-36,17-51,36-63,57-125,54h.1c-62,3-110-35-125-54s-44-32-51-36-7-12-4.83-18.61c1.47-4.47,2.7-31.35,3-50.49l-.31.1c3-1,25.59-7.53,42.59-11.53s50-1,91-18c15.38-6.37,31.17-8,44.91-7.47h.08c13.74-.5,29.53,1.1,44.91,7.47,41,17,74,14,91,18s38.51,10.53,41.51,11.53Z"/>
            <g>
              <path class="cls-45" d="M1349.46,5538.56c3-1,25.59-7.53,42.59-11.53s50-1,91-18c15.38-6.37,31.17-8,44.91-7.47h.08c13.74-.5,29.53,1.1,44.91,7.47,41,17,74,14,91,18s38.51,10.53,41.51,11.53"/>
              <path class="cls-45" d="M1347.46,5583.56c7,0,27.52-3.53,44.52-7.53s46.63-18.15,91-17c20.48.53,31.17-2,44.91-1.47h.15c13.74-.5,24.42,2,44.91,1.47,44.37-1.15,74,13,91,17s36.51,7.53,43.51,7.53"/>
              <path class="cls-45" d="M1345.46,5600.56c7,0,29.52-4,46.52,0s52.48-3,91,8.53c19.63,5.88,31.17,4,44.91,3.47h.15c13.74.5,25.07,1.67,44.91-3.47,44.51-11.53,74-4.53,91-8.53s38.51,0,45.51,0"/>
              <path class="cls-45" d="M1701.46,5608.56c-28,7-50,31-97,41s-57.69,7-77,7-30,3-77-7-69-34-97-41"/>
              <path class="cls-45" d="M1389.35,5630.56a82.58,82.58,0,0,1,13.21,13,116.74,116.74,0,0,0,18,17.58,176.62,176.62,0,0,0,32.88,10.42c47,10,57.69,7,77,7s30,3,77-7a177.25,177.25,0,0,0,21-5.84c11-8,19.18-16.07,24-22.16a82.58,82.58,0,0,1,13.21-13"/>
            </g>
            <path class="cls-7" d="M1709.29,5593.07c32.23-28.64,59.17-64.51,76-106.82.48-1.2-.86-5.69-2.86-5.69,0,0-.76,2-1.65,4.68-13.24,39.23-43.32,72-73.52,98.83"/>
            <path class="cls-7" d="M1705.14,5514s34.82-14.95,84.82-85.95c.57-.82,3,1,3,3s-2.34,2-3,3c-41,63-84.5,85.5-84.5,85.5"/>
            <path class="cls-7" d="M1351,5514s-34.82-14.95-84.82-85.95c-.58-.82-3,1-3,3s2.34,2,3,3c41,63,84.5,85.5,84.5,85.5"/>
            <path class="cls-7" d="M1345.31,5593.07c-32.23-28.64-57.17-64.51-74-106.82-.48-1.2.86-5.69,2.86-5.69,0,0,.75,2,1.64,4.68,13.25,39.23,41.33,72,71.53,98.83"/>
          </g>
        </g>
        <g>
          <g>
            <path class="cls-2" d="M892,6236.74c-204.71,94.7-262.19,274.38-262.26,370.72-.13,184.68,261.83,260.7,261.83,260.7s262.1-74.7,262.23-259.38C1153.81,6512.44,1096.53,6331.72,892,6236.74Z"/>
            <g class="cls-46">
              <g>
                <path class="cls-4" d="M639.35,6534.26c68.9,69.64,252.3,138.9,252.3,138.9s173.59-62,252.5-137.84"/>
                <path class="cls-4" d="M746.31,6342.22c23.08,49.72,127.05,63.29,145.51,107.3,22.54-42,134.57-57.4,151.67-106.84"/>
              </g>
            </g>
            <path class="cls-5" d="M894.65,6745.08c-62,1.4-84.47-59.07-73.58-1.14,10.06,53.54,69.55,53.58,73.55,53.59s59,0,72.13-53.49C980.77,6686.91,956.65,6745.12,894.65,6745.08Z"/>
            <path class="cls-6" d="M853,6787.53c18.93,10,39.3,10,41.59,10s22.5,0,41.31-11c-18.93-10-39.3-10-41.59-10S871.84,6776.52,853,6787.53Z"/>
            <ellipse class="cls-7" cx="1035.46" cy="6582.78" rx="81.3" ry="91.16"/>
            <ellipse class="cls-5" cx="1035.46" cy="6577.85" rx="60.54" ry="67.88"/>
            <ellipse class="cls-7" cx="1076.84" cy="6543.26" rx="17.94" ry="20.12"/>
            <ellipse class="cls-7" cx="746.46" cy="6582.58" rx="81.3" ry="91.16"/>
            <ellipse class="cls-5" cx="746.46" cy="6577.66" rx="60.54" ry="67.88"/>
            <ellipse class="cls-7" cx="787.84" cy="6543.06" rx="17.94" ry="20.12"/>
            <path class="cls-2" d="M939.2,7010.63c-3.3,18.86-18.85,24-30,24-9.42,0-34.24-4.3-39.51-76.12-4.21-57.36,17.95-57.44,17.95-57.44s10.53.25,16.47,57.46C908.38,6999.49,942.63,6991,939.2,7010.63Z"/>
            <path class="cls-47" d="M1144,6523.48c-85.86,14.72-223.14,11.29-323.14-29.71s-114-37-156.41-35.48c-3.62.13-3.72,3.13-4.59,4.48-2.83,4.37-8,9-10,17-1.94,7.76,3.59,7.52,3.59,7.52s67.41-5.52,167.41,35.48,242.28,43.43,328.14,28.71c0,0,1.86-.71,1.86-3.71s-3-15-4-21C1146.74,6526,1146.15,6523.2,1144,6523.48Z"/>
            <path class="cls-48" d="M706.49,6384s100.38,24.8,189.38,54.8,130.57,49.85,234.28,36.92c4.29-1.07,4.45,3.73,4.72,5.08,2,10,12,33,13,39s-4.72,6.92-4.72,6.92c-103.71,12.93-158.28-4.92-247.28-34.92S679.49,6430,679.49,6430s-3.61.73-2.62-6.2,16-24,22-35C699.52,6387.57,703.11,6383.17,706.49,6384Z"/>
            <path class="cls-47" d="M1115.87,6439.77s-185.06-31.1-357-113.55c0,0-5-6.45-10-.45s-32,34-42,42-4,14,0,16c0,0,259,130,423,92,0,0,7-1,3-9s-9-19-10-23S1120.87,6440.77,1115.87,6439.77Z"/>
            <path class="cls-49" d="M1115.87,6439.77c-100,41-335.5-108.25-348.75-109.63s190.94,40.41,293.34,33.52a12.49,12.49,0,0,1,9.41,4.11c25,29,39.27,51.13,45,58,5,6,7,13,1,14"/>
            <path class="cls-47" d="M807.61,6285.37c21.52,10.09,87.26,34.4,129.26,27.4s74,7,81.26,6,13.74,3,14.74,7,33,32,40,37,10,13,2.42,11.38-67.42-12.38-177.42-14.38-144.42-36.55-144.42-36.55-11.58-11.45,9.42-14.45,35-19,35-19S800.36,6282,807.61,6285.37Z"/>
            <path class="cls-47" d="M655.09,6700.06c424.78-36.29,497.78-89.29,499.43-91s1.35-.34,1.35,10.66-2.88,12-2.88,12c-129.87,89-471,106.8-471,106.8s-7.1,3.22-11.1-3.78-9-19-14-22S646.24,6700.82,655.09,6700.06Z"/>
            <path class="cls-47" d="M872.87,6864.77s-1,3,1,4,12,2,14,3,9-1,17-5,17-3,19-7,10-4,8-8-16-4-16-4l-38,13Z"/>
            <path class="cls-48" d="M862.87,6854.77s-1,10,6,11,17-2,22-4,33.51-10.49,40.26-8.25,9.74.25,13.74-1.75,11-6,13-6,5-7,1-8-64,2-64,2Z"/>
            <path class="cls-47" d="M840.87,6845.77s0,7,5,7,9,4,10,5,3.38,5,9.19,0,67.87-23.73,94.34-16.37c0,0,2.47,2.37,6.47.37s35-21,40-21,7.74-2.05,6.37-5-18.37-8-18.37-8l-116,21Z"/>
            <path class="cls-48" d="M799.87,6826.77s-3,4,2,6,24,10,28,15,8,4,16-1,110.61-33.21,163.8-31.61c0,0,6.2,2.61,14.2-2.39s30-25,36-27,23-12,10-13-72,10-72,10l-176,34Z"/>
            <path class="cls-47" d="M756.64,6803s5.23,15.73,21.23,18.73,12.29,11.18,24.64,8.09,95.36-23.09,134.36-24.09,118.43-28.18,132.71-33.09,14.29-7.91,18.29-12.91,26-32,29-33,10.11-12.18,4.05-11.09-44.05,33.09-101.05,44.09-144,35-207,37C812.87,6796.77,766.41,6805.31,756.64,6803Z"/>
            <path class="cls-47" d="M868.87,6950.77s17-18,23-18,11-2,11-5,0-5-2-10-1-7.05-5-7.53-16.48.49-22.74,8-6.25,13.52-6.25,13.52,1,14-1,16S867.87,6953.77,868.87,6950.77Z"/>
            <path class="cls-48" d="M915.87,6990.77s-2,10-6,16-2,12,2,16-1,12-7,16-16,12-3,29,17,33,17,37c0,0,14,4,14,13,0,0,4-24-8-40s-1-25,3-29,8-6,8-11-7-11-7-18,5.71-13.38,4.85-23.19-6.85-14.81-6.85-14.81Z"/>
            <path class="cls-48" d="M874.87,6978.77s-7-1-9-12-4-26,2-25,22,10,34,21,22,12,22,12l3,7Z"/>
            <path class="cls-47" d="M874.87,6999.77s7-5,13-4,35-3,39-7,2-12,0-15-8.28-1-17.64,0-29.86,2.57-36.61,1.78-8.75,1.22-5.75,8.22a133.56,133.56,0,0,1,5,14S871.87,7001.77,874.87,6999.77Z"/>
          </g>
          <g>
            <path class="cls-2" d="M1546.45,6267.65c-209,84.82-275,261.55-279.65,357.77-8.94,184.47,249.09,272.9,249.09,272.9s265.37-62.09,274.31-246.56C1794.86,6555.54,1746.27,6372.28,1546.45,6267.65Z"/>
            <g class="cls-50">
              <g>
                <path class="cls-4" d="M1279.94,6552.77c65.5,72.85,245.39,150.78,245.39,150.78s176.35-53.66,258.79-125.62"/>
                <path class="cls-4" d="M1395.94,6366.06c20.69,50.76,123.89,69.28,140.23,114.12,24.51-40.86,137.16-50.92,156.6-99.48"/>
              </g>
            </g>
            <path class="cls-5" d="M1524.89,6775.54c-62-1.56-81.56-63-73.45-4.65,7.5,54,66.92,56.84,70.91,57s58.93,2.86,74.61-50C1613.69,6721.55,1586.82,6778.54,1524.89,6775.54Z"/>
            <path class="cls-6" d="M1481.29,6816c18.44,10.87,38.78,11.86,41.06,12s22.48,1.09,41.79-9c-18.43-10.87-38.78-11.86-41.06-12S1500.6,6805.85,1481.29,6816Z"/>
            <ellipse class="cls-7" cx="1673.29" cy="6620.14" rx="91.16" ry="81.3" transform="translate(-5020.1 7970.99) rotate(-87.23)"/>
            <ellipse class="cls-5" cx="1673.53" cy="6615.22" rx="67.88" ry="60.54" transform="translate(-5014.95 7966.54) rotate(-87.23)"/>
            <ellipse class="cls-7" cx="1716.5" cy="6582.64" rx="20.12" ry="17.94" transform="translate(-4941.52 7978.47) rotate(-87.23)"/>
            <ellipse class="cls-7" cx="1384.63" cy="6606.15" rx="91.16" ry="81.3" transform="translate(-5280.81 7669.35) rotate(-87.23)"/>
            <ellipse class="cls-5" cx="1384.86" cy="6601.23" rx="67.88" ry="60.54" transform="translate(-5275.67 7664.9) rotate(-87.23)"/>
            <ellipse class="cls-7" cx="1427.84" cy="6568.65" rx="20.12" ry="17.94" transform="translate(-5202.23 7676.83) rotate(-87.23)"/>
            <path class="cls-2" d="M1556.71,7042.91c-4.19,18.68-20,23-31.09,22.5-9.4-.46-34-5.93-35.83-77.91-1.47-57.51,20.67-56.52,20.67-56.52s10.51.75,13.71,58.18C1526.47,7030.31,1561.08,7023.41,1556.71,7042.91Z"/>
            <path class="cls-51" d="M1364.3,6252.59s62.24-47.83,81.42-119.87c0,0,68.38-26.77,80.2-46.31,17.36-15.75,67,54.83,67.5,66,0,0,65.67,71.81,78.87,143.33L1387.9,6325.1s26.27-33.66,53.64-95.08c0,0-62.53,42.74-66.89,52.23S1364.3,6252.59,1364.3,6252.59Z"/>
            <path class="cls-52" d="M1407.61,6323.06l10.5-1.08c5.56-15.23,24.54-63.61,45.28-75.21,24.69-13.82,31.61-32.51,31.61-32.51-11.28,5.46-26.31,5.74-26.31,5.74C1489,6194,1495,6172.21,1495,6172.21s-35.14,43.36-53.84,57.47l-1.84,1.85,2.19-1.51c-19.76,44.35-39,74.22-48.09,87.4Z"/>
            <path class="cls-7" d="M1342.08,6388.2c-1.12,7.09-3.06,21.68,11.38,26.74s91.46-2.62,164.51-26.72,163.9-2.28,174.79-.75,16-5.84,19.34-15.47,7.33-59.56-7.13-71.68-39.11-30.73-99-20.95-90.77,6.47-106.9,6.23-72.33,26.22-102.46,25-41.54,3.08-42.11,12.28C1352.82,6348.93,1344,6376.15,1342.08,6388.2Z"/>
            <path class="cls-51" d="M1441.54,6230c-16.53,13.3-62.53,42.74-66.89,52.23s-10.35-29.66-10.35-29.66,62.24-47.83,81.42-119.87c0,0,68.38-26.77,80.2-46.31C1525.92,6086.41,1527.62,6160.77,1441.54,6230Z"/>
            <path class="cls-53" d="M1389.27,6344.71a66,66,0,0,0,12-34.11c-1.62.07-3.19.08-4.69,0-30.13-1.19-41.54,3.08-42.11,12.28-1.09,17.48-5.43,35.49-8.74,49.09C1361.88,6370.14,1378.19,6360.6,1389.27,6344.71Z"/>
            <path class="cls-7" d="M1383,6330.39c-18.63,26.73-52.1,35.6-74.76,19.81-12.94-9-19.55-24.13-19.37-40.42.14-12.22,6.27-37,14.26-48.45,18.63-26.73,49.93-23.73,72.58-7.94S1401.58,6303.65,1383,6330.39Z"/>
          </g>
          <g>
            <path class="cls-2" d="M279.56,6237.88c-204.66,94.82-262,274.54-262,370.88,0,184.68,262,260.54,262,260.54s262.06-74.85,262.07-259.54C541.59,6513.43,484.2,6332.73,279.56,6237.88Z"/>
            <g class="cls-54">
              <g>
                <path class="cls-4" d="M27.14,6535.55c68.94,69.6,252.39,138.75,252.39,138.75s173.55-62.12,252.41-138"/>
                <path class="cls-4" d="M134,6343.45c23.12,49.71,127.09,63.21,145.58,107.22,22.51-42,134.54-57.49,151.61-106.94"/>
              </g>
            </g>
            <circle class="cls-55" cx="280.58" cy="6178.04" r="32"/>
            <rect class="cls-55" x="246.58" y="6172.04" width="68" height="18" rx="3.36"/>
            <path class="cls-5" d="M282.57,6746.22c-62,1.44-84.51-59-73.59-1.1,10.1,53.54,69.59,53.55,73.59,53.55s59,0,72.1-53.53C368.65,6688,344.57,6746.23,282.57,6746.22Z"/>
            <path class="cls-6" d="M241,6788.69c18.94,10,39.31,10,41.6,10s22.5,0,41.3-11c-18.94-10-39.31-10-41.59-10S259.77,6777.67,241,6788.69Z"/>
            <ellipse class="cls-7" cx="423.28" cy="6583.84" rx="81.3" ry="91.16"/>
            <ellipse class="cls-5" cx="423.28" cy="6578.91" rx="60.54" ry="67.88"/>
            <ellipse class="cls-7" cx="464.63" cy="6544.29" rx="17.94" ry="20.12"/>
            <ellipse class="cls-7" cx="134.28" cy="6583.81" rx="81.3" ry="91.16"/>
            <ellipse class="cls-5" cx="134.28" cy="6578.88" rx="60.54" ry="67.88"/>
            <ellipse class="cls-7" cx="175.63" cy="6544.27" rx="17.94" ry="20.12"/>
            <path class="cls-2" d="M327.27,7011.75c-3.28,18.86-18.83,24-30,24-9.42,0-34.24-4.28-39.56-76.09-4.24-57.37,17.92-57.45,17.92-57.45s10.53.24,16.5,57.45C296.45,7000.62,330.7,6992.06,327.27,7011.75Z"/>
            <path class="cls-7" d="M413.58,6749v18l-114,90-27-27s33.4-32.14,66-48c37-18,42.49-12,60-20C409.58,6757,411.58,6752,413.58,6749Z"/>
            <path class="cls-7" d="M404.58,6743v18l-117,81-15-12s18.35-35.26,57-54c33-16,39-13,56-21C399.89,6748.31,402.58,6746,404.58,6743Z"/>
            <path class="cls-7" d="M133.79,6757.55l.14,18,136.5,65-.07-9S242.15,6804.72,209,6790s-38.08-10.71-55.15-19.58S135.81,6760.53,133.79,6757.55Z"/>
            <path class="cls-7" d="M142.74,6750.48l.13,18L263.58,6857l20.77-26.64s-33.65-31.89-66.36-47.49c-37.14-17.72-42.58-11.72-60.16-19.55C146.8,6758.45,144.76,6753.46,142.74,6750.48Z"/>
            <path class="cls-7" d="M151.69,6744.41l.14,18L272.58,6842l11.77-11.64s-18.62-35.12-57.41-53.56c-33.12-15.75-39.1-12.71-56.16-20.58C156.42,6749.64,153.71,6747.39,151.69,6744.41Z"/>
            <path class="cls-7" d="M422.58,6756v18l-136,66v-9s28-27,61-42,38-11,55-20S420.58,6759,422.58,6756Z"/>
            <path class="cls-56" d="M297.58,6979l130-56s4,.09,4-6V6769s0-4-4-2-137,66-137,66Z"/>
            <path class="cls-57" d="M262.68,6978.56l-134.41-52.9s-4,.11-4-6-1.13-148.08-1.13-148.08,0-4,4-2,137.5,65,137.5,65Z"/>
            <path class="cls-57" d="M298.08,6978.58V6838.11a7.48,7.48,0,0,0-7.39-7.57H269.47a7.48,7.48,0,0,0-7.39,7.57V6979a44.07,44.07,0,0,0,18,3.07c4.83,0,9,0,18-3.07Z"/>
            <path class="cls-58" d="M261.58,6876a45,45,0,0,0,18,3c4.83,0,9,0,18-3v-18c-9,3-13.17,3-18,3a45,45,0,0,1-18-3Z"/>
            <path class="cls-58" d="M262.08,6948a45,45,0,0,0,18,3c4.83,0,9,0,18-3v-18c-9,3-13.17,3-18,3a45,45,0,0,1-18-3Z"/>
            <path class="cls-59" d="M261.58,6837a45,45,0,0,0,18,3c4.83,0,9,0,18-3"/>
            <path class="cls-60" d="M310.08,6815.54s-.62-2.75,1.19-3.87a39.11,39.11,0,0,0,4.81-4.13,2.77,2.77,0,0,1,4,0c2,2,21,16,26,27,0,0-10-3-14-3,0,0,2,10-2,17C330.08,6848.54,321.08,6821.54,310.08,6815.54Z"/>
            <path class="cls-61" d="M244.68,6178S238.52,6146,213.91,6115c-22.1-27.81-25.64-113.95,66.67-113.95h.26c92.31,0,88.77,86.14,66.67,113.95-24.62,31-30.77,63.05-30.77,63.05Z"/>
            <ellipse class="cls-62" cx="242" cy="6056.98" rx="20.31" ry="22.77"/>
          </g>
        </g>
        <g>
          <g>
            <path class="cls-2" d="M1528.71,0c-204.66,94.82-262,274.54-262,370.88,0,184.68,262,260.54,262,260.54s262.06-74.85,262.07-259.54C1790.74,275.55,1733.35,94.85,1528.71,0Z"/>
            <g class="cls-63">
              <g>
                <path class="cls-4" d="M1276.29,297.67c68.94,69.6,252.39,138.75,252.39,138.75s173.55-62.12,252.41-138"/>
                <path class="cls-4" d="M1383.13,105.57c23.12,49.71,127.09,63.21,145.58,107.22,22.51-42,134.54-57.49,151.61-106.94"/>
              </g>
            </g>
            <path class="cls-5" d="M1531.45,493.27c29.71-.55,48.28,12.89,59.09,27.49,2.78,3.75,8.58,3.2,5.85-1.44-20.66-35.16-61.41-35.22-64.94-35.22s-43.72.06-63.63,35.21c-3.71,6.54,4,3.41,5.91.85C1485.73,504.16,1502.3,493.26,1531.45,493.27Z"/>
            <path class="cls-2" d="M1576.42,773.87c-3.28,18.86-18.83,24-30,24-9.42,0-34.24-4.28-39.56-76.09-4.24-57.37,17.92-57.45,17.92-57.45s10.53.24,16.5,57.45C1545.6,762.74,1579.85,754.18,1576.42,773.87Z"/>
            <path class="cls-40" d="M1469.73,294.16c-7.1,10.66-28,18.6-54,21-54,5-74-19-97-19-17,0-9-7,1-8,40-4,63,8.45,91,10,36,2,35-3,49-8C1463.94,288.66,1475.73,285.16,1469.73,294.16Z"/>
            <path class="cls-40" d="M1489.73,294.16s-2,9-9,14-3,6,2,3,10-13,10-16S1491.73,287.16,1489.73,294.16Z"/>
            <path d="M1335.73,339.16c13.53,8.33,37,27,52,29,13.91,1.86,24,2,32,1,4.77-.59,6,0,19-9s14-7,18-7c5,0,7,5,2,9-5.63,4.51-25,19-34,19h-42s-6,0-13-5-31.72-22.7-38-34C1327.86,335.19,1334.67,338.51,1335.73,339.16Z"/>
            <path class="cls-40" d="M1589.85,294.16c7.11,10.66,28,18.6,54,21,54,5,74-19,97-19,17,0,9-7-1-8-40-4-63,8.45-91,10-36,2-35-3-49-8C1595.64,288.66,1583.85,285.16,1589.85,294.16Z"/>
            <path class="cls-40" d="M1569.85,294.16s2,9,9,14,3,6-2,3-10-13-10-16S1567.85,287.16,1569.85,294.16Z"/>
            <path d="M1723.85,339.16c-13.53,8.33-37,27-52,29-13.91,1.86-24,2-32,1-4.77-.59-6,0-19-9s-14-7-18-7c-5,0-7,5-2,9,5.63,4.51,25,19,34,19h42s6,0,13-5,31.72-22.7,38-34C1731.73,335.19,1724.92,338.51,1723.85,339.16Z"/>
          </g>
          <g>
            <path class="cls-2" d="M875.17,8.15C678.52,118.61,635.31,302.25,642.8,398.29c14.36,184.13,281.47,239.36,281.47,239.36s255.44-95,241.07-279.14C1157.85,262.46,1086.58,86.78,875.17,8.15Z"/>
            <g class="cls-64">
              <g>
                <path class="cls-4" d="M646.69,324.56c74.15,64,262.42,118.68,262.42,118.68S1077.3,367.8,1150,286"/>
                <path class="cls-4" d="M738.25,124.73c26.92,47.75,131.62,53.13,153.48,95.56,19.18-43.63,129.66-67.79,142.83-118.42"/>
              </g>
            </g>
            <path class="cls-2" d="M913.38,719.64c8.82-44.12,19.44-43.44,19.44-43.44s13.29,11.57,13.29,43.44c0,50.81-34.45,64.59-69.76,64.59-20.43,0-19.81-40.14.49-40.14C885,744.09,908.21,745.48,913.38,719.64Z"/>
            <path class="cls-5" d="M917.19,506.83c60.27-5.67,80.51,40.28,73.44,22-13.54-34.95-70.53-30.63-74.42-30.32s-57,4.51-67.37,41.38C843.82,557.77,856.85,511.54,917.19,506.83Z"/>
            <ellipse class="cls-7" cx="1045.38" cy="341.86" rx="81.3" ry="91.16" transform="translate(-23.42 82.32) rotate(-4.46)"/>
            <ellipse class="cls-5" cx="1045" cy="336.95" rx="60.54" ry="67.88" transform="translate(-23.04 82.28) rotate(-4.46)"/>
            <ellipse class="cls-7" cx="1083.53" cy="299.22" rx="17.94" ry="20.12" transform="translate(-19.99 85.16) rotate(-4.46)"/>
            <ellipse class="cls-7" cx="757.26" cy="364.34" rx="85.37" ry="95.72" transform="translate(-26.04 59.99) rotate(-4.46)"/>
            <ellipse class="cls-5" cx="756.86" cy="359.18" rx="63.56" ry="71.27" transform="translate(-25.64 59.94) rotate(-4.46)"/>
            <ellipse class="cls-7" cx="816.58" cy="337.02" rx="18.84" ry="21.12" transform="translate(-23.73 64.52) rotate(-4.46)"/>
            <ellipse class="cls-7" cx="993.21" cy="324.31" rx="17.94" ry="20.12" transform="translate(-22.21 78.21) rotate(-4.46)"/>
            <path class="cls-2" d="M771.34,258.52c-61.4,4.79-107.26,58.9-102.93,114.39a91.92,91.92,0,0,0,7.66,30.24c39.87-16,129-55.36,185.67-108.22C839.57,273.39,806.59,255.77,771.34,258.52Z"/>
            <path class="cls-2" d="M1016.85,244.34c58.47-4.57,109.61,39.56,113.75,92.41a87.6,87.6,0,0,1-2.75,29.58c-39.87-9.14-129.54-33-190.68-74.37C954.85,268.41,983.27,247,1016.85,244.34Z"/>
          </g>
          <g>
            <path class="cls-2" d="M269.28,6.59c-204.65,94.82-262,274.54-262,370.88,0,184.68,262,260.54,262,260.54S531.29,563.16,531.3,378.48C531.31,282.14,473.92,101.45,269.28,6.59Z"/>
            <g class="cls-65">
              <g>
                <path class="cls-4" d="M16.86,304.26C85.8,373.86,269.25,443,269.25,443S442.8,380.89,521.67,305"/>
                <path class="cls-4" d="M123.7,112.16c23.12,49.71,127.09,63.22,145.58,107.22,22.51-42,134.54-57.49,151.61-106.94"/>
              </g>
            </g>
            <path class="cls-2" d="M216.6,782c3.3,19,19,24.12,30.15,24.12,9.47,0,34.45-4.31,39.79-76.55,4.28-57.71-18-57.8-18-57.8s-10.6.24-16.61,57.8C247.61,770.76,213.16,762.15,216.6,782Z"/>
            <path class="cls-5" d="M272.42,500.39c-69.07,1.43-94.25-43.39-82.08,14.16,11.24,53.18,77.51,53.19,82,53.19s65.72,0,80.31-53.18C368.2,457.8,341.48,500.4,272.42,500.39Z"/>
            <ellipse class="cls-7" cx="413" cy="352.55" rx="81.3" ry="91.16"/>
            <ellipse class="cls-5" cx="408" cy="352.62" rx="60.54" ry="67.88"/>
            <ellipse class="cls-7" cx="449.36" cy="318" rx="17.94" ry="20.12"/>
            <ellipse class="cls-7" cx="124" cy="352.52" rx="81.3" ry="91.16"/>
            <ellipse class="cls-5" cx="129" cy="352.6" rx="60.54" ry="67.88"/>
            <ellipse class="cls-7" cx="170.36" cy="317.98" rx="17.94" ry="20.12"/>
            <path class="cls-2" d="M181,417.47s-96.89-31.21-127.77-20,27.12,63.24,27.12,63.24l69,15S206.69,446.21,181,417.47Z"/>
            <path class="cls-2" d="M355.82,417.47s96.89-31.21,127.77-20-27.12,63.24-27.12,63.24l-69,15S330.17,446.21,355.82,417.47Z"/>
            <g class="cls-66">
              <path class="cls-6" d="M271.89,614.39C341,613,366.14,657.79,354,600.24c-11.24-53.18-77.51-53.19-82-53.19s-65.73,0-80.32,53.18C176.11,657,202.83,614.39,271.89,614.39Z"/>
            </g>
          </g>
        </g>
      </g>
    </g>
  </g>
</svg>
