<svg id="Layer_1" data-name="Layer 1" xmlns="http://www.w3.org/2000/svg" xmlns:xlink="http://www.w3.org/1999/xlink" viewBox="0 0 2997 1300">
  <defs>
    <style>
      .cls-1, .cls-4 {
        fill: none;
      }

      .cls-2 {
        fill: #4db97c;
      }

      .cls-3 {
        clip-path: url(#clip-path);
      }

      .cls-4 {
        stroke: #42a16c;
        stroke-linecap: round;
        stroke-linejoin: round;
        stroke-width: 6px;
      }

      .cls-5 {
        fill: #ebf5f0;
      }

      .cls-6 {
        fill: #020202;
      }

      .cls-7 {
        clip-path: url(#clip-path-2);
      }

      .cls-8 {
        fill: #cf745f;
      }

      .cls-9 {
        fill: #fff;
      }

      .cls-10 {
        clip-path: url(#clip-path-3);
      }

      .cls-11 {
        clip-path: url(#clip-path-4);
      }

      .cls-12 {
        clip-path: url(#clip-path-5);
      }
    </style>
    <clipPath id="clip-path">
      <path class="cls-1" d="M1834.15,379.69c-204.66,94.82-262,274.54-262,370.87,0,184.69,262,260.54,262,260.54s262.05-74.85,262.07-259.53C2096.18,655.23,2038.79,474.54,1834.15,379.69Z"/>
    </clipPath>
    <clipPath id="clip-path-2">
      <path class="cls-1" d="M2505.43,379.5c-204.65,94.82-262,274.54-262,370.87,0,184.69,262,260.55,262,260.55s262.06-74.85,262.07-259.54C2767.46,655.05,2710.07,474.35,2505.43,379.5Z"/>
    </clipPath>
    <clipPath id="clip-path-3">
      <path class="cls-1" d="M1134.06,384C937.41,494.47,894.2,678.11,901.69,774.15c14.36,184.13,281.47,239.36,281.47,239.36s255.44-95,241.08-279.14C1416.74,638.32,1345.47,462.65,1134.06,384Z"/>
    </clipPath>
    <clipPath id="clip-path-4">
      <path class="cls-1" d="M491.58,382.45c-204.66,94.82-262,274.54-262,370.88,0,184.68,262,260.54,262,260.54S753.59,939,753.6,754.34C753.61,658,696.22,477.31,491.58,382.45Z"/>
    </clipPath>
    <clipPath id="clip-path-5">
      <path class="cls-1" d="M494.72,876.26c-69.07,1.42-94.25-43.4-82.08,14.15,11.24,53.18,77.51,53.19,82,53.19s65.73,0,80.32-53.18C590.5,833.66,563.78,876.26,494.72,876.26Z"/>
    </clipPath>
  </defs>
  <g>
    <g>
      <path class="cls-2" d="M1834.15,379.69c-204.66,94.82-262,274.54-262,370.87,0,184.69,262,260.54,262,260.54s262.05-74.85,262.07-259.53C2096.18,655.23,2038.79,474.54,1834.15,379.69Z"/>
      <g class="cls-3">
        <g>
          <path class="cls-4" d="M1581.73,677.36c68.94,69.6,252.38,138.74,252.38,138.74s173.56-62.11,252.42-138"/>
          <path class="cls-4" d="M1688.57,485.26c23.12,49.7,127.09,63.21,145.58,107.21,22.51-42,134.54-57.49,151.61-106.94"/>
        </g>
      </g>
      <ellipse class="cls-5" cx="1977.87" cy="725.64" rx="81.3" ry="91.16"/>
      <ellipse class="cls-6" cx="1982.87" cy="715.71" rx="54.48" ry="61.09"/>
      <ellipse class="cls-5" cx="2024.22" cy="681.1" rx="17.94" ry="20.12"/>
      <ellipse class="cls-5" cx="1688.87" cy="725.62" rx="81.3" ry="91.16"/>
      <ellipse class="cls-6" cx="1688.87" cy="715.69" rx="54.48" ry="61.09"/>
      <ellipse class="cls-5" cx="1730.22" cy="681.08" rx="17.94" ry="20.12"/>
      <path class="cls-2" d="M1881.86,1153.55c-3.28,18.86-18.83,24-30,24-9.42,0-34.24-4.28-39.56-76.09-4.25-57.36,17.92-57.45,17.92-57.45s10.53.25,16.5,57.45C1851,1142.42,1885.29,1133.86,1881.86,1153.55Z"/>
      <path d="M1912.67,915.42c-55.29-30-92-33.26-105.19-33.26l-1.48,0h-.51c-13.11,0-21.91,26.64-26.14,39.45l-.57,1.71a2.36,2.36,0,0,0,0,2.12,1.24,1.24,0,0,0,1,.51c1.58,0,4.22-3.25,4.46-3.66,7.43-13,13.86-19.69,17.94-23s6.74-4,7.08-4.1c1.15-.08,2.41-.12,3.74-.12,15.06,0,37.67,5.09,54,9.36,20.07,5.26,38.24,11.26,46.63,14.61a2.17,2.17,0,0,0,.83.17,1.16,1.16,0,0,0,1.19-.85C1915.91,917.49,1915.21,916.79,1912.67,915.42Z"/>
    </g>
    <g>
      <path class="cls-2" d="M2505.43,379.5c-204.65,94.82-262,274.54-262,370.87,0,184.69,262,260.55,262,260.55s262.06-74.85,262.07-259.54C2767.46,655.05,2710.07,474.35,2505.43,379.5Z"/>
      <g class="cls-7">
        <g>
          <path class="cls-4" d="M2253,677.17c68.94,69.6,252.39,138.75,252.39,138.75s173.55-62.12,252.42-138"/>
          <path class="cls-4" d="M2359.85,485.07c23.12,49.7,127.09,63.21,145.58,107.21,22.51-42,134.54-57.49,151.61-106.93"/>
        </g>
      </g>
      <ellipse class="cls-5" cx="2649.15" cy="725.45" rx="81.3" ry="91.16"/>
      <ellipse class="cls-6" cx="2649.15" cy="720.53" rx="54.48" ry="61.09"/>
      <ellipse class="cls-5" cx="2686.37" cy="689.37" rx="16.15" ry="18.1"/>
      <ellipse class="cls-5" cx="2360.15" cy="725.43" rx="81.3" ry="91.16"/>
      <ellipse class="cls-6" cx="2360.15" cy="720.5" rx="54.48" ry="61.09"/>
      <ellipse class="cls-6" cx="2505.15" cy="883.5" rx="45.7" ry="51.23"/>
      <ellipse class="cls-5" cx="2397.37" cy="689.35" rx="16.15" ry="18.1"/>
      <path class="cls-2" d="M2553.15,1153.37c-3.28,18.85-18.84,24-30,24-9.41,0-34.24-4.29-39.56-76.1-4.24-57.36,17.92-57.45,17.92-57.45s10.53.25,16.51,57.46C2522.33,1142.24,2556.57,1133.68,2553.15,1153.37Z"/>
      <path class="cls-8" d="M2505.16,895.27c-14.64,0-27.67,7.73-36,19.73,8.36,12,21.38,19.73,36,19.74s27.66-7.73,36-19.74C2532.82,903,2519.8,895.27,2505.16,895.27Z"/>
      <path class="cls-9" d="M2569,172.17c5.41,37.76-18.61,55.08-36.26,67.48-15.92,11.53-20.36,21.41-17.41,42l-46.82,6.72c-4.55-31.72,8.25-62.84,35.64-82.49,13.72-9.68,18.6-14.38,16.9-26.17-.6-4.22-4.62-19.37-35.14-15-25.37,3.64-35.8,23.33-38.55,38.52l-45.79-7.61c2.71-15.5,16.52-67.42,77.84-76.22,33.54-4.81,54.95,4.75,66.09,13.64C2558,142.92,2566.76,156.76,2569,172.17Z"/>
      <path class="cls-9" d="M2494.73,301.51c-13.59,1.95-23.17,14.73-21.3,27.72,1.9,13.29,14.64,22.56,28.24,20.61s23.81-14.51,21.9-27.8C2521.71,309.05,2508.32,299.56,2494.73,301.51Z"/>
    </g>
    <g>
      <path class="cls-2" d="M1134.06,384C937.41,494.47,894.2,678.11,901.69,774.15c14.36,184.13,281.47,239.36,281.47,239.36s255.44-95,241.08-279.14C1416.74,638.32,1345.47,462.65,1134.06,384Z"/>
      <g class="cls-10">
        <g>
          <path class="cls-4" d="M905.58,700.42C979.73,764.45,1168,819.1,1168,819.1s168.19-75.44,240.91-157.21"/>
          <path class="cls-4" d="M997.14,500.59c26.92,47.75,131.62,53.13,153.48,95.56,19.18-43.63,129.66-67.79,142.83-118.42"/>
        </g>
      </g>
      <path class="cls-2" d="M1172.27,1095.5c8.82-44.12,19.44-43.43,19.44-43.43s13.29,11.56,13.29,43.43c0,50.81-34.45,64.59-69.76,64.59-20.43,0-19.81-40.14.49-40.14C1143.92,1120,1167.1,1121.34,1172.27,1095.5Z"/>
      <path class="cls-6" d="M1176.08,882.69c60.27-5.67,80.51,40.28,73.44,22C1236,869.78,1179,874.1,1175.1,874.4s-57,4.52-67.37,41.38C1102.71,933.63,1115.74,887.4,1176.08,882.69Z"/>
      <ellipse class="cls-5" cx="1304.27" cy="717.73" rx="81.3" ry="91.16" transform="matrix(1, -0.08, 0.08, 1, -51.86, 103.59)"/>
      <ellipse class="cls-6" cx="1303.89" cy="712.81" rx="60.54" ry="67.88" transform="matrix(1, -0.08, 0.08, 1, -51.48, 103.55)"/>
      <ellipse class="cls-5" cx="1342.42" cy="675.08" rx="17.94" ry="20.12" transform="translate(-48.43 106.43) rotate(-4.46)"/>
      <ellipse class="cls-5" cx="1016.15" cy="740.2" rx="85.37" ry="95.72" transform="translate(-54.48 81.26) rotate(-4.46)"/>
      <ellipse class="cls-6" cx="1015.75" cy="735.04" rx="63.56" ry="71.27" transform="translate(-54.08 81.21) rotate(-4.46)"/>
      <ellipse class="cls-5" cx="1075.47" cy="712.88" rx="18.84" ry="21.12" transform="translate(-52.18 85.79) rotate(-4.46)"/>
      <ellipse class="cls-5" cx="1252.1" cy="700.17" rx="17.94" ry="20.12" transform="translate(-50.65 99.48) rotate(-4.46)"/>
      <path class="cls-2" d="M1030.23,634.38c-61.4,4.79-107.26,58.9-102.93,114.39A91.92,91.92,0,0,0,935,779c39.87-16,129-55.36,185.67-108.21C1098.46,649.25,1065.48,631.63,1030.23,634.38Z"/>
      <path class="cls-2" d="M1275.74,620.2c58.47-4.57,109.61,39.56,113.75,92.41a87.6,87.6,0,0,1-2.75,29.58c-39.87-9.14-129.54-33-190.68-74.37C1213.74,644.27,1242.16,622.83,1275.74,620.2Z"/>
    </g>
    <g>
      <path class="cls-2" d="M491.58,382.45c-204.66,94.82-262,274.54-262,370.88,0,184.68,262,260.54,262,260.54S753.59,939,753.6,754.34C753.61,658,696.22,477.31,491.58,382.45Z"/>
      <g class="cls-11">
        <g>
          <path class="cls-4" d="M239.16,680.12c68.94,69.6,252.39,138.75,252.39,138.75S665.1,756.75,744,680.88"/>
          <path class="cls-4" d="M346,488c23.12,49.71,127.09,63.22,145.58,107.22,22.51-42,134.54-57.49,151.61-106.94"/>
        </g>
      </g>
      <path class="cls-2" d="M438.9,1157.82c3.3,19,19,24.11,30.15,24.11,9.47,0,34.45-4.3,39.79-76.55,4.28-57.71-18-57.8-18-57.8s-10.6.25-16.61,57.8C469.91,1146.62,435.46,1138,438.9,1157.82Z"/>
      <path class="cls-6" d="M494.72,876.26c-69.07,1.42-94.25-43.4-82.08,14.15,11.24,53.18,77.51,53.19,82,53.19s65.73,0,80.32-53.18C590.5,833.66,563.78,876.26,494.72,876.26Z"/>
      <ellipse class="cls-5" cx="635.3" cy="728.41" rx="81.3" ry="91.16"/>
      <ellipse class="cls-6" cx="630.3" cy="728.48" rx="60.54" ry="67.88"/>
      <ellipse class="cls-5" cx="671.66" cy="693.87" rx="17.94" ry="20.12"/>
      <ellipse class="cls-5" cx="346.3" cy="728.38" rx="81.3" ry="91.16"/>
      <ellipse class="cls-6" cx="351.3" cy="728.46" rx="60.54" ry="67.88"/>
      <ellipse class="cls-5" cx="392.66" cy="693.84" rx="17.94" ry="20.12"/>
      <path class="cls-2" d="M403.34,793.34s-96.89-31.22-127.77-20,27.12,63.24,27.12,63.24l69,15S429,822.07,403.34,793.34Z"/>
      <path class="cls-2" d="M578.12,793.34s96.89-31.22,127.77-20-27.12,63.24-27.12,63.24l-69,15S552.47,822.07,578.12,793.34Z"/>
      <g class="cls-12">
        <path class="cls-8" d="M494.19,990.26c69.07-1.43,94.25,43.39,82.08-14.16-11.24-53.18-77.51-53.19-82-53.19s-65.72,0-80.31,53.18C398.41,1032.85,425.13,990.25,494.19,990.26Z"/>
      </g>
    </g>
  </g>
</svg>
