<?xml version="1.0" encoding="utf-8"?>
<!-- Generator: Adobe Illustrator 25.0.1, SVG Export Plug-In . SVG Version: 6.00 Build 0)  -->
<svg version="1.1" id="Layer_1" xmlns="http://www.w3.org/2000/svg" xmlns:xlink="http://www.w3.org/1999/xlink" x="0px" y="0px"
	 viewBox="0 0 2997 1300" style="enable-background:new 0 0 2997 1300;" xml:space="preserve">
<style type="text/css">
	.st0{fill:#4DB97C;}
	.st1{clip-path:url(#SVGID_2_);}
	.st2{fill:none;stroke:#42A16C;stroke-width:6;stroke-linecap:round;stroke-linejoin:round;}
	.st3{fill:#EBF5F0;}
	.st4{fill:#020202;}
	.st5{clip-path:url(#SVGID_4_);}
	.st6{fill:#CF745F;}
	.st7{fill:#FFFFFF;}
	.st8{clip-path:url(#SVGID_6_);}
	.st9{clip-path:url(#SVGID_8_);}
	.st10{clip-path:url(#SVGID_10_);}
</style>
<g>
	<g>
		<path class="st0" d="M1834.2,379.7c-204.7,94.8-262,274.5-262,370.9c0,184.7,262,260.5,262,260.5s262-74.8,262.1-259.5
			C2096.2,655.2,2038.8,474.5,1834.2,379.7z"/>
		<g>
			<defs>
				<path id="SVGID_1_" d="M1834.2,379.7c-204.7,94.8-262,274.5-262,370.9c0,184.7,262,260.5,262,260.5s262-74.8,262.1-259.5
					C2096.2,655.2,2038.8,474.5,1834.2,379.7z"/>
			</defs>
			<clipPath id="SVGID_2_">
				<use xlink:href="#SVGID_1_"  style="overflow:visible;"/>
			</clipPath>
			<g class="st1">
				<g>
					<path class="st2" d="M1581.7,677.4c68.9,69.6,252.4,138.7,252.4,138.7s173.6-62.1,252.4-138"/>
					<path class="st2" d="M1688.6,485.3c23.1,49.7,127.1,63.2,145.6,107.2c22.5-42,134.5-57.5,151.6-106.9"/>
				</g>
			</g>
		</g>
		<ellipse class="st3" cx="1977.9" cy="725.6" rx="81.3" ry="91.2"/>
		<ellipse class="st4" cx="1982.9" cy="715.7" rx="54.5" ry="61.1"/>
		<ellipse class="st3" cx="2024.2" cy="681.1" rx="17.9" ry="20.1"/>
		<ellipse class="st3" cx="1688.9" cy="725.6" rx="81.3" ry="91.2"/>
		<ellipse class="st4" cx="1688.9" cy="715.7" rx="54.5" ry="61.1"/>
		<ellipse class="st3" cx="1730.2" cy="681.1" rx="17.9" ry="20.1"/>
		<path class="st0" d="M1881.9,1153.6c-3.3,18.9-18.8,24-30,24c-9.4,0-34.2-4.3-39.6-76.1c-4.2-57.4,17.9-57.4,17.9-57.4
			s10.5,0.2,16.5,57.4C1851,1142.4,1885.3,1133.9,1881.9,1153.6z"/>
		<path d="M1912.7,915.4c-55.3-30-92-33.3-105.2-33.3h-1.5h-0.5c-13.1,0-21.9,26.6-26.1,39.5l-0.6,1.7c-0.3,0.7-0.3,1.5,0,2.1
			c0.2,0.3,0.6,0.5,1,0.5c1.6,0,4.2-3.2,4.5-3.7c7.4-13,13.9-19.7,17.9-23s6.7-4,7.1-4.1c1.2-0.1,2.4-0.1,3.7-0.1
			c15.1,0,37.7,5.1,54,9.4c20.1,5.3,38.2,11.3,46.6,14.6c0.3,0.1,0.5,0.2,0.8,0.2c0.5,0,1-0.3,1.2-0.8
			C1915.9,917.5,1915.2,916.8,1912.7,915.4z"/>
	</g>
	<g>
		<path class="st0" d="M2505.4,379.5c-204.6,94.8-262,274.5-262,370.9c0,184.7,262,260.5,262,260.5s262.1-74.8,262.1-259.5
			C2767.5,655,2710.1,474.4,2505.4,379.5z"/>
		<g>
			<defs>
				<path id="SVGID_3_" d="M2505.4,379.5c-204.6,94.8-262,274.5-262,370.9c0,184.7,262,260.5,262,260.5s262.1-74.8,262.1-259.5
					C2767.5,655,2710.1,474.4,2505.4,379.5z"/>
			</defs>
			<clipPath id="SVGID_4_">
				<use xlink:href="#SVGID_3_"  style="overflow:visible;"/>
			</clipPath>
			<g class="st5">
				<g>
					<path class="st2" d="M2253,677.2c68.9,69.6,252.4,138.8,252.4,138.8s173.6-62.1,252.4-138"/>
					<path class="st2" d="M2359.9,485.1c23.1,49.7,127.1,63.2,145.6,107.2c22.5-42,134.5-57.5,151.6-106.9"/>
				</g>
			</g>
		</g>
		<ellipse class="st3" cx="2649.1" cy="725.5" rx="81.3" ry="91.2"/>
		<ellipse class="st4" cx="2649.1" cy="720.5" rx="54.5" ry="61.1"/>
		<ellipse class="st3" cx="2686.4" cy="689.4" rx="16.1" ry="18.1"/>
		<ellipse class="st3" cx="2360.1" cy="725.4" rx="81.3" ry="91.2"/>
		<ellipse class="st4" cx="2360.1" cy="720.5" rx="54.5" ry="61.1"/>
		<ellipse class="st4" cx="2505.1" cy="883.5" rx="45.7" ry="51.2"/>
		<ellipse class="st3" cx="2397.4" cy="689.3" rx="16.1" ry="18.1"/>
		<path class="st0" d="M2553.1,1153.4c-3.3,18.8-18.8,24-30,24c-9.4,0-34.2-4.3-39.6-76.1c-4.2-57.4,17.9-57.4,17.9-57.4
			s10.5,0.2,16.5,57.5C2522.3,1142.2,2556.6,1133.7,2553.1,1153.4z"/>
		<path class="st6" d="M2505.2,895.3c-14.6,0-27.7,7.7-36,19.7c8.4,12,21.4,19.7,36,19.7s27.7-7.7,36-19.7
			C2532.8,903,2519.8,895.3,2505.2,895.3z"/>
		<path class="st7" d="M2569,172.2c5.4,37.8-18.6,55.1-36.3,67.5c-15.9,11.5-20.4,21.4-17.4,42l-46.8,6.7
			c-4.6-31.7,8.2-62.8,35.6-82.5c13.7-9.7,18.6-14.4,16.9-26.2c-0.6-4.2-4.6-19.4-35.1-15c-25.4,3.6-35.8,23.3-38.6,38.5l-45.8-7.6
			c2.7-15.5,16.5-67.4,77.8-76.2c33.5-4.8,54.9,4.8,66.1,13.6C2558,142.9,2566.8,156.8,2569,172.2z"/>
		<path class="st7" d="M2494.7,301.5c-13.6,2-23.2,14.7-21.3,27.7c1.9,13.3,14.6,22.6,28.2,20.6s23.8-14.5,21.9-27.8
			C2521.7,309,2508.3,299.6,2494.7,301.5z"/>
	</g>
	<g>
		<path class="st0" d="M1134.1,384C937.4,494.5,894.2,678.1,901.7,774.2c14.4,184.1,281.5,239.4,281.5,239.4s255.4-95,241.1-279.1
			C1416.7,638.3,1345.5,462.6,1134.1,384z"/>
		<g>
			<defs>
				<path id="SVGID_5_" d="M1134.1,384C937.4,494.5,894.2,678.1,901.7,774.2c14.4,184.1,281.5,239.4,281.5,239.4
					s255.4-95,241.1-279.1C1416.7,638.3,1345.5,462.6,1134.1,384z"/>
			</defs>
			<clipPath id="SVGID_6_">
				<use xlink:href="#SVGID_5_"  style="overflow:visible;"/>
			</clipPath>
			<g class="st8">
				<g>
					<path class="st2" d="M905.6,700.4c74.1,64,262.4,118.7,262.4,118.7s168.2-75.4,240.9-157.2"/>
					<path class="st2" d="M997.1,500.6c26.9,47.7,131.6,53.1,153.5,95.6c19.2-43.6,129.7-67.8,142.8-118.4"/>
				</g>
			</g>
		</g>
		<path class="st0" d="M1172.3,1095.5c8.8-44.1,19.4-43.4,19.4-43.4s13.3,11.6,13.3,43.4c0,50.8-34.4,64.6-69.8,64.6
			c-20.4,0-19.8-40.1,0.5-40.1C1143.9,1120,1167.1,1121.3,1172.3,1095.5z"/>
		<path class="st4" d="M1176.1,882.7c60.3-5.7,80.5,40.3,73.4,22c-13.5-34.9-70.5-30.6-74.4-30.3s-57,4.5-67.4,41.4
			C1102.7,933.6,1115.7,887.4,1176.1,882.7z"/>
		
			<ellipse transform="matrix(0.9968 -7.974522e-02 7.974522e-02 0.9968 -53.0042 106.7359)" class="st3" cx="1309.8" cy="717" rx="81.6" ry="91.5"/>
		
			<ellipse transform="matrix(0.9968 -7.974522e-02 7.974522e-02 0.9968 -52.6123 106.6888)" class="st4" cx="1309.4" cy="712" rx="60.7" ry="68.1"/>
		
			<ellipse transform="matrix(0.997 -7.776310e-02 7.776310e-02 0.997 -48.4309 106.4351)" class="st3" cx="1342.4" cy="675.1" rx="17.9" ry="20.1"/>
		
			<ellipse transform="matrix(0.997 -7.776310e-02 7.776310e-02 0.997 -54.4832 81.2606)" class="st3" cx="1016.2" cy="740.2" rx="85.4" ry="95.7"/>
		
			<ellipse transform="matrix(0.997 -7.776414e-02 7.776414e-02 0.997 -54.0835 81.215)" class="st4" cx="1015.8" cy="735" rx="63.6" ry="71.3"/>
		
			<ellipse transform="matrix(0.997 -7.776310e-02 7.776310e-02 0.997 -52.179 85.7905)" class="st3" cx="1075.5" cy="712.9" rx="18.8" ry="21.1"/>
		
			<ellipse transform="matrix(0.997 -7.776310e-02 7.776310e-02 0.997 -50.6553 99.4878)" class="st3" cx="1252.1" cy="700.2" rx="17.9" ry="20.1"/>
		<path class="st0" d="M1029.1,620.3c-70,5.5-122.2,67.1-117.3,130.3c0.9,11.9,3.9,23.5,8.8,34.4c45.4-18.2,147-63.1,211.5-123.3
			C1106.9,637.3,1069.3,617.2,1029.1,620.3z"/>
		<path class="st0" d="M1284.1,602.4c67.5-5.3,126.5,45.7,131.3,106.7c0.9,11.5-0.2,23-3.2,34.1c-46-10.6-149.5-38.1-220.1-85.8
			C1212.6,630.2,1245.4,605.4,1284.1,602.4z"/>
	</g>
	<g>
		<path class="st0" d="M491.6,382.5c-204.7,94.8-262,274.5-262,370.9c0,184.7,262,260.5,262,260.5s262-74.9,262-259.5
			C753.6,658,696.2,477.3,491.6,382.5z"/>
		<g>
			<defs>
				<path id="SVGID_7_" d="M491.6,382.5c-204.7,94.8-262,274.5-262,370.9c0,184.7,262,260.5,262,260.5s262-74.9,262-259.5
					C753.6,658,696.2,477.3,491.6,382.5z"/>
			</defs>
			<clipPath id="SVGID_8_">
				<use xlink:href="#SVGID_7_"  style="overflow:visible;"/>
			</clipPath>
			<g class="st9">
				<g>
					<path class="st2" d="M239.2,680.1c68.9,69.6,252.4,138.8,252.4,138.8s173.5-62.1,252.5-138"/>
					<path class="st2" d="M346,488c23.1,49.7,127.1,63.2,145.6,107.2c22.5-42,134.5-57.5,151.6-106.9"/>
				</g>
			</g>
		</g>
		<path class="st0" d="M438.9,1157.8c3.3,19,19,24.1,30.1,24.1c9.5,0,34.5-4.3,39.8-76.6c4.3-57.7-18-57.8-18-57.8
			s-10.6,0.2-16.6,57.8C469.9,1146.6,435.5,1138,438.9,1157.8z"/>
		<path class="st4" d="M494.7,876.3c-69.1,1.4-94.2-43.4-82.1,14.2c11.2,53.2,77.5,53.2,82,53.2s65.7,0,80.3-53.2
			C590.5,833.7,563.8,876.3,494.7,876.3z"/>
		<ellipse class="st3" cx="635.3" cy="728.4" rx="81.3" ry="91.2"/>
		<ellipse class="st4" cx="630.3" cy="728.5" rx="60.5" ry="67.9"/>
		<ellipse class="st3" cx="671.7" cy="693.9" rx="17.9" ry="20.1"/>
		<ellipse class="st3" cx="346.3" cy="728.4" rx="81.3" ry="91.2"/>
		<ellipse class="st4" cx="351.3" cy="728.5" rx="60.5" ry="67.9"/>
		<ellipse class="st3" cx="392.7" cy="693.8" rx="17.9" ry="20.1"/>
		<path class="st0" d="M403.3,793.3c0,0-96.9-31.2-127.8-20s27.1,63.2,27.1,63.2l69,15C371.7,851.6,429,822.1,403.3,793.3z"/>
		<path class="st0" d="M578.1,793.3c0,0,96.9-31.2,127.8-20s-27.1,63.2-27.1,63.2l-69,15C609.8,851.6,552.5,822.1,578.1,793.3z"/>
		<g>
			<defs>
				<path id="SVGID_9_" d="M494.7,876.3c-69.1,1.4-94.2-43.4-82.1,14.2c11.2,53.2,77.5,53.2,82,53.2s65.7,0,80.3-53.2
					C590.5,833.7,563.8,876.3,494.7,876.3z"/>
			</defs>
			<clipPath id="SVGID_10_">
				<use xlink:href="#SVGID_9_"  style="overflow:visible;"/>
			</clipPath>
			<g class="st10">
				<path class="st6" d="M494.2,990.3c69.1-1.4,94.2,43.4,82.1-14.2c-11.2-53.2-77.5-53.2-82-53.2s-65.7,0-80.3,53.2
					C398.4,1032.8,425.1,990.2,494.2,990.3z"/>
			</g>
		</g>
	</g>
</g>
</svg>
