<svg id="Layer_1" data-name="Layer 1" xmlns="http://www.w3.org/2000/svg" xmlns:xlink="http://www.w3.org/1999/xlink" viewBox="0 0 1398 1812">
  <defs>
    <style>
      .cls-1 {
        fill: #4db97c;
      }

      .cls-2, .cls-8 {
        fill: none;
        stroke-linejoin: round;
        stroke-width: 3px;
      }

      .cls-2 {
        stroke: #42a16c;
      }

      .cls-3 {
        fill: #020202;
      }

      .cls-4 {
        fill: #ebf5f0;
      }

      .cls-5 {
        fill: #c8705c;
      }

      .cls-6 {
        fill: #01bf91;
      }

      .cls-7 {
        fill: url(#Old_Finn_Gradient2);
      }

      .cls-8 {
        stroke: #00aa79;
      }
    </style>
    <linearGradient id="Old_Finn_Gradient2" data-name="Old Finn Gradient2" x1="723.3" y1="1637.76" x2="723.3" y2="1335.45" gradientTransform="matrix(1, 0, 0, 1, -39.72, -55.56)" gradientUnits="userSpaceOnUse">
      <stop offset="0" stop-color="#01bf91"/>
      <stop offset="1" stop-color="#2ddc8d"/>
    </linearGradient>
  </defs>
  <g>
    <g>
      <path class="cls-1" d="M679.82,851.7S686,847.09,692.15,887,726,920.76,726,936.12s-15.34,21.52-21.48,21.53-32.25,1.57-38.46-53.71S679.82,851.7,679.82,851.7Z"/>
      <path class="cls-1" d="M677.49,821.75S891.17,752,899.3,597.38c4.54-86.3-62.64-271.9-251.64-340.8,0,0-215.65,105.42-210.8,332.76C440.1,741.39,561.48,779.65,677.49,821.75Z"/>
      <path class="cls-2" d="M887.63,516.15c-33.06,32.78-125.14,92.79-224.94,126.69,0,0-53.42,2.16-219.61-126.18"/>
      <path class="cls-2" d="M524.14,355.78s26.16,46.05,73.79,59.82,61.46,21.43,63,30.65c0,0,7.67-10.76,32.24-20,43.79-16.47,79.81-44.63,93.59-81.5"/>
      <path class="cls-3" d="M839.76,568.34c-.06,13.15-5.11,27.91-14.32,41.69-7.57,11.33-17.58,18.19-30.78,20.12-15,2.19-27.51-3.34-37.25-14.61-13.59-15.72-17.71-34.41-15.43-54.67,1.86-16.53,7.9-31.26,20-43.13,14.6-14.35,33-17,50.55-7.6,2.6,1.4,3.12,2.26.64,4.32-3.22,2.66-6.06,5.66-7.37,9.89-1.85,5.94,0,10.17,6.19,13.28,5,2.53,9.6,1.14,12.88-3.93,1.3-2,1.66-5.63,4.56-5.31,2.35.26,2.5,3.72,3.47,5.77C837.51,543.88,839.42,554.25,839.76,568.34Z"/>
      <path class="cls-3" d="M735.24,718.27c-8.22,13.66-19.66,23.45-35,28-12.53,3.65-25.3,3.27-38,.3-3.78-.88-7.55-1.92-11.24-3.15-12.65-4.23-20.67-13.66-27.21-24.66-1.07-1.78-2-3.66-2.95-5.49-1.91-6.81-3.84-13.62-5.71-20.44a10.28,10.28,0,0,1,.09-6.58c.88-2.13,1.89-4.1,5.08-1.42,6.69,5.64,15.12,7.74,23.51,9.1,25,4,49.42,2.79,72.75-8.09a59.49,59.49,0,0,0,20.34-15c1-1.2,1.93-2,3.44-1.66s1.43,1.86,1.6,3a77.22,77.22,0,0,1-4.49,39.37C736.59,713.74,736,716,735.24,718.27Zm-56,25.9c1.26,0,2.52.06,3.77,0,12.66-.71,25.06-2.19,35.14-11.14,3.6-3.18,3.69-3.33-.46-5.49-13-6.79-26.93-8.06-41.12-5.59-9.63,1.67-18.16,6.2-25.7,12.48-2.22,1.85-2.54,3.14.67,4.13C660.59,741.35,669.48,744.88,679.24,744.17Z"/>
      <path class="cls-4" d="M621.81,569.87c0,39.92-28.76,73.67-67.6,79.39-29.35,4.33-61.68-11.84-78.24-39.13-19.64-32.38-17.53-72.46,6.48-101.71,13.85-16.88,32.77-25.28,54.52-26.3,47.88-2.26,83.09,38.61,84.83,82.31C621.87,566.24,621.81,568.06,621.81,569.87Zm-24.36-6.66a95.2,95.2,0,0,0-1.51-18.06c-.55-2.86-1-5.77-2.6-8.32-1.33-2.17-2.14-3.19-4.3-.25-4.8,6.53-15.81,8-20.79,3.17-7.39-7.12-5.25-22.77,3.81-27.82,3.65-2,3.69-2.75.29-5.15C551.42,492,525,494,506.52,511.93c-24.42,23.72-26.7,67-4.92,93.35,19,23,49.63,26.12,72.51,7C590,599,596.57,581.2,597.45,563.21Z"/>
      <path class="cls-4" d="M860.92,569.45c-.38,24.88-7.46,44-21.92,59.82-23.07,25.27-59.57,27.61-86.48,6.1-37.94-30.34-41.58-94.11-7.35-128.56,23.55-23.69,59.76-25.39,85.32-3.73C852,521.29,860.52,545.3,860.92,569.45Zm-21.16-1.11c-.34-14.09-2.25-24.46-6.88-34.18-1-2-1.12-5.51-3.47-5.77-2.9-.32-3.26,3.28-4.56,5.31-3.28,5.07-7.84,6.46-12.88,3.93-6.18-3.11-8-7.34-6.19-13.28,1.31-4.23,4.15-7.23,7.37-9.89,2.48-2.06,2-2.92-.64-4.32-17.55-9.44-36-6.75-50.55,7.6-12.08,11.87-18.12,26.6-20,43.13-2.28,20.26,1.84,39,15.43,54.67,9.74,11.27,22.23,16.8,37.25,14.61,13.2-1.93,23.21-8.79,30.78-20.12C834.65,596.25,839.7,581.49,839.76,568.34Z"/>
      <path class="cls-3" d="M597.45,563.21c-.88,18-7.46,35.79-23.34,49.06-22.88,19.13-53.49,16-72.51-7-21.78-26.34-19.5-69.63,4.92-93.35,18.44-17.91,44.9-20,65.83-5.15,3.4,2.4,3.36,3.12-.29,5.15-9.06,5.05-11.2,20.7-3.81,27.82,5,4.79,16,3.36,20.79-3.17,2.16-2.94,3-1.92,4.3.25,1.58,2.55,2,5.46,2.6,8.32A95.2,95.2,0,0,1,597.45,563.21Z"/>
      <path class="cls-3" d="M679.24,744.17c-9.76.71-18.65-2.82-27.7-5.62-3.21-1-2.89-2.28-.67-4.13,7.54-6.28,16.07-10.81,25.7-12.48,14.19-2.47,28.08-1.2,41.12,5.59,4.15,2.16,4.06,2.31.46,5.49-10.08,9-22.48,10.43-35.14,11.14C681.76,744.23,680.5,744.17,679.24,744.17Z"/>
      <path class="cls-5" d="M679.24,748.78c-9.76.71-18.65-2.83-27.7-5.62-3.21-1-2.89-2.29-.67-4.13,7.54-6.28,16.07-10.81,25.7-12.49,14.19-2.47,28.08-1.19,41.12,5.6,4.15,2.16,4.06,2.31.46,5.49-10.08,9-22.48,10.43-35.14,11.14C681.76,748.84,680.5,748.78,679.24,748.78Z"/>
    </g>
    <g>
      <path class="cls-6" d="M691.63,1625.4s3.31-2.49,6.66,19.08,18.28,18.24,18.29,26.54-8.29,11.63-11.61,11.63-17.43.85-20.78-29S691.63,1625.4,691.63,1625.4Z"/>
      <path class="cls-7" d="M690.36,1609.22S805.83,1571.49,810.23,1488c2.45-46.64-33.85-146.93-136-184.17,0,0-116.54,57-113.92,179.82C562.08,1565.79,627.68,1586.46,690.36,1609.22Z"/>
      <path class="cls-8" d="M803.93,1444.07c-17.87,17.72-67.63,50.14-121.56,68.46,0,0-28.87,1.17-118.67-68.18"/>
      <path class="cls-8" d="M607.5,1357.41s14.13,24.89,39.87,32.33,33.21,11.58,34,16.56c0,0,4.14-5.82,17.42-10.81,23.66-8.91,43.13-24.12,50.58-44"/>
      <path class="cls-3" d="M778.06,1472.27c0,7.11-2.77,15.09-7.75,22.54-4.08,6.11-9.49,9.82-16.63,10.86-8.11,1.19-14.86-1.8-20.12-7.89-7.35-8.5-9.58-18.6-8.35-29.54,1-8.93,4.28-16.9,10.8-23.31,7.89-7.75,17.83-9.21,27.32-4.1,1.4.75,1.69,1.21.35,2.33a11.4,11.4,0,0,0-4,5.34c-1,3.21,0,5.5,3.35,7.18,2.72,1.37,5.19.61,7-2.13.7-1.09.9-3,2.46-2.86,1.27.14,1.35,2,1.88,3.11C776.84,1459.06,777.87,1464.66,778.06,1472.27Z"/>
      <path class="cls-3" d="M721.58,1553.3c-4.45,7.38-10.63,12.67-19,15.1a39.94,39.94,0,0,1-20.51.16c-2-.48-4.09-1-6.08-1.7-6.84-2.29-11.17-7.38-14.71-13.33-.57-1-1.06-2-1.59-3-1-3.68-2.07-7.36-3.08-11a5.52,5.52,0,0,1,0-3.55c.48-1.15,1-2.22,2.75-.77,3.61,3,8.17,4.18,12.71,4.91,13.48,2.18,26.7,1.51,39.31-4.37a32.13,32.13,0,0,0,11-8.11c.56-.65,1-1.07,1.86-.9s.77,1,.87,1.65a41.72,41.72,0,0,1-2.43,21.27C722.3,1550.84,722,1552.08,721.58,1553.3Zm-30.27,14c.68,0,1.36,0,2,0,6.84-.39,13.54-1.19,19-6,1.94-1.72,2-1.81-.25-3-7.05-3.67-14.55-4.36-22.22-3A29.58,29.58,0,0,0,676,1562c-1.2,1-1.37,1.7.36,2.24C681.23,1565.77,686,1567.68,691.31,1567.29Z"/>
      <path class="cls-4" d="M660.28,1473.1a43.08,43.08,0,0,1-36.53,42.9c-15.87,2.34-33.34-6.4-42.28-21.14-10.62-17.5-9.48-39.16,3.5-55,7.48-9.12,17.71-13.65,29.46-14.21,25.88-1.22,44.9,20.86,45.84,44.48C660.31,1471.14,660.28,1472.12,660.28,1473.1Zm-13.16-3.6a51.69,51.69,0,0,0-.82-9.76,12.91,12.91,0,0,0-1.41-4.5c-.72-1.17-1.16-1.72-2.32-.13-2.59,3.53-8.54,4.3-11.23,1.71-4-3.84-2.84-12.3,2-15,2-1.1,2-1.48.16-2.78-11.31-8-25.61-6.9-35.57,2.78-13.2,12.82-14.43,36.21-2.66,50.45,10.28,12.43,26.82,14.11,39.18,3.77C643.08,1488.84,646.64,1479.22,647.12,1469.5Z"/>
      <path class="cls-4" d="M789.49,1472.87c-.2,13.45-4,23.76-11.84,32.33-12.47,13.66-32.2,14.92-46.74,3.29-20.5-16.39-22.47-50.85-4-69.47a33.54,33.54,0,0,1,46.11-2C784.65,1446.85,789.27,1459.82,789.49,1472.87Zm-11.43-.6c-.19-7.61-1.22-13.21-3.72-18.47-.53-1.11-.61-3-1.88-3.11-1.56-.18-1.76,1.77-2.46,2.86-1.77,2.74-4.24,3.5-7,2.13-3.34-1.68-4.35-4-3.35-7.18a11.4,11.4,0,0,1,4-5.34c1.34-1.12,1.05-1.58-.35-2.33-9.49-5.11-19.43-3.65-27.32,4.1-6.52,6.41-9.79,14.38-10.8,23.31-1.23,10.94,1,21,8.35,29.54,5.26,6.09,12,9.08,20.12,7.89,7.14-1,12.55-4.75,16.63-10.86C775.29,1487.36,778,1479.38,778.06,1472.27Z"/>
      <path class="cls-3" d="M647.12,1469.5c-.48,9.72-4,19.34-12.62,26.51-12.36,10.34-28.9,8.66-39.18-3.77-11.77-14.24-10.54-37.63,2.66-50.45,10-9.68,24.26-10.8,35.57-2.78,1.84,1.3,1.81,1.68-.16,2.78-4.89,2.73-6,11.19-2,15,2.69,2.59,8.64,1.82,11.23-1.71,1.16-1.59,1.6-1,2.32.13a12.91,12.91,0,0,1,1.41,4.5A51.69,51.69,0,0,1,647.12,1469.5Z"/>
      <path class="cls-3" d="M691.31,1567.29c-5.27.39-10.08-1.52-15-3-1.73-.54-1.56-1.24-.36-2.24a29.58,29.58,0,0,1,13.89-6.74c7.67-1.34,15.17-.65,22.22,3,2.24,1.16,2.19,1.25.25,3-5.45,4.83-12.15,5.63-19,6C692.67,1567.32,692,1567.29,691.31,1567.29Z"/>
      <path class="cls-5" d="M691.31,1569.78c-5.27.39-10.08-1.52-15-3-1.73-.54-1.56-1.24-.36-2.24a29.58,29.58,0,0,1,13.89-6.74c7.67-1.34,15.17-.65,22.22,3,2.24,1.16,2.19,1.25.25,3-5.45,4.83-12.15,5.63-19,6C692.67,1569.81,692,1569.78,691.31,1569.78Z"/>
    </g>
    <g>
      <path class="cls-6" d="M989,1622.73s3.24-2.44,6.51,18.64,17.86,17.81,17.87,25.92-8.1,11.36-11.34,11.36-17,.83-20.3-28.35S989,1622.73,989,1622.73Z"/>
      <path class="cls-6" d="M987.8,1606.92s112.79-36.85,117.09-118.44c2.39-45.56-33.07-143.53-132.83-179.9,0,0-113.84,55.64-111.28,175.65C862.49,1564.49,926.56,1584.69,987.8,1606.92Z"/>
      <path class="cls-8" d="M1098.73,1445.6c-17.45,17.3-66.06,49-118.74,66.87,0,0-28.2,1.14-115.93-66.6"/>
      <path class="cls-8" d="M906.85,1361s13.81,24.3,38.95,31.57,32.45,11.32,33.26,16.18c0,0,4.05-5.68,17-10.56,23.11-8.7,42.13-23.56,49.4-43"/>
      <path class="cls-3" d="M1073.46,1473.15c0,6.94-2.7,14.73-7.56,22-4,6-9.28,9.6-16.25,10.61-7.93,1.16-14.52-1.76-19.66-7.71-7.17-8.3-9.35-18.16-8.15-28.85,1-8.73,4.17-16.51,10.55-22.77,7.71-7.58,17.42-9,26.68-4,1.37.74,1.65,1.19.34,2.27a11.16,11.16,0,0,0-3.89,5.22c-1,3.14,0,5.38,3.27,7,2.66,1.34,5.07.61,6.8-2.07.69-1.07.88-3,2.41-2.8,1.23.14,1.31,2,1.83,3C1072.27,1460.24,1073.28,1465.71,1073.46,1473.15Z"/>
      <path class="cls-3" d="M1018.29,1552.29c-4.34,7.21-10.38,12.38-18.51,14.75a39,39,0,0,1-20,.17c-2-.47-4-1-5.93-1.67-6.68-2.23-10.91-7.21-14.37-13-.56-1-1-1.94-1.56-2.91-1-3.59-2-7.18-3-10.79a5.42,5.42,0,0,1,0-3.47c.46-1.12,1-2.16,2.68-.75,3.53,3,8,4.09,12.41,4.8,13.17,2.13,26.09,1.48,38.41-4.26a31.55,31.55,0,0,0,10.73-7.93c.55-.63,1-1,1.82-.88s.75,1,.84,1.61a40.71,40.71,0,0,1-2.37,20.78C1019,1549.9,1018.67,1551.11,1018.29,1552.29ZM988.73,1566c.66,0,1.32,0,2,0,6.69-.38,13.23-1.16,18.56-5.88,1.89-1.68,1.94-1.76-.25-2.9-6.88-3.58-14.21-4.26-21.71-3a28.82,28.82,0,0,0-13.56,6.59c-1.17,1-1.34,1.66.35,2.18C978.88,1564.47,983.57,1566.34,988.73,1566Z"/>
      <path class="cls-4" d="M958.41,1474a42.09,42.09,0,0,1-35.68,41.91c-15.5,2.28-32.57-6.26-41.31-20.66-10.36-17.09-9.25-38.25,3.42-53.69,7.31-8.91,17.3-13.34,28.78-13.89,25.28-1.19,43.87,20.38,44.78,43.46C958.44,1472,958.41,1473,958.41,1474Zm-12.86-3.52a49.5,49.5,0,0,0-.8-9.53,12.68,12.68,0,0,0-1.37-4.4c-.7-1.14-1.13-1.68-2.27-.13-2.53,3.45-8.35,4.2-11,1.67-3.91-3.75-2.78-12,2-14.68,1.93-1.07,2-1.45.16-2.72a26.62,26.62,0,0,0-34.75,2.72c-12.89,12.52-14.09,35.37-2.59,49.28,10,12.14,26.19,13.78,38.27,3.69C941.61,1489.33,945.08,1479.94,945.55,1470.44Z"/>
      <path class="cls-4" d="M1084.63,1473.73c-.2,13.14-3.94,23.21-11.57,31.58-12.18,13.34-31.45,14.57-45.65,3.22-20-16-22-49.68-3.88-67.86a32.75,32.75,0,0,1,45-2C1079.9,1448.31,1084.42,1461,1084.63,1473.73Zm-11.17-.58c-.18-7.44-1.19-12.91-3.63-18.05-.52-1.08-.6-2.9-1.83-3-1.53-.17-1.72,1.73-2.41,2.8-1.73,2.68-4.14,3.41-6.8,2.07-3.26-1.63-4.25-3.87-3.27-7a11.16,11.16,0,0,1,3.89-5.22c1.31-1.08,1-1.53-.34-2.27-9.26-5-19-3.57-26.68,4-6.38,6.26-9.57,14-10.55,22.77-1.2,10.69,1,20.55,8.15,28.85,5.14,6,11.73,8.87,19.66,7.71,7-1,12.25-4.64,16.25-10.61C1070.76,1487.88,1073.43,1480.09,1073.46,1473.15Z"/>
      <path class="cls-3" d="M945.55,1470.44c-.47,9.5-3.94,18.89-12.32,25.9-12.08,10.09-28.23,8.45-38.27-3.69-11.5-13.91-10.3-36.76,2.59-49.28a26.62,26.62,0,0,1,34.75-2.72c1.79,1.27,1.77,1.65-.16,2.72-4.78,2.67-5.91,10.93-2,14.68,2.62,2.53,8.44,1.78,11-1.67,1.14-1.55,1.57-1,2.27.13a12.68,12.68,0,0,1,1.37,4.4A49.5,49.5,0,0,1,945.55,1470.44Z"/>
      <path class="cls-3" d="M988.73,1566c-5.16.38-9.85-1.49-14.63-3-1.69-.52-1.52-1.21-.35-2.18a28.82,28.82,0,0,1,13.56-6.59c7.5-1.31,14.83-.63,21.71,3,2.19,1.14,2.14,1.22.25,2.9-5.33,4.72-11.87,5.5-18.56,5.88C990.05,1566,989.39,1566,988.73,1566Z"/>
      <path class="cls-5" d="M988.73,1568.4c-5.16.37-9.85-1.49-14.63-3-1.69-.52-1.52-1.21-.35-2.18a28.82,28.82,0,0,1,13.56-6.59c7.5-1.31,14.83-.63,21.71,2.95,2.19,1.14,2.14,1.22.25,2.9-5.33,4.72-11.87,5.51-18.56,5.88C990.05,1568.43,989.39,1568.4,988.73,1568.4Z"/>
    </g>
    <g>
      <path class="cls-1" d="M389.4,1624.66s3.36-2.53,6.75,19.33,18.52,18.47,18.53,26.88-8.4,11.78-11.76,11.78-17.66.86-21.05-29.4S389.4,1624.66,389.4,1624.66Z"/>
      <path class="cls-1" d="M388.12,1608.26s117-38.21,121.42-122.82c2.49-47.24-34.29-148.84-137.74-186.55,0,0-118,57.7-115.4,182.15C258.18,1564.27,324.62,1585.21,388.12,1608.26Z"/>
      <path class="cls-2" d="M503.16,1441c-18.1,17.94-68.51,50.79-123.14,69.34,0,0-29.24,1.18-120.21-69.07"/>
      <path class="cls-2" d="M304.18,1353.19s14.32,25.21,40.39,32.74,33.65,11.74,34.49,16.78c0,0,4.2-5.89,17.65-11,24-9,43.69-24.43,51.23-44.62"/>
      <path class="cls-3" d="M477,1469.54c0,7.2-2.8,15.28-7.84,22.83-4.14,6.2-9.62,10-16.85,11-8.22,1.2-15.06-1.83-20.39-8-7.43-8.61-9.69-18.84-8.45-29.92,1-9,4.33-17.12,10.94-23.61,8-7.86,18.07-9.33,27.68-4.16,1.42.76,1.7,1.23.35,2.36a11.51,11.51,0,0,0-4,5.41c-1,3.26,0,5.57,3.39,7.27,2.76,1.39,5.26.63,7.05-2.15.71-1.11.91-3.08,2.5-2.9,1.28.14,1.36,2,1.9,3.15C475.72,1456.15,476.77,1461.83,477,1469.54Z"/>
      <path class="cls-3" d="M419.74,1551.62c-4.5,7.47-10.77,12.83-19.19,15.29a40.44,40.44,0,0,1-20.78.17c-2.07-.48-4.14-1-6.16-1.72-6.92-2.32-11.31-7.48-14.89-13.5-.59-1-1.08-2-1.62-3-1-3.73-2.1-7.46-3.12-11.19a5.61,5.61,0,0,1,0-3.6c.48-1.16,1-2.25,2.78-.77,3.66,3.08,8.28,4.23,12.87,5,13.66,2.21,27.05,1.53,39.82-4.42a32.64,32.64,0,0,0,11.14-8.22c.56-.66,1.05-1.08,1.88-.91s.78,1,.88,1.66a42.41,42.41,0,0,1-2.46,21.56C420.48,1549.13,420.14,1550.39,419.74,1551.62Zm-30.66,14.17c.69,0,1.38,0,2.07,0,6.93-.39,13.71-1.2,19.23-6.1,2-1.74,2-1.82-.25-3-7.14-3.71-14.74-4.41-22.51-3.06a30,30,0,0,0-14.07,6.84c-1.21,1-1.39,1.72.37,2.26C378.87,1564.25,383.74,1566.18,389.08,1565.79Z"/>
      <path class="cls-3" d="M389.08,1565.79c-5.34.39-10.21-1.54-15.16-3.07-1.76-.54-1.58-1.25-.37-2.26a30,30,0,0,1,14.07-6.84c7.77-1.35,15.37-.65,22.51,3.06,2.27,1.19,2.22,1.27.25,3-5.52,4.9-12.3,5.71-19.23,6.1C390.46,1565.83,389.77,1565.79,389.08,1565.79Z"/>
      <path class="cls-4" d="M357.64,1470.38a43.63,43.63,0,0,1-37,43.46c-16.07,2.37-33.76-6.48-42.83-21.42-10.75-17.72-9.59-39.67,3.55-55.68,7.58-9.24,17.94-13.83,29.84-14.39,26.21-1.24,45.49,21.13,46.44,45.06C357.68,1468.4,357.64,1469.39,357.64,1470.38Zm-13.33-3.64a51.22,51.22,0,0,0-.83-9.89,13.17,13.17,0,0,0-1.42-4.56c-.73-1.18-1.17-1.74-2.35-.13-2.63,3.57-8.66,4.35-11.38,1.73-4.05-3.89-2.88-12.46,2.08-15.22,2-1.12,2-1.51.16-2.83-11.46-8.11-25.94-7-36,2.83-13.36,13-14.61,36.67-2.69,51.1,10.42,12.59,27.17,14.29,39.7,3.82C340.23,1486.32,343.83,1476.58,344.31,1466.74Z"/>
      <path class="cls-4" d="M488.54,1470.15c-.21,13.62-4.09,24.07-12,32.74-12.63,13.84-32.62,15.12-47.34,3.34-20.77-16.6-22.77-51.51-4-70.37a34,34,0,0,1,46.71-2C483.64,1443.79,488.31,1456.93,488.54,1470.15Zm-11.59-.61c-.18-7.71-1.23-13.39-3.76-18.71-.54-1.12-.62-3-1.9-3.15-1.59-.18-1.79,1.79-2.5,2.9-1.79,2.78-4.29,3.54-7.05,2.15-3.38-1.7-4.4-4-3.39-7.27a11.51,11.51,0,0,1,4-5.41c1.35-1.13,1.07-1.6-.35-2.36-9.61-5.17-19.68-3.7-27.68,4.16-6.61,6.49-9.92,14.56-10.94,23.61-1.24,11.08,1,21.31,8.45,29.92,5.33,6.17,12.17,9.2,20.39,8,7.23-1.06,12.71-4.81,16.85-11C474.15,1484.82,476.92,1476.74,477,1469.54Z"/>
      <path class="cls-3" d="M344.31,1466.74c-.48,9.84-4.08,19.58-12.77,26.85-12.53,10.47-29.28,8.77-39.7-3.82-11.92-14.43-10.67-38.12,2.69-51.1,10.1-9.81,24.58-10.94,36-2.83,1.86,1.32,1.84,1.71-.16,2.83-5,2.76-6.13,11.33-2.08,15.22,2.72,2.62,8.75,1.84,11.38-1.73,1.18-1.61,1.62-1.05,2.35.13a13.17,13.17,0,0,1,1.42,4.56A51.22,51.22,0,0,1,344.31,1466.74Z"/>
      <path class="cls-3" d="M327.78,1434.09a34.05,34.05,0,0,1,16.36,27.84L330,1469.86l-10.09-22.7Z"/>
      <path class="cls-3" d="M456.07,1435.39s15.14,3.36,17.66,18.5l-12.61,17.65L451,1448.84Z"/>
    </g>
  </g>
</svg>
