<svg id="Layer_1" data-name="Layer 1" xmlns="http://www.w3.org/2000/svg" xmlns:xlink="http://www.w3.org/1999/xlink" viewBox="0 0 1398 1812">
  <defs>
    <style>
      .cls-1 {
        fill: #4dc889;
      }

      .cls-10, .cls-2, .cls-7 {
        fill: none;
      }

      .cls-2 {
        stroke: #42a16c;
        stroke-width: 2px;
      }

      .cls-10, .cls-2, .cls-6, .cls-7, .cls-8, .cls-9 {
        stroke-miterlimit: 10;
      }

      .cls-3, .cls-9 {
        fill: #fcfdfd;
      }

      .cls-4 {
        fill: #00392c;
      }

      .cls-5 {
        fill: #9fe1b6;
      }

      .cls-10, .cls-6, .cls-8, .cls-9 {
        stroke: #175234;
      }

      .cls-10, .cls-6, .cls-7, .cls-8 {
        stroke-width: 3px;
      }

      .cls-6 {
        fill: url(#Leaf_Gradient_3);
      }

      .cls-7 {
        stroke: #469140;
        opacity: 0.5;
      }

      .cls-8 {
        fill: url(#Leaf_Gradient_3-2);
      }

      .cls-9 {
        stroke-width: 4px;
      }

      .cls-11 {
        fill: #42a16c;
      }

      .cls-12 {
        fill: #b3b3b3;
      }
    </style>
    <linearGradient id="Leaf_Gradient_3" data-name="Leaf Gradient 3" x1="245.08" y1="1321.13" x2="245.08" y2="1597.6" gradientUnits="userSpaceOnUse">
      <stop offset="0" stop-color="#7ae384"/>
      <stop offset="0.12" stop-color="#76da74"/>
      <stop offset="0.36" stop-color="#70ca57"/>
      <stop offset="0.5" stop-color="#6ec44c"/>
      <stop offset="0.62" stop-color="#65bd50"/>
      <stop offset="0.81" stop-color="#4daa59"/>
      <stop offset="1" stop-color="#2e9166"/>
    </linearGradient>
    <linearGradient id="Leaf_Gradient_3-2" x1="245.11" y1="1633.36" x2="245.11" y2="1681.97" xlink:href="#Leaf_Gradient_3"/>
  </defs>
  <g>
    <g>
      <path class="cls-1" d="M679.21,232.89C494.72,318.38,443,480.39,443,567.24,443,733.73,679.19,802.1,679.19,802.1s236.23-67.48,236.24-234C915.43,481.28,863.69,318.39,679.21,232.89Z"/>
      <path class="cls-2" d="M462.86,460.12c57.27,108.19,215.86,154.1,215.86,154.1s155.95-44.55,214.44-150.56"/>
      <path class="cls-2" d="M538.61,334.79C604,383.35,678.73,405,678.73,405s74.75-21.35,140.15-69.67"/>
      <path class="cls-1" d="M679.18,833.6s-6.49,0-11,33.75c-8.12,60.87-7,72,11,72s19.37-11.12,11.25-72C685.93,833.6,679.18,833.6,679.18,833.6Z"/>
      <ellipse class="cls-3" cx="807.44" cy="529.88" rx="74.24" ry="83.24"/>
      <ellipse class="cls-3" cx="550.95" cy="529.87" rx="74.24" ry="83.24"/>
      <ellipse class="cls-4" cx="558.41" cy="540.18" rx="40.23" ry="45.11"/>
      <path class="cls-4" d="M679.36,674c19.15.63,40.3-6.48,55.26-16,15.52-9.83,18.32,6.63,16,13.43-5.16,15.19-35.78,25.85-71.87,25.93h-.28c-36-2.28-66-14.8-70.28-30.27-1.92-6.93,1.8-23.2,16.74-12.43,14.4,10.37,35.11,18.75,54.26,19.3Z"/>
      <ellipse class="cls-3" cx="580.19" cy="512.18" rx="15.55" ry="17.44"/>
      <ellipse class="cls-4" cx="800.41" cy="540.18" rx="40.23" ry="45.11"/>
      <ellipse class="cls-3" cx="822.19" cy="512.18" rx="15.55" ry="17.44"/>
    </g>
    <g>
      <g>
        <path class="cls-5" d="M543.51,1307.89c-98.31,45.56-125.86,131.89-125.86,178.17,0,88.72,125.85,125.15,125.85,125.15s125.89-36,125.89-124.68C669.39,1440.25,641.82,1353.45,543.51,1307.89Z"/>
        <path class="cls-2" d="M428.23,1429c30.52,57.65,115,82.11,115,82.11s83.11-23.74,114.27-80.23"/>
        <path class="cls-2" d="M468.59,1362.19c34.85,25.88,74.67,37.4,74.67,37.4s39.83-11.37,74.68-37.12"/>
        <path class="cls-5" d="M543.5,1628s-3.46,0-5.86,18c-4.32,32.44-3.73,38.36,5.86,38.36s10.32-5.92,6-38.36C547.1,1628,543.5,1628,543.5,1628Z"/>
        <path class="cls-6" d="M245.08,1307.89c-98.32,45.56-125.87,131.89-125.87,178.17,0,88.72,125.85,125.15,125.85,125.15S371,1575.25,371,1486.53C371,1440.25,343.38,1353.45,245.08,1307.89Z"/>
        <path class="cls-7" d="M129.79,1429c30.52,57.65,115,82.11,115,82.11s83.1-23.74,114.27-80.23"/>
        <path class="cls-7" d="M170.15,1362.19c34.85,25.88,74.67,37.4,74.67,37.4s39.83-11.37,74.68-37.12"/>
        <path class="cls-8" d="M245.06,1628s-3.46,0-5.86,18c-4.32,32.44-3.73,38.36,5.86,38.36s10.32-5.92,6-38.36C248.66,1628,245.06,1628,245.06,1628Z"/>
        <ellipse class="cls-9" cx="313.41" cy="1466.15" rx="39.56" ry="44.36"/>
        <ellipse class="cls-9" cx="176.73" cy="1466.14" rx="39.56" ry="44.36"/>
        <ellipse cx="180.71" cy="1471.64" rx="21.44" ry="24.04"/>
        <path d="M245.16,1542.94c10.2.33,21.47-3.45,29.44-8.5,8.28-5.24,9.77,3.53,8.53,7.15-2.75,8.1-19.06,13.78-38.29,13.82h-.15c-19.2-1.22-35.16-7.89-37.45-16.14-1-3.69,1-12.35,8.92-6.62,7.67,5.53,18.71,10,28.91,10.29Z"/>
        <ellipse class="cls-3" cx="192.31" cy="1456.72" rx="8.29" ry="9.29"/>
        <ellipse cx="309.66" cy="1471.64" rx="21.44" ry="24.04"/>
        <ellipse class="cls-3" cx="321.27" cy="1456.72" rx="8.29" ry="9.29"/>
        <path class="cls-10" d="M245.08,1307.89c-98.32,45.56-125.87,131.89-125.87,178.17,0,88.72,125.85,125.15,125.85,125.15S371,1575.25,371,1486.53C371,1440.25,343.38,1353.45,245.08,1307.89Z"/>
      </g>
      <g>
        <path class="cls-1" d="M1108.17,1647.21s-3.61-.71-9.84,17.55c-11.24,33-11.85,39.26-1.85,41.25s12-4,14.21-38.79C1111.92,1648,1108.17,1647.21,1108.17,1647.21Z"/>
        <path class="cls-5" d="M1076.35,1504.87c-2.52-33.2-19.93-85.06-64.34-127.65-34,47.12-25.18,98-22.76,129.92,3.17,41.79,14.46,70.62,45.35,89.78C1059.29,1574,1079.26,1543.22,1076.35,1504.87Z"/>
        <path class="cls-5" d="M1076.47,1502.51c-2.48-34-19.82-87.16-64.17-130.76-34,48.34-25.32,100.47-22.94,133.19,3.12,42.84,14.37,72.38,45.24,92h0C1059.32,1573.35,1079.33,1541.82,1076.47,1502.51Z"/>
        <line class="cls-5" x1="1034.6" y1="1596.92" x2="1034.6" y2="1596.92"/>
        <path class="cls-1" d="M1091,1308c108,40.41,144.19,130.26,147.91,179.35,7.14,94.11-123.49,142.39-123.49,142.39s-42.17-8.81-80.85-32.81c24.69-23,44.66-53.7,41.75-92.05-2.52-33.2-65.72-66.13-64.34-127.65C1012.61,1351,1091,1308,1091,1308Z"/>
        <polygon class="cls-5" points="1034.6 1596.92 1034.6 1596.92 1034.6 1596.92 1034.6 1596.92"/>
        <path class="cls-11" d="M1111.39,1532.27l-.22-.06a282.08,282.08,0,0,1-49.51-18.77c-44.55-21.76-65.73-46.83-75.65-64l1.36-.78c9.81,17,30.77,41.8,74.94,63.38a282.53,282.53,0,0,0,49,18.62,281.15,281.15,0,0,0,46.73-21.91c41.86-24.45,60.93-50.32,69.55-67.71l1.41.7c-8.73,17.59-28,43.73-70.2,68.38a281.62,281.62,0,0,1-47.22,22.11Z"/>
        <path class="cls-11" d="M1097.33,1403l-.22,0c-.43-.1-43.51-10.41-81.61-35.79l.87-1.3c36.45,24.28,77.51,34.69,80.88,35.51,3.27-1.15,43.07-15.54,76.87-43.29l1,1.22c-35.32,29-77.15,43.49-77.56,43.63Z"/>
        <ellipse class="cls-3" cx="1182.44" cy="1459.02" rx="42.09" ry="47.19" transform="translate(-84.9 73.1) rotate(-3.42)"/>
        <ellipse class="cls-3" cx="1037.31" cy="1467.69" rx="42.09" ry="47.19" transform="translate(-85.67 64.47) rotate(-3.42)"/>
        <ellipse class="cls-4" cx="1041.88" cy="1473.27" rx="22.81" ry="25.57" transform="translate(-86 64.75) rotate(-3.42)"/>
        <ellipse class="cls-3" cx="1053.26" cy="1456.7" rx="8.82" ry="9.89" transform="translate(-84.99 65.4) rotate(-3.42)"/>
        <ellipse class="cls-4" cx="1185.09" cy="1459.6" rx="22.81" ry="25.57" transform="translate(-84.93 73.26) rotate(-3.42)"/>
        <ellipse class="cls-3" cx="1196.46" cy="1443.02" rx="8.82" ry="9.89" transform="translate(-83.92 73.91) rotate(-3.42)"/>
        <path class="cls-5" d="M1076.5,1516.91a97.16,97.16,0,0,0-.15-12c-2.52-33.2-65.72-66.13-64.34-127.65a16.82,16.82,0,0,1,.91-4.84c-.21-.21-.41-.43-.62-.63-34,48.34-25.32,100.47-22.94,133.19,3.12,42.84,14.37,72.37,45.24,92h0C1056.23,1576.3,1074.25,1549.59,1076.5,1516.91Z"/>
        <path class="cls-4" d="M1116.73,1586.92c6.27,0,29,11,30.57-11.75s-30.57-18.82-30.57-18.82h0s-32.14-3.92-30.57,18.82,24.3,11.75,30.57,11.75Z"/>
        <path class="cls-11" d="M1072.81,1491.72c-44.15-18.21-82.06-11.25-82.44-11.17l-.3-1.54c.38-.07,38.73-7.13,83.34,11.26Z"/>
        <path class="cls-12" d="M918.15,1412.09h-145a7.84,7.84,0,0,1,0-15.68H917.07a44.19,44.19,0,0,0,15.9-6.36c10-6.59,15.07-16.68,15.07-30,0-14.25-3.49-24.71-10.38-31.07-8.34-7.72-19.27-7.1-19.38-7.09l-.83.07-.82-.11s-7.71-.83-13.08,3.77c-3.77,3.23-5.82,8.69-6.11,16.22-.26,6.71,1.18,11.74,4.28,15,5.35,5.56,15.22,5.56,18.93,5.56a7.84,7.84,0,1,1,0,15.68c-5.54,0-20.26,0-30.23-10.36-6.17-6.42-9.08-15.31-8.65-26.44.47-12.19,4.43-21.51,11.77-27.69,9.49-8,21.06-7.63,24.37-7.33,3.71-.1,18.48.22,30.4,11.25,10.22,9.45,15.4,23.78,15.4,42.58,0,23.9-12.35,36.83-22.71,43.47a59.49,59.49,0,0,1-22.36,8.49Z"/>
        <path class="cls-12" d="M957.56,1533.89h-145a7.84,7.84,0,0,1,0-15.68H956.47a44.62,44.62,0,0,0,15.91-6.36c10-6.59,15.06-16.68,15.06-30,0-14.25-3.49-24.71-10.37-31.07-8.34-7.72-19.28-7.1-19.39-7.09l-.83.06-.82-.11s-7.71-.82-13.08,3.78c-3.76,3.23-5.82,8.69-6.11,16.22-.26,6.71,1.18,11.74,4.29,15,5.34,5.56,15.21,5.56,18.93,5.56a7.84,7.84,0,0,1,0,15.67c-5.54,0-20.26,0-30.23-10.36-6.17-6.41-9.08-15.3-8.65-26.43.46-12.19,4.43-21.51,11.77-27.69,9.49-8,21.06-7.63,24.36-7.33,3.72-.1,18.48.22,30.4,11.25,10.23,9.45,15.41,23.78,15.41,42.58,0,23.9-12.35,36.83-22.72,43.46a59.4,59.4,0,0,1-22.36,8.5Z"/>
        <path class="cls-12" d="M840.81,1699.8h-145a7.84,7.84,0,1,1,0-15.67H839.73a44.6,44.6,0,0,0,15.9-6.36c10-6.59,15.07-16.68,15.07-30,0-14.25-3.49-24.7-10.38-31.07-8.34-7.72-19.27-7.1-19.39-7.08l-.82.06-.82-.11s-7.71-.83-13.08,3.78c-3.77,3.23-5.82,8.68-6.11,16.22-.26,6.7,1.18,11.74,4.28,15,5.35,5.55,15.22,5.55,18.93,5.55a7.84,7.84,0,1,1,0,15.68c-5.54,0-20.26,0-30.23-10.36-6.17-6.41-9.08-15.31-8.65-26.44.47-12.18,4.43-21.5,11.77-27.68,9.49-8,21-7.63,24.37-7.34,3.72-.09,18.48.23,30.4,11.25,10.22,9.46,15.4,23.78,15.4,42.58,0,23.9-12.35,36.83-22.71,43.47a59.08,59.08,0,0,1-22.36,8.49Z"/>
      </g>
    </g>
  </g>
</svg>
